M48
;DRILL file {Pcbnew (2013-07-07 BZR 4022)-stable} date Tue 03 Dec 2013 19:21:56 NZDT
;FORMAT={2:4/ absolute / inch / keep zeros}
FMAT,2
INCH,TZ
T1C0.015
T2C0.039
T3C0.070
T4C0.126
%
G90
G05
M72
T1
X056400Y-072700
X056450Y-077700
X056700Y-072700
X057000Y-072700
X057300Y-072700
X057450Y-075350
X057600Y-072700
X057900Y-075350
X058100Y-078050
X058300Y-075150
X058400Y-076600
X058600Y-079100
X058700Y-076350
X059100Y-080950
X059600Y-074800
X059650Y-080900
X059750Y-076400
X061100Y-076550
X061100Y-077750
X061350Y-061550
X061350Y-061850
X061600Y-062100
X061700Y-057200
X061700Y-057500
X061700Y-057800
X061950Y-079500
X061950Y-081350
X062000Y-062100
X062700Y-062100
X063100Y-062100
X063450Y-071050
X063450Y-071300
X063650Y-068250
X063850Y-062850
X063850Y-067950
X064250Y-061600
X064250Y-062400
X064370Y-075394
X064370Y-078937
X064400Y-071050
X064400Y-071300
X065500Y-067450
X066150Y-062700
X066350Y-073700
X066500Y-076700
X066500Y-077200
X066500Y-077700
X066500Y-078200
X066550Y-068350
X067150Y-078750
X067750Y-076100
X067800Y-069050
X067800Y-069650
X067950Y-075800
X068000Y-062300
X068250Y-066600
X068350Y-062300
X068550Y-075800
X068550Y-079000
X068550Y-079600
X068750Y-076100
X068800Y-069050
X068800Y-069650
X068850Y-078850
X068850Y-079750
X069100Y-067550
X069100Y-068550
X069150Y-062300
X069250Y-078650
X069400Y-077200
X069500Y-062300
X069650Y-067550
X069650Y-068550
X069800Y-061750
X069800Y-062050
X070400Y-079050
X070600Y-067150
X070600Y-069150
X070850Y-067150
X070850Y-069150
X071100Y-067150
X071100Y-069150
X071400Y-076100
X071600Y-075800
X071700Y-077450
X071750Y-067050
X071750Y-069300
X071750Y-082200
X071950Y-080900
X071950Y-082500
X072150Y-077450
X072200Y-059300
X072200Y-059900
X072200Y-075800
X072400Y-076100
X072500Y-059100
X072500Y-060150
X072550Y-080900
X072550Y-082500
X072750Y-082200
X073200Y-082200
X073600Y-058350
X073950Y-056000
X074150Y-055700
X075350Y-078550
X075350Y-079550
X075650Y-078750
X075650Y-079350
X075900Y-066400
X076100Y-066050
X076200Y-070100
X076400Y-070400
X076700Y-066050
X077000Y-070400
X077200Y-070100
X077750Y-056500
X077750Y-056750
X077750Y-057200
X077750Y-057450
X077750Y-062850
X077950Y-056300
X078050Y-058000
X078050Y-058400
X078050Y-065700
X078050Y-066400
X078150Y-063200
X078300Y-057900
X078300Y-058500
X078500Y-070100
X078500Y-070800
X078550Y-056300
X078550Y-057600
X078800Y-056550
X078800Y-056800
X079150Y-062950
X079200Y-056250
X079200Y-056550
X079450Y-063150
X079800Y-064950
X079800Y-065550
X080100Y-064750
X080100Y-065750
X080400Y-069950
X080800Y-064750
X080800Y-065750
X080800Y-070300
X081300Y-074850
X081300Y-075550
X081300Y-080350
X081300Y-081050
X081700Y-062350
X081850Y-068800
X081850Y-069400
X081850Y-070650
X081850Y-071250
X081900Y-076400
X081900Y-077100
X081900Y-081900
X081900Y-082600
X082150Y-068600
X082150Y-071450
X082400Y-062350
X082400Y-063350
X082750Y-062550
X082750Y-063150
X082900Y-076400
X082900Y-077100
X082900Y-081900
X082900Y-082600
X083200Y-074300
X083200Y-079750
X083400Y-076400
X083400Y-077100
X083400Y-081900
X083400Y-082600
X083550Y-074300
X083550Y-079750
X084400Y-065050
X084400Y-076400
X084400Y-077100
X084400Y-081900
X084400Y-082600
X084500Y-066050
X084650Y-065050
X084750Y-069800
X084900Y-068600
X084900Y-071450
X085150Y-074050
X085150Y-079600
X085200Y-068800
X085200Y-069400
X085200Y-070650
X085200Y-071250
X085600Y-066100
X085700Y-065050
X085850Y-066100
X086300Y-065050
X086750Y-074500
X086750Y-074850
X086750Y-075200
X086750Y-080000
X086750Y-080400
X086750Y-080800
X086950Y-067800
X088400Y-074200
X088400Y-075200
X088400Y-079750
X088400Y-080750
X089050Y-074200
X089050Y-075200
X089050Y-079750
X089050Y-080750
X089200Y-064300
X089350Y-074400
X089350Y-075000
X089350Y-079950
X089350Y-080550
X089750Y-060100
X089900Y-064300
X090200Y-063400
X090200Y-064000
X090700Y-068200
X090750Y-070550
X090950Y-067900
X090950Y-068500
X090950Y-070300
X091550Y-067900
X091550Y-068500
X091550Y-070300
X091700Y-066650
X091700Y-069500
X092550Y-070800
T2
X057874Y-056496
X060000Y-059400
X063900Y-072500
X064000Y-081500
X065000Y-082500
X066000Y-081500
X067000Y-082500
X067600Y-074200
X068000Y-081500
X068800Y-074200
X069000Y-082500
X070000Y-074200
X071000Y-060300
X071200Y-074200
X074650Y-066700
X074750Y-070100
X075550Y-065000
X076000Y-071150
X076600Y-059950
X079250Y-066200
X080300Y-079000
X080300Y-080300
X080300Y-081600
X080400Y-073600
X080400Y-074900
X080400Y-076200
X080550Y-061600
X083424Y-057306
X084650Y-064350
X085700Y-076800
X085700Y-082400
X085900Y-066800
X086050Y-070200
X086811Y-057283
X087350Y-076800
X087350Y-082400
X087600Y-073700
X087600Y-079200
X087800Y-062750
X088100Y-067300
X088100Y-068600
X088100Y-069900
X088100Y-071200
X088650Y-059300
X090551Y-081890
X091100Y-062700
X091100Y-065100
T3
X055512Y-069291
T4
X055906Y-055118
X055906Y-083465
X092126Y-055118
X092126Y-083465
T0
M30
