G04 (created by PCBNEW (2013-07-07 BZR 4022)-stable) date Tue 03 Dec 2013 19:18:52 NZDT*
%MOIN*%
G04 Gerber Fmt 3.4, Leading zero omitted, Abs format*
%FSLAX34Y34*%
G01*
G70*
G90*
G04 APERTURE LIST*
%ADD10C,0.00590551*%
%ADD11C,0.0826772*%
%ADD12C,0.15748*%
%ADD13C,0.0787402*%
%ADD14C,0.03*%
%ADD15C,0.06*%
%ADD16C,0.015*%
%ADD17C,0.01*%
G04 APERTURE END LIST*
G54D10*
G54D11*
X55511Y-69291D03*
G54D12*
X55905Y-55118D03*
G54D13*
X87350Y-76800D03*
X86811Y-57283D03*
X57874Y-56496D03*
X88650Y-59300D03*
X87800Y-62750D03*
X91100Y-62700D03*
X88100Y-71200D03*
X88100Y-69900D03*
X88100Y-68600D03*
X88100Y-67300D03*
X87600Y-73700D03*
X83423Y-57305D03*
X87350Y-82400D03*
X87600Y-79200D03*
X85900Y-66800D03*
X76600Y-59950D03*
X60000Y-59400D03*
X63900Y-72500D03*
X80550Y-61600D03*
X84650Y-64350D03*
X67600Y-74200D03*
X64000Y-81500D03*
X68800Y-74200D03*
X70000Y-74200D03*
X71200Y-74200D03*
X80300Y-80300D03*
X80300Y-81600D03*
X80300Y-79000D03*
X80400Y-74900D03*
X80400Y-76200D03*
X80400Y-73600D03*
X90551Y-81889D03*
X86050Y-70200D03*
X76000Y-71150D03*
X79250Y-66200D03*
X75550Y-65000D03*
X74650Y-66700D03*
X74750Y-70100D03*
X85700Y-76800D03*
X85700Y-82400D03*
X91100Y-65100D03*
X71000Y-60300D03*
X68000Y-81500D03*
X69000Y-82500D03*
X65000Y-82500D03*
X67000Y-82500D03*
X66000Y-81500D03*
G54D12*
X92125Y-55118D03*
X92125Y-83464D03*
X55905Y-83464D03*
G54D14*
X89350Y-75000D03*
X89350Y-80550D03*
X78550Y-57600D03*
X78550Y-56300D03*
X78800Y-56550D03*
X78800Y-56800D03*
X90200Y-63400D03*
X88400Y-80750D03*
X89050Y-80750D03*
X89050Y-75200D03*
X88400Y-75200D03*
X81850Y-69400D03*
X85200Y-69400D03*
X76400Y-70400D03*
X76200Y-70100D03*
X72500Y-60150D03*
X72200Y-59900D03*
X85600Y-66100D03*
X91550Y-70300D03*
X85850Y-66100D03*
X67150Y-78750D03*
X66350Y-73700D03*
X65500Y-67450D03*
X66550Y-68350D03*
X67800Y-69650D03*
X67800Y-69050D03*
X64400Y-71050D03*
X64400Y-71300D03*
X71600Y-75800D03*
X71400Y-76100D03*
X68550Y-75800D03*
X68750Y-76100D03*
X68550Y-79600D03*
X68850Y-79750D03*
X72550Y-82500D03*
X72750Y-82200D03*
X75650Y-78750D03*
X75350Y-78550D03*
X81300Y-81050D03*
X81300Y-80350D03*
X81300Y-75550D03*
X81300Y-74850D03*
X70600Y-69150D03*
X71100Y-69150D03*
X80400Y-69950D03*
X78150Y-63200D03*
X77750Y-62850D03*
X84650Y-65050D03*
X84400Y-65050D03*
X80800Y-70300D03*
X70850Y-69150D03*
X83400Y-82600D03*
X83400Y-81900D03*
X83400Y-77100D03*
X83400Y-76400D03*
X76700Y-66050D03*
X81850Y-70650D03*
X85200Y-70650D03*
X91550Y-67900D03*
X91550Y-68500D03*
X82750Y-62550D03*
X82400Y-62350D03*
X81700Y-62350D03*
X79800Y-64950D03*
X80100Y-64750D03*
X80800Y-64750D03*
X69100Y-68550D03*
X69650Y-68550D03*
X82900Y-82600D03*
X82900Y-81900D03*
X82900Y-77100D03*
X82900Y-76400D03*
X89350Y-74400D03*
X89350Y-79950D03*
X76100Y-66050D03*
X81850Y-68800D03*
X85200Y-68800D03*
X81850Y-71250D03*
X85200Y-71250D03*
X77000Y-70400D03*
X68250Y-66600D03*
X70600Y-67150D03*
X71100Y-67150D03*
X77750Y-57200D03*
X77750Y-57450D03*
X77950Y-56300D03*
X77750Y-56500D03*
X77750Y-56750D03*
X73950Y-56000D03*
X74150Y-55700D03*
X73600Y-58350D03*
X72200Y-59300D03*
X61350Y-61850D03*
X61350Y-61550D03*
X69800Y-62050D03*
X69800Y-61750D03*
X78050Y-58000D03*
X78300Y-57900D03*
X78050Y-58400D03*
X78300Y-58500D03*
X90750Y-70550D03*
X90950Y-70300D03*
X90700Y-68200D03*
X90950Y-68500D03*
X90950Y-67900D03*
X90200Y-64000D03*
X86300Y-65050D03*
X85700Y-65050D03*
X82750Y-63150D03*
X79150Y-62950D03*
X79450Y-63150D03*
X80100Y-65750D03*
X80800Y-65750D03*
X79800Y-65550D03*
X68800Y-69650D03*
X68800Y-69050D03*
X70850Y-67150D03*
X71750Y-69300D03*
X71750Y-67050D03*
X69100Y-67550D03*
X69650Y-67550D03*
X63850Y-67950D03*
X63650Y-68250D03*
X63450Y-71050D03*
X63450Y-71300D03*
X64370Y-78937D03*
X64370Y-75393D03*
X56700Y-72700D03*
X57000Y-72700D03*
X56400Y-72700D03*
X57300Y-72700D03*
X57600Y-72700D03*
X57450Y-75350D03*
X57900Y-75350D03*
X58600Y-79100D03*
X58300Y-75150D03*
X59600Y-74800D03*
X56450Y-77700D03*
X59100Y-80950D03*
X59650Y-80900D03*
X72200Y-75800D03*
X72400Y-76100D03*
X66500Y-78200D03*
X66500Y-77700D03*
X66500Y-77200D03*
X66500Y-76700D03*
X67950Y-75800D03*
X67750Y-76100D03*
X69400Y-77200D03*
X68550Y-79000D03*
X68850Y-78850D03*
X71950Y-80900D03*
X71950Y-82500D03*
X71750Y-82200D03*
X75650Y-79350D03*
X75350Y-79550D03*
X91700Y-69500D03*
X92550Y-70800D03*
X83550Y-79750D03*
X83200Y-79750D03*
X84400Y-82600D03*
X84400Y-81900D03*
X81900Y-82600D03*
X81900Y-81900D03*
X86750Y-80000D03*
X86750Y-80800D03*
X86750Y-80400D03*
X85150Y-79600D03*
X89050Y-79750D03*
X88400Y-79750D03*
X89050Y-74200D03*
X88400Y-74200D03*
X86750Y-74500D03*
X86750Y-75200D03*
X86750Y-74850D03*
X85150Y-74050D03*
X84400Y-77100D03*
X84400Y-76400D03*
X81900Y-77100D03*
X81900Y-76400D03*
X83550Y-74300D03*
X83200Y-74300D03*
X75900Y-66400D03*
X78050Y-66400D03*
X78050Y-65700D03*
X78500Y-70800D03*
X78500Y-70100D03*
X77200Y-70100D03*
X84900Y-68600D03*
X82150Y-68600D03*
X82150Y-71450D03*
X84900Y-71450D03*
X84750Y-69800D03*
X84500Y-66050D03*
X82400Y-63350D03*
X91700Y-66650D03*
X89900Y-64300D03*
X89200Y-64300D03*
X89750Y-60100D03*
X79200Y-56250D03*
X79200Y-56550D03*
X72500Y-59100D03*
X69500Y-62300D03*
X69150Y-62300D03*
X68350Y-62300D03*
X68000Y-62300D03*
X66150Y-62700D03*
X63850Y-62850D03*
X64250Y-62400D03*
X64250Y-61600D03*
X63100Y-62100D03*
X62700Y-62100D03*
X62000Y-62100D03*
X61600Y-62100D03*
X61700Y-57200D03*
X61700Y-57800D03*
X61700Y-57500D03*
X58400Y-76600D03*
X61100Y-77750D03*
X86950Y-67800D03*
X70400Y-79050D03*
X61950Y-81350D03*
X73200Y-82200D03*
X72550Y-80900D03*
X58100Y-78050D03*
X59750Y-76400D03*
X58700Y-76350D03*
X61100Y-76550D03*
X72150Y-77450D03*
X71700Y-77450D03*
X69250Y-78650D03*
X61950Y-79500D03*
G54D15*
X91550Y-70300D02*
X91700Y-70150D01*
X85700Y-66000D02*
X85600Y-66100D01*
X91950Y-66000D02*
X85700Y-66000D01*
X92550Y-66600D02*
X91950Y-66000D01*
X92550Y-69750D02*
X92550Y-66600D01*
X92150Y-70150D02*
X92550Y-69750D01*
X91700Y-70150D02*
X92150Y-70150D01*
G54D16*
X86950Y-67800D02*
X87300Y-67800D01*
X87300Y-67800D02*
X88100Y-68600D01*
G54D10*
G36*
X81642Y-84201D02*
X80973Y-84201D01*
X80973Y-76086D01*
X80973Y-74786D01*
X80886Y-74575D01*
X80725Y-74413D01*
X80514Y-74326D01*
X80286Y-74326D01*
X80075Y-74413D01*
X79913Y-74574D01*
X79826Y-74785D01*
X79826Y-75013D01*
X79913Y-75224D01*
X80074Y-75386D01*
X80285Y-75473D01*
X80513Y-75473D01*
X80724Y-75386D01*
X80886Y-75225D01*
X80973Y-75014D01*
X80973Y-74786D01*
X80973Y-76086D01*
X80886Y-75875D01*
X80725Y-75713D01*
X80514Y-75626D01*
X80286Y-75626D01*
X80075Y-75713D01*
X79913Y-75874D01*
X79826Y-76085D01*
X79826Y-76313D01*
X79913Y-76524D01*
X80074Y-76686D01*
X80285Y-76773D01*
X80513Y-76773D01*
X80724Y-76686D01*
X80886Y-76525D01*
X80973Y-76314D01*
X80973Y-76086D01*
X80973Y-84201D01*
X80873Y-84201D01*
X80873Y-81486D01*
X80873Y-80186D01*
X80873Y-78886D01*
X80786Y-78675D01*
X80625Y-78513D01*
X80414Y-78426D01*
X80186Y-78426D01*
X79975Y-78513D01*
X79813Y-78674D01*
X79726Y-78885D01*
X79726Y-79113D01*
X79813Y-79324D01*
X79974Y-79486D01*
X80185Y-79573D01*
X80413Y-79573D01*
X80624Y-79486D01*
X80786Y-79325D01*
X80873Y-79114D01*
X80873Y-78886D01*
X80873Y-80186D01*
X80786Y-79975D01*
X80625Y-79813D01*
X80414Y-79726D01*
X80186Y-79726D01*
X79975Y-79813D01*
X79813Y-79974D01*
X79726Y-80185D01*
X79726Y-80413D01*
X79813Y-80624D01*
X79974Y-80786D01*
X80185Y-80873D01*
X80413Y-80873D01*
X80624Y-80786D01*
X80786Y-80625D01*
X80873Y-80414D01*
X80873Y-80186D01*
X80873Y-81486D01*
X80786Y-81275D01*
X80625Y-81113D01*
X80414Y-81026D01*
X80186Y-81026D01*
X79975Y-81113D01*
X79813Y-81274D01*
X79726Y-81485D01*
X79726Y-81713D01*
X79813Y-81924D01*
X79974Y-82086D01*
X80185Y-82173D01*
X80413Y-82173D01*
X80624Y-82086D01*
X80786Y-81925D01*
X80873Y-81714D01*
X80873Y-81486D01*
X80873Y-84201D01*
X75980Y-84201D01*
X75980Y-79284D01*
X75929Y-79163D01*
X75837Y-79070D01*
X75715Y-79020D01*
X75584Y-79019D01*
X75463Y-79070D01*
X75370Y-79162D01*
X75346Y-79219D01*
X75284Y-79219D01*
X75163Y-79270D01*
X75070Y-79362D01*
X75020Y-79484D01*
X75019Y-79615D01*
X75070Y-79736D01*
X75162Y-79829D01*
X75284Y-79879D01*
X75415Y-79880D01*
X75536Y-79829D01*
X75629Y-79737D01*
X75653Y-79680D01*
X75715Y-79680D01*
X75836Y-79629D01*
X75929Y-79537D01*
X75979Y-79415D01*
X75980Y-79284D01*
X75980Y-84201D01*
X73530Y-84201D01*
X73530Y-82134D01*
X73479Y-82013D01*
X73387Y-81920D01*
X73265Y-81870D01*
X73134Y-81869D01*
X73013Y-81920D01*
X72920Y-82012D01*
X72880Y-82109D01*
X72880Y-80834D01*
X72829Y-80713D01*
X72737Y-80620D01*
X72730Y-80617D01*
X72730Y-76034D01*
X72679Y-75913D01*
X72587Y-75820D01*
X72530Y-75796D01*
X72530Y-75734D01*
X72479Y-75613D01*
X72387Y-75520D01*
X72265Y-75470D01*
X72134Y-75469D01*
X72013Y-75520D01*
X71920Y-75612D01*
X71870Y-75734D01*
X71869Y-75865D01*
X71920Y-75986D01*
X72012Y-76079D01*
X72069Y-76103D01*
X72069Y-76165D01*
X72120Y-76286D01*
X72212Y-76379D01*
X72334Y-76429D01*
X72465Y-76430D01*
X72586Y-76379D01*
X72679Y-76287D01*
X72729Y-76165D01*
X72730Y-76034D01*
X72730Y-80617D01*
X72615Y-80570D01*
X72484Y-80569D01*
X72480Y-80571D01*
X72480Y-77384D01*
X72429Y-77263D01*
X72337Y-77170D01*
X72215Y-77120D01*
X72084Y-77119D01*
X71963Y-77170D01*
X71925Y-77208D01*
X71887Y-77170D01*
X71773Y-77123D01*
X71773Y-74086D01*
X71686Y-73875D01*
X71525Y-73713D01*
X71314Y-73626D01*
X71086Y-73626D01*
X70875Y-73713D01*
X70713Y-73874D01*
X70626Y-74085D01*
X70626Y-74313D01*
X70713Y-74524D01*
X70874Y-74686D01*
X71085Y-74773D01*
X71313Y-74773D01*
X71524Y-74686D01*
X71686Y-74525D01*
X71773Y-74314D01*
X71773Y-74086D01*
X71773Y-77123D01*
X71765Y-77120D01*
X71634Y-77119D01*
X71513Y-77170D01*
X71420Y-77262D01*
X71370Y-77384D01*
X71369Y-77515D01*
X71420Y-77636D01*
X71512Y-77729D01*
X71634Y-77779D01*
X71765Y-77780D01*
X71886Y-77729D01*
X71924Y-77691D01*
X71962Y-77729D01*
X72084Y-77779D01*
X72215Y-77780D01*
X72336Y-77729D01*
X72429Y-77637D01*
X72479Y-77515D01*
X72480Y-77384D01*
X72480Y-80571D01*
X72363Y-80620D01*
X72270Y-80712D01*
X72250Y-80761D01*
X72229Y-80713D01*
X72137Y-80620D01*
X72015Y-80570D01*
X71884Y-80569D01*
X71763Y-80620D01*
X71670Y-80712D01*
X71620Y-80834D01*
X71619Y-80965D01*
X71670Y-81086D01*
X71762Y-81179D01*
X71884Y-81229D01*
X72015Y-81230D01*
X72136Y-81179D01*
X72229Y-81087D01*
X72249Y-81038D01*
X72270Y-81086D01*
X72362Y-81179D01*
X72484Y-81229D01*
X72615Y-81230D01*
X72736Y-81179D01*
X72829Y-81087D01*
X72879Y-80965D01*
X72880Y-80834D01*
X72880Y-82109D01*
X72870Y-82134D01*
X72869Y-82265D01*
X72920Y-82386D01*
X73012Y-82479D01*
X73134Y-82529D01*
X73265Y-82530D01*
X73386Y-82479D01*
X73479Y-82387D01*
X73529Y-82265D01*
X73530Y-82134D01*
X73530Y-84201D01*
X72280Y-84201D01*
X72280Y-82434D01*
X72229Y-82313D01*
X72137Y-82220D01*
X72080Y-82196D01*
X72080Y-82134D01*
X72029Y-82013D01*
X71937Y-81920D01*
X71815Y-81870D01*
X71684Y-81869D01*
X71563Y-81920D01*
X71470Y-82012D01*
X71420Y-82134D01*
X71419Y-82265D01*
X71470Y-82386D01*
X71562Y-82479D01*
X71619Y-82503D01*
X71619Y-82565D01*
X71670Y-82686D01*
X71762Y-82779D01*
X71884Y-82829D01*
X72015Y-82830D01*
X72136Y-82779D01*
X72229Y-82687D01*
X72279Y-82565D01*
X72280Y-82434D01*
X72280Y-84201D01*
X70730Y-84201D01*
X70730Y-78984D01*
X70679Y-78863D01*
X70587Y-78770D01*
X70573Y-78764D01*
X70573Y-74086D01*
X70486Y-73875D01*
X70325Y-73713D01*
X70114Y-73626D01*
X69886Y-73626D01*
X69675Y-73713D01*
X69513Y-73874D01*
X69426Y-74085D01*
X69426Y-74313D01*
X69513Y-74524D01*
X69674Y-74686D01*
X69885Y-74773D01*
X70113Y-74773D01*
X70324Y-74686D01*
X70486Y-74525D01*
X70573Y-74314D01*
X70573Y-74086D01*
X70573Y-78764D01*
X70465Y-78720D01*
X70334Y-78719D01*
X70213Y-78770D01*
X70120Y-78862D01*
X70070Y-78984D01*
X70069Y-79115D01*
X70120Y-79236D01*
X70212Y-79329D01*
X70334Y-79379D01*
X70465Y-79380D01*
X70586Y-79329D01*
X70679Y-79237D01*
X70729Y-79115D01*
X70730Y-78984D01*
X70730Y-84201D01*
X69730Y-84201D01*
X69730Y-77134D01*
X69679Y-77013D01*
X69587Y-76920D01*
X69465Y-76870D01*
X69373Y-76869D01*
X69373Y-74086D01*
X69286Y-73875D01*
X69125Y-73713D01*
X68914Y-73626D01*
X68686Y-73626D01*
X68475Y-73713D01*
X68313Y-73874D01*
X68226Y-74085D01*
X68226Y-74313D01*
X68313Y-74524D01*
X68474Y-74686D01*
X68685Y-74773D01*
X68913Y-74773D01*
X69124Y-74686D01*
X69286Y-74525D01*
X69373Y-74314D01*
X69373Y-74086D01*
X69373Y-76869D01*
X69334Y-76869D01*
X69213Y-76920D01*
X69120Y-77012D01*
X69070Y-77134D01*
X69069Y-77265D01*
X69120Y-77386D01*
X69212Y-77479D01*
X69334Y-77529D01*
X69465Y-77530D01*
X69586Y-77479D01*
X69679Y-77387D01*
X69729Y-77265D01*
X69730Y-77134D01*
X69730Y-84201D01*
X69580Y-84201D01*
X69580Y-78584D01*
X69529Y-78463D01*
X69437Y-78370D01*
X69315Y-78320D01*
X69184Y-78319D01*
X69063Y-78370D01*
X68970Y-78462D01*
X68942Y-78530D01*
X68915Y-78520D01*
X68784Y-78519D01*
X68663Y-78570D01*
X68570Y-78662D01*
X68567Y-78670D01*
X68484Y-78669D01*
X68363Y-78720D01*
X68280Y-78803D01*
X68280Y-75734D01*
X68229Y-75613D01*
X68173Y-75557D01*
X68173Y-74086D01*
X68086Y-73875D01*
X67925Y-73713D01*
X67714Y-73626D01*
X67486Y-73626D01*
X67275Y-73713D01*
X67113Y-73874D01*
X67026Y-74085D01*
X67026Y-74313D01*
X67113Y-74524D01*
X67274Y-74686D01*
X67485Y-74773D01*
X67713Y-74773D01*
X67924Y-74686D01*
X68086Y-74525D01*
X68173Y-74314D01*
X68173Y-74086D01*
X68173Y-75557D01*
X68137Y-75520D01*
X68015Y-75470D01*
X67884Y-75469D01*
X67763Y-75520D01*
X67670Y-75612D01*
X67620Y-75734D01*
X67620Y-75796D01*
X67563Y-75820D01*
X67470Y-75912D01*
X67420Y-76034D01*
X67419Y-76165D01*
X67470Y-76286D01*
X67562Y-76379D01*
X67684Y-76429D01*
X67815Y-76430D01*
X67936Y-76379D01*
X68029Y-76287D01*
X68079Y-76165D01*
X68079Y-76103D01*
X68136Y-76079D01*
X68229Y-75987D01*
X68279Y-75865D01*
X68280Y-75734D01*
X68280Y-78803D01*
X68270Y-78812D01*
X68220Y-78934D01*
X68219Y-79065D01*
X68270Y-79186D01*
X68362Y-79279D01*
X68484Y-79329D01*
X68615Y-79330D01*
X68736Y-79279D01*
X68829Y-79187D01*
X68832Y-79179D01*
X68915Y-79180D01*
X69036Y-79129D01*
X69129Y-79037D01*
X69157Y-78969D01*
X69184Y-78979D01*
X69315Y-78980D01*
X69436Y-78929D01*
X69529Y-78837D01*
X69579Y-78715D01*
X69580Y-78584D01*
X69580Y-84201D01*
X69573Y-84201D01*
X69573Y-82386D01*
X69486Y-82175D01*
X69325Y-82013D01*
X69114Y-81926D01*
X68886Y-81926D01*
X68675Y-82013D01*
X68573Y-82114D01*
X68573Y-81386D01*
X68486Y-81175D01*
X68325Y-81013D01*
X68114Y-80926D01*
X67886Y-80926D01*
X67675Y-81013D01*
X67513Y-81174D01*
X67426Y-81385D01*
X67426Y-81613D01*
X67513Y-81824D01*
X67674Y-81986D01*
X67885Y-82073D01*
X68113Y-82073D01*
X68324Y-81986D01*
X68486Y-81825D01*
X68573Y-81614D01*
X68573Y-81386D01*
X68573Y-82114D01*
X68513Y-82174D01*
X68426Y-82385D01*
X68426Y-82613D01*
X68513Y-82824D01*
X68674Y-82986D01*
X68885Y-83073D01*
X69113Y-83073D01*
X69324Y-82986D01*
X69486Y-82825D01*
X69573Y-82614D01*
X69573Y-82386D01*
X69573Y-84201D01*
X67573Y-84201D01*
X67573Y-82386D01*
X67486Y-82175D01*
X67325Y-82013D01*
X67114Y-81926D01*
X66886Y-81926D01*
X66830Y-81949D01*
X66830Y-78134D01*
X66779Y-78013D01*
X66716Y-77949D01*
X66779Y-77887D01*
X66829Y-77765D01*
X66830Y-77634D01*
X66779Y-77513D01*
X66716Y-77449D01*
X66779Y-77387D01*
X66829Y-77265D01*
X66830Y-77134D01*
X66779Y-77013D01*
X66716Y-76949D01*
X66779Y-76887D01*
X66829Y-76765D01*
X66830Y-76634D01*
X66779Y-76513D01*
X66687Y-76420D01*
X66565Y-76370D01*
X66434Y-76369D01*
X66313Y-76420D01*
X66220Y-76512D01*
X66170Y-76634D01*
X66169Y-76765D01*
X66220Y-76886D01*
X66283Y-76950D01*
X66220Y-77012D01*
X66170Y-77134D01*
X66169Y-77265D01*
X66220Y-77386D01*
X66283Y-77450D01*
X66220Y-77512D01*
X66170Y-77634D01*
X66169Y-77765D01*
X66220Y-77886D01*
X66283Y-77950D01*
X66220Y-78012D01*
X66170Y-78134D01*
X66169Y-78265D01*
X66220Y-78386D01*
X66312Y-78479D01*
X66434Y-78529D01*
X66565Y-78530D01*
X66686Y-78479D01*
X66779Y-78387D01*
X66829Y-78265D01*
X66830Y-78134D01*
X66830Y-81949D01*
X66675Y-82013D01*
X66573Y-82114D01*
X66573Y-81386D01*
X66486Y-81175D01*
X66325Y-81013D01*
X66114Y-80926D01*
X65886Y-80926D01*
X65675Y-81013D01*
X65513Y-81174D01*
X65426Y-81385D01*
X65426Y-81613D01*
X65513Y-81824D01*
X65674Y-81986D01*
X65885Y-82073D01*
X66113Y-82073D01*
X66324Y-81986D01*
X66486Y-81825D01*
X66573Y-81614D01*
X66573Y-81386D01*
X66573Y-82114D01*
X66513Y-82174D01*
X66426Y-82385D01*
X66426Y-82613D01*
X66513Y-82824D01*
X66674Y-82986D01*
X66885Y-83073D01*
X67113Y-83073D01*
X67324Y-82986D01*
X67486Y-82825D01*
X67573Y-82614D01*
X67573Y-82386D01*
X67573Y-84201D01*
X65573Y-84201D01*
X65573Y-82386D01*
X65486Y-82175D01*
X65325Y-82013D01*
X65114Y-81926D01*
X64886Y-81926D01*
X64700Y-82003D01*
X64700Y-78871D01*
X64700Y-75328D01*
X64650Y-75207D01*
X64557Y-75114D01*
X64436Y-75063D01*
X64304Y-75063D01*
X64183Y-75113D01*
X64180Y-75117D01*
X64180Y-67884D01*
X64129Y-67763D01*
X64037Y-67670D01*
X63915Y-67620D01*
X63784Y-67619D01*
X63663Y-67670D01*
X63570Y-67762D01*
X63520Y-67884D01*
X63520Y-67946D01*
X63463Y-67970D01*
X63370Y-68062D01*
X63320Y-68184D01*
X63319Y-68315D01*
X63370Y-68436D01*
X63462Y-68529D01*
X63584Y-68579D01*
X63715Y-68580D01*
X63836Y-68529D01*
X63929Y-68437D01*
X63979Y-68315D01*
X63979Y-68253D01*
X64036Y-68229D01*
X64129Y-68137D01*
X64179Y-68015D01*
X64180Y-67884D01*
X64180Y-75117D01*
X64090Y-75206D01*
X64040Y-75327D01*
X64040Y-75459D01*
X64090Y-75580D01*
X64182Y-75673D01*
X64304Y-75723D01*
X64435Y-75723D01*
X64556Y-75673D01*
X64649Y-75580D01*
X64700Y-75459D01*
X64700Y-75328D01*
X64700Y-78871D01*
X64650Y-78750D01*
X64557Y-78657D01*
X64436Y-78607D01*
X64304Y-78606D01*
X64183Y-78657D01*
X64090Y-78749D01*
X64040Y-78871D01*
X64040Y-79002D01*
X64090Y-79123D01*
X64182Y-79216D01*
X64304Y-79266D01*
X64435Y-79267D01*
X64556Y-79216D01*
X64649Y-79124D01*
X64700Y-79002D01*
X64700Y-78871D01*
X64700Y-82003D01*
X64675Y-82013D01*
X64573Y-82114D01*
X64573Y-81386D01*
X64486Y-81175D01*
X64325Y-81013D01*
X64114Y-80926D01*
X63886Y-80926D01*
X63780Y-80970D01*
X63780Y-71234D01*
X63755Y-71175D01*
X63779Y-71115D01*
X63780Y-70984D01*
X63729Y-70863D01*
X63637Y-70770D01*
X63515Y-70720D01*
X63384Y-70719D01*
X63263Y-70770D01*
X63170Y-70862D01*
X63120Y-70984D01*
X63119Y-71115D01*
X63144Y-71174D01*
X63120Y-71234D01*
X63119Y-71365D01*
X63170Y-71486D01*
X63262Y-71579D01*
X63384Y-71629D01*
X63515Y-71630D01*
X63636Y-71579D01*
X63729Y-71487D01*
X63779Y-71365D01*
X63780Y-71234D01*
X63780Y-80970D01*
X63675Y-81013D01*
X63513Y-81174D01*
X63426Y-81385D01*
X63426Y-81613D01*
X63513Y-81824D01*
X63674Y-81986D01*
X63885Y-82073D01*
X64113Y-82073D01*
X64324Y-81986D01*
X64486Y-81825D01*
X64573Y-81614D01*
X64573Y-81386D01*
X64573Y-82114D01*
X64513Y-82174D01*
X64426Y-82385D01*
X64426Y-82613D01*
X64513Y-82824D01*
X64674Y-82986D01*
X64885Y-83073D01*
X65113Y-83073D01*
X65324Y-82986D01*
X65486Y-82825D01*
X65573Y-82614D01*
X65573Y-82386D01*
X65573Y-84201D01*
X62648Y-84201D01*
X62648Y-66782D01*
X67968Y-66782D01*
X67970Y-66786D01*
X68062Y-66879D01*
X68184Y-66929D01*
X68315Y-66930D01*
X68436Y-66879D01*
X68453Y-66862D01*
X68453Y-72294D01*
X71603Y-72294D01*
X71603Y-73081D01*
X80152Y-73081D01*
X80075Y-73113D01*
X79913Y-73274D01*
X79826Y-73485D01*
X79826Y-73713D01*
X79913Y-73924D01*
X80074Y-74086D01*
X80285Y-74173D01*
X80513Y-74173D01*
X80724Y-74086D01*
X80886Y-73925D01*
X80973Y-73714D01*
X80973Y-73486D01*
X80886Y-73275D01*
X80725Y-73113D01*
X80647Y-73081D01*
X81642Y-73081D01*
X81642Y-76140D01*
X81570Y-76212D01*
X81520Y-76334D01*
X81519Y-76465D01*
X81570Y-76586D01*
X81642Y-76659D01*
X81642Y-76840D01*
X81570Y-76912D01*
X81520Y-77034D01*
X81519Y-77165D01*
X81570Y-77286D01*
X81642Y-77359D01*
X81642Y-81640D01*
X81570Y-81712D01*
X81520Y-81834D01*
X81519Y-81965D01*
X81570Y-82086D01*
X81642Y-82159D01*
X81642Y-82340D01*
X81570Y-82412D01*
X81520Y-82534D01*
X81519Y-82665D01*
X81570Y-82786D01*
X81642Y-82859D01*
X81642Y-84201D01*
X81642Y-84201D01*
G37*
G54D17*
X81642Y-84201D02*
X80973Y-84201D01*
X80973Y-76086D01*
X80973Y-74786D01*
X80886Y-74575D01*
X80725Y-74413D01*
X80514Y-74326D01*
X80286Y-74326D01*
X80075Y-74413D01*
X79913Y-74574D01*
X79826Y-74785D01*
X79826Y-75013D01*
X79913Y-75224D01*
X80074Y-75386D01*
X80285Y-75473D01*
X80513Y-75473D01*
X80724Y-75386D01*
X80886Y-75225D01*
X80973Y-75014D01*
X80973Y-74786D01*
X80973Y-76086D01*
X80886Y-75875D01*
X80725Y-75713D01*
X80514Y-75626D01*
X80286Y-75626D01*
X80075Y-75713D01*
X79913Y-75874D01*
X79826Y-76085D01*
X79826Y-76313D01*
X79913Y-76524D01*
X80074Y-76686D01*
X80285Y-76773D01*
X80513Y-76773D01*
X80724Y-76686D01*
X80886Y-76525D01*
X80973Y-76314D01*
X80973Y-76086D01*
X80973Y-84201D01*
X80873Y-84201D01*
X80873Y-81486D01*
X80873Y-80186D01*
X80873Y-78886D01*
X80786Y-78675D01*
X80625Y-78513D01*
X80414Y-78426D01*
X80186Y-78426D01*
X79975Y-78513D01*
X79813Y-78674D01*
X79726Y-78885D01*
X79726Y-79113D01*
X79813Y-79324D01*
X79974Y-79486D01*
X80185Y-79573D01*
X80413Y-79573D01*
X80624Y-79486D01*
X80786Y-79325D01*
X80873Y-79114D01*
X80873Y-78886D01*
X80873Y-80186D01*
X80786Y-79975D01*
X80625Y-79813D01*
X80414Y-79726D01*
X80186Y-79726D01*
X79975Y-79813D01*
X79813Y-79974D01*
X79726Y-80185D01*
X79726Y-80413D01*
X79813Y-80624D01*
X79974Y-80786D01*
X80185Y-80873D01*
X80413Y-80873D01*
X80624Y-80786D01*
X80786Y-80625D01*
X80873Y-80414D01*
X80873Y-80186D01*
X80873Y-81486D01*
X80786Y-81275D01*
X80625Y-81113D01*
X80414Y-81026D01*
X80186Y-81026D01*
X79975Y-81113D01*
X79813Y-81274D01*
X79726Y-81485D01*
X79726Y-81713D01*
X79813Y-81924D01*
X79974Y-82086D01*
X80185Y-82173D01*
X80413Y-82173D01*
X80624Y-82086D01*
X80786Y-81925D01*
X80873Y-81714D01*
X80873Y-81486D01*
X80873Y-84201D01*
X75980Y-84201D01*
X75980Y-79284D01*
X75929Y-79163D01*
X75837Y-79070D01*
X75715Y-79020D01*
X75584Y-79019D01*
X75463Y-79070D01*
X75370Y-79162D01*
X75346Y-79219D01*
X75284Y-79219D01*
X75163Y-79270D01*
X75070Y-79362D01*
X75020Y-79484D01*
X75019Y-79615D01*
X75070Y-79736D01*
X75162Y-79829D01*
X75284Y-79879D01*
X75415Y-79880D01*
X75536Y-79829D01*
X75629Y-79737D01*
X75653Y-79680D01*
X75715Y-79680D01*
X75836Y-79629D01*
X75929Y-79537D01*
X75979Y-79415D01*
X75980Y-79284D01*
X75980Y-84201D01*
X73530Y-84201D01*
X73530Y-82134D01*
X73479Y-82013D01*
X73387Y-81920D01*
X73265Y-81870D01*
X73134Y-81869D01*
X73013Y-81920D01*
X72920Y-82012D01*
X72880Y-82109D01*
X72880Y-80834D01*
X72829Y-80713D01*
X72737Y-80620D01*
X72730Y-80617D01*
X72730Y-76034D01*
X72679Y-75913D01*
X72587Y-75820D01*
X72530Y-75796D01*
X72530Y-75734D01*
X72479Y-75613D01*
X72387Y-75520D01*
X72265Y-75470D01*
X72134Y-75469D01*
X72013Y-75520D01*
X71920Y-75612D01*
X71870Y-75734D01*
X71869Y-75865D01*
X71920Y-75986D01*
X72012Y-76079D01*
X72069Y-76103D01*
X72069Y-76165D01*
X72120Y-76286D01*
X72212Y-76379D01*
X72334Y-76429D01*
X72465Y-76430D01*
X72586Y-76379D01*
X72679Y-76287D01*
X72729Y-76165D01*
X72730Y-76034D01*
X72730Y-80617D01*
X72615Y-80570D01*
X72484Y-80569D01*
X72480Y-80571D01*
X72480Y-77384D01*
X72429Y-77263D01*
X72337Y-77170D01*
X72215Y-77120D01*
X72084Y-77119D01*
X71963Y-77170D01*
X71925Y-77208D01*
X71887Y-77170D01*
X71773Y-77123D01*
X71773Y-74086D01*
X71686Y-73875D01*
X71525Y-73713D01*
X71314Y-73626D01*
X71086Y-73626D01*
X70875Y-73713D01*
X70713Y-73874D01*
X70626Y-74085D01*
X70626Y-74313D01*
X70713Y-74524D01*
X70874Y-74686D01*
X71085Y-74773D01*
X71313Y-74773D01*
X71524Y-74686D01*
X71686Y-74525D01*
X71773Y-74314D01*
X71773Y-74086D01*
X71773Y-77123D01*
X71765Y-77120D01*
X71634Y-77119D01*
X71513Y-77170D01*
X71420Y-77262D01*
X71370Y-77384D01*
X71369Y-77515D01*
X71420Y-77636D01*
X71512Y-77729D01*
X71634Y-77779D01*
X71765Y-77780D01*
X71886Y-77729D01*
X71924Y-77691D01*
X71962Y-77729D01*
X72084Y-77779D01*
X72215Y-77780D01*
X72336Y-77729D01*
X72429Y-77637D01*
X72479Y-77515D01*
X72480Y-77384D01*
X72480Y-80571D01*
X72363Y-80620D01*
X72270Y-80712D01*
X72250Y-80761D01*
X72229Y-80713D01*
X72137Y-80620D01*
X72015Y-80570D01*
X71884Y-80569D01*
X71763Y-80620D01*
X71670Y-80712D01*
X71620Y-80834D01*
X71619Y-80965D01*
X71670Y-81086D01*
X71762Y-81179D01*
X71884Y-81229D01*
X72015Y-81230D01*
X72136Y-81179D01*
X72229Y-81087D01*
X72249Y-81038D01*
X72270Y-81086D01*
X72362Y-81179D01*
X72484Y-81229D01*
X72615Y-81230D01*
X72736Y-81179D01*
X72829Y-81087D01*
X72879Y-80965D01*
X72880Y-80834D01*
X72880Y-82109D01*
X72870Y-82134D01*
X72869Y-82265D01*
X72920Y-82386D01*
X73012Y-82479D01*
X73134Y-82529D01*
X73265Y-82530D01*
X73386Y-82479D01*
X73479Y-82387D01*
X73529Y-82265D01*
X73530Y-82134D01*
X73530Y-84201D01*
X72280Y-84201D01*
X72280Y-82434D01*
X72229Y-82313D01*
X72137Y-82220D01*
X72080Y-82196D01*
X72080Y-82134D01*
X72029Y-82013D01*
X71937Y-81920D01*
X71815Y-81870D01*
X71684Y-81869D01*
X71563Y-81920D01*
X71470Y-82012D01*
X71420Y-82134D01*
X71419Y-82265D01*
X71470Y-82386D01*
X71562Y-82479D01*
X71619Y-82503D01*
X71619Y-82565D01*
X71670Y-82686D01*
X71762Y-82779D01*
X71884Y-82829D01*
X72015Y-82830D01*
X72136Y-82779D01*
X72229Y-82687D01*
X72279Y-82565D01*
X72280Y-82434D01*
X72280Y-84201D01*
X70730Y-84201D01*
X70730Y-78984D01*
X70679Y-78863D01*
X70587Y-78770D01*
X70573Y-78764D01*
X70573Y-74086D01*
X70486Y-73875D01*
X70325Y-73713D01*
X70114Y-73626D01*
X69886Y-73626D01*
X69675Y-73713D01*
X69513Y-73874D01*
X69426Y-74085D01*
X69426Y-74313D01*
X69513Y-74524D01*
X69674Y-74686D01*
X69885Y-74773D01*
X70113Y-74773D01*
X70324Y-74686D01*
X70486Y-74525D01*
X70573Y-74314D01*
X70573Y-74086D01*
X70573Y-78764D01*
X70465Y-78720D01*
X70334Y-78719D01*
X70213Y-78770D01*
X70120Y-78862D01*
X70070Y-78984D01*
X70069Y-79115D01*
X70120Y-79236D01*
X70212Y-79329D01*
X70334Y-79379D01*
X70465Y-79380D01*
X70586Y-79329D01*
X70679Y-79237D01*
X70729Y-79115D01*
X70730Y-78984D01*
X70730Y-84201D01*
X69730Y-84201D01*
X69730Y-77134D01*
X69679Y-77013D01*
X69587Y-76920D01*
X69465Y-76870D01*
X69373Y-76869D01*
X69373Y-74086D01*
X69286Y-73875D01*
X69125Y-73713D01*
X68914Y-73626D01*
X68686Y-73626D01*
X68475Y-73713D01*
X68313Y-73874D01*
X68226Y-74085D01*
X68226Y-74313D01*
X68313Y-74524D01*
X68474Y-74686D01*
X68685Y-74773D01*
X68913Y-74773D01*
X69124Y-74686D01*
X69286Y-74525D01*
X69373Y-74314D01*
X69373Y-74086D01*
X69373Y-76869D01*
X69334Y-76869D01*
X69213Y-76920D01*
X69120Y-77012D01*
X69070Y-77134D01*
X69069Y-77265D01*
X69120Y-77386D01*
X69212Y-77479D01*
X69334Y-77529D01*
X69465Y-77530D01*
X69586Y-77479D01*
X69679Y-77387D01*
X69729Y-77265D01*
X69730Y-77134D01*
X69730Y-84201D01*
X69580Y-84201D01*
X69580Y-78584D01*
X69529Y-78463D01*
X69437Y-78370D01*
X69315Y-78320D01*
X69184Y-78319D01*
X69063Y-78370D01*
X68970Y-78462D01*
X68942Y-78530D01*
X68915Y-78520D01*
X68784Y-78519D01*
X68663Y-78570D01*
X68570Y-78662D01*
X68567Y-78670D01*
X68484Y-78669D01*
X68363Y-78720D01*
X68280Y-78803D01*
X68280Y-75734D01*
X68229Y-75613D01*
X68173Y-75557D01*
X68173Y-74086D01*
X68086Y-73875D01*
X67925Y-73713D01*
X67714Y-73626D01*
X67486Y-73626D01*
X67275Y-73713D01*
X67113Y-73874D01*
X67026Y-74085D01*
X67026Y-74313D01*
X67113Y-74524D01*
X67274Y-74686D01*
X67485Y-74773D01*
X67713Y-74773D01*
X67924Y-74686D01*
X68086Y-74525D01*
X68173Y-74314D01*
X68173Y-74086D01*
X68173Y-75557D01*
X68137Y-75520D01*
X68015Y-75470D01*
X67884Y-75469D01*
X67763Y-75520D01*
X67670Y-75612D01*
X67620Y-75734D01*
X67620Y-75796D01*
X67563Y-75820D01*
X67470Y-75912D01*
X67420Y-76034D01*
X67419Y-76165D01*
X67470Y-76286D01*
X67562Y-76379D01*
X67684Y-76429D01*
X67815Y-76430D01*
X67936Y-76379D01*
X68029Y-76287D01*
X68079Y-76165D01*
X68079Y-76103D01*
X68136Y-76079D01*
X68229Y-75987D01*
X68279Y-75865D01*
X68280Y-75734D01*
X68280Y-78803D01*
X68270Y-78812D01*
X68220Y-78934D01*
X68219Y-79065D01*
X68270Y-79186D01*
X68362Y-79279D01*
X68484Y-79329D01*
X68615Y-79330D01*
X68736Y-79279D01*
X68829Y-79187D01*
X68832Y-79179D01*
X68915Y-79180D01*
X69036Y-79129D01*
X69129Y-79037D01*
X69157Y-78969D01*
X69184Y-78979D01*
X69315Y-78980D01*
X69436Y-78929D01*
X69529Y-78837D01*
X69579Y-78715D01*
X69580Y-78584D01*
X69580Y-84201D01*
X69573Y-84201D01*
X69573Y-82386D01*
X69486Y-82175D01*
X69325Y-82013D01*
X69114Y-81926D01*
X68886Y-81926D01*
X68675Y-82013D01*
X68573Y-82114D01*
X68573Y-81386D01*
X68486Y-81175D01*
X68325Y-81013D01*
X68114Y-80926D01*
X67886Y-80926D01*
X67675Y-81013D01*
X67513Y-81174D01*
X67426Y-81385D01*
X67426Y-81613D01*
X67513Y-81824D01*
X67674Y-81986D01*
X67885Y-82073D01*
X68113Y-82073D01*
X68324Y-81986D01*
X68486Y-81825D01*
X68573Y-81614D01*
X68573Y-81386D01*
X68573Y-82114D01*
X68513Y-82174D01*
X68426Y-82385D01*
X68426Y-82613D01*
X68513Y-82824D01*
X68674Y-82986D01*
X68885Y-83073D01*
X69113Y-83073D01*
X69324Y-82986D01*
X69486Y-82825D01*
X69573Y-82614D01*
X69573Y-82386D01*
X69573Y-84201D01*
X67573Y-84201D01*
X67573Y-82386D01*
X67486Y-82175D01*
X67325Y-82013D01*
X67114Y-81926D01*
X66886Y-81926D01*
X66830Y-81949D01*
X66830Y-78134D01*
X66779Y-78013D01*
X66716Y-77949D01*
X66779Y-77887D01*
X66829Y-77765D01*
X66830Y-77634D01*
X66779Y-77513D01*
X66716Y-77449D01*
X66779Y-77387D01*
X66829Y-77265D01*
X66830Y-77134D01*
X66779Y-77013D01*
X66716Y-76949D01*
X66779Y-76887D01*
X66829Y-76765D01*
X66830Y-76634D01*
X66779Y-76513D01*
X66687Y-76420D01*
X66565Y-76370D01*
X66434Y-76369D01*
X66313Y-76420D01*
X66220Y-76512D01*
X66170Y-76634D01*
X66169Y-76765D01*
X66220Y-76886D01*
X66283Y-76950D01*
X66220Y-77012D01*
X66170Y-77134D01*
X66169Y-77265D01*
X66220Y-77386D01*
X66283Y-77450D01*
X66220Y-77512D01*
X66170Y-77634D01*
X66169Y-77765D01*
X66220Y-77886D01*
X66283Y-77950D01*
X66220Y-78012D01*
X66170Y-78134D01*
X66169Y-78265D01*
X66220Y-78386D01*
X66312Y-78479D01*
X66434Y-78529D01*
X66565Y-78530D01*
X66686Y-78479D01*
X66779Y-78387D01*
X66829Y-78265D01*
X66830Y-78134D01*
X66830Y-81949D01*
X66675Y-82013D01*
X66573Y-82114D01*
X66573Y-81386D01*
X66486Y-81175D01*
X66325Y-81013D01*
X66114Y-80926D01*
X65886Y-80926D01*
X65675Y-81013D01*
X65513Y-81174D01*
X65426Y-81385D01*
X65426Y-81613D01*
X65513Y-81824D01*
X65674Y-81986D01*
X65885Y-82073D01*
X66113Y-82073D01*
X66324Y-81986D01*
X66486Y-81825D01*
X66573Y-81614D01*
X66573Y-81386D01*
X66573Y-82114D01*
X66513Y-82174D01*
X66426Y-82385D01*
X66426Y-82613D01*
X66513Y-82824D01*
X66674Y-82986D01*
X66885Y-83073D01*
X67113Y-83073D01*
X67324Y-82986D01*
X67486Y-82825D01*
X67573Y-82614D01*
X67573Y-82386D01*
X67573Y-84201D01*
X65573Y-84201D01*
X65573Y-82386D01*
X65486Y-82175D01*
X65325Y-82013D01*
X65114Y-81926D01*
X64886Y-81926D01*
X64700Y-82003D01*
X64700Y-78871D01*
X64700Y-75328D01*
X64650Y-75207D01*
X64557Y-75114D01*
X64436Y-75063D01*
X64304Y-75063D01*
X64183Y-75113D01*
X64180Y-75117D01*
X64180Y-67884D01*
X64129Y-67763D01*
X64037Y-67670D01*
X63915Y-67620D01*
X63784Y-67619D01*
X63663Y-67670D01*
X63570Y-67762D01*
X63520Y-67884D01*
X63520Y-67946D01*
X63463Y-67970D01*
X63370Y-68062D01*
X63320Y-68184D01*
X63319Y-68315D01*
X63370Y-68436D01*
X63462Y-68529D01*
X63584Y-68579D01*
X63715Y-68580D01*
X63836Y-68529D01*
X63929Y-68437D01*
X63979Y-68315D01*
X63979Y-68253D01*
X64036Y-68229D01*
X64129Y-68137D01*
X64179Y-68015D01*
X64180Y-67884D01*
X64180Y-75117D01*
X64090Y-75206D01*
X64040Y-75327D01*
X64040Y-75459D01*
X64090Y-75580D01*
X64182Y-75673D01*
X64304Y-75723D01*
X64435Y-75723D01*
X64556Y-75673D01*
X64649Y-75580D01*
X64700Y-75459D01*
X64700Y-75328D01*
X64700Y-78871D01*
X64650Y-78750D01*
X64557Y-78657D01*
X64436Y-78607D01*
X64304Y-78606D01*
X64183Y-78657D01*
X64090Y-78749D01*
X64040Y-78871D01*
X64040Y-79002D01*
X64090Y-79123D01*
X64182Y-79216D01*
X64304Y-79266D01*
X64435Y-79267D01*
X64556Y-79216D01*
X64649Y-79124D01*
X64700Y-79002D01*
X64700Y-78871D01*
X64700Y-82003D01*
X64675Y-82013D01*
X64573Y-82114D01*
X64573Y-81386D01*
X64486Y-81175D01*
X64325Y-81013D01*
X64114Y-80926D01*
X63886Y-80926D01*
X63780Y-80970D01*
X63780Y-71234D01*
X63755Y-71175D01*
X63779Y-71115D01*
X63780Y-70984D01*
X63729Y-70863D01*
X63637Y-70770D01*
X63515Y-70720D01*
X63384Y-70719D01*
X63263Y-70770D01*
X63170Y-70862D01*
X63120Y-70984D01*
X63119Y-71115D01*
X63144Y-71174D01*
X63120Y-71234D01*
X63119Y-71365D01*
X63170Y-71486D01*
X63262Y-71579D01*
X63384Y-71629D01*
X63515Y-71630D01*
X63636Y-71579D01*
X63729Y-71487D01*
X63779Y-71365D01*
X63780Y-71234D01*
X63780Y-80970D01*
X63675Y-81013D01*
X63513Y-81174D01*
X63426Y-81385D01*
X63426Y-81613D01*
X63513Y-81824D01*
X63674Y-81986D01*
X63885Y-82073D01*
X64113Y-82073D01*
X64324Y-81986D01*
X64486Y-81825D01*
X64573Y-81614D01*
X64573Y-81386D01*
X64573Y-82114D01*
X64513Y-82174D01*
X64426Y-82385D01*
X64426Y-82613D01*
X64513Y-82824D01*
X64674Y-82986D01*
X64885Y-83073D01*
X65113Y-83073D01*
X65324Y-82986D01*
X65486Y-82825D01*
X65573Y-82614D01*
X65573Y-82386D01*
X65573Y-84201D01*
X62648Y-84201D01*
X62648Y-66782D01*
X67968Y-66782D01*
X67970Y-66786D01*
X68062Y-66879D01*
X68184Y-66929D01*
X68315Y-66930D01*
X68436Y-66879D01*
X68453Y-66862D01*
X68453Y-72294D01*
X71603Y-72294D01*
X71603Y-73081D01*
X80152Y-73081D01*
X80075Y-73113D01*
X79913Y-73274D01*
X79826Y-73485D01*
X79826Y-73713D01*
X79913Y-73924D01*
X80074Y-74086D01*
X80285Y-74173D01*
X80513Y-74173D01*
X80724Y-74086D01*
X80886Y-73925D01*
X80973Y-73714D01*
X80973Y-73486D01*
X80886Y-73275D01*
X80725Y-73113D01*
X80647Y-73081D01*
X81642Y-73081D01*
X81642Y-76140D01*
X81570Y-76212D01*
X81520Y-76334D01*
X81519Y-76465D01*
X81570Y-76586D01*
X81642Y-76659D01*
X81642Y-76840D01*
X81570Y-76912D01*
X81520Y-77034D01*
X81519Y-77165D01*
X81570Y-77286D01*
X81642Y-77359D01*
X81642Y-81640D01*
X81570Y-81712D01*
X81520Y-81834D01*
X81519Y-81965D01*
X81570Y-82086D01*
X81642Y-82159D01*
X81642Y-82340D01*
X81570Y-82412D01*
X81520Y-82534D01*
X81519Y-82665D01*
X81570Y-82786D01*
X81642Y-82859D01*
X81642Y-84201D01*
G54D10*
G36*
X85579Y-69831D02*
X85079Y-69831D01*
X85080Y-69734D01*
X85029Y-69613D01*
X84937Y-69520D01*
X84815Y-69470D01*
X84684Y-69469D01*
X84563Y-69520D01*
X84470Y-69612D01*
X84420Y-69734D01*
X84419Y-69831D01*
X80708Y-69831D01*
X80679Y-69763D01*
X80587Y-69670D01*
X80465Y-69620D01*
X80334Y-69619D01*
X80213Y-69670D01*
X80120Y-69762D01*
X80091Y-69831D01*
X78698Y-69831D01*
X78687Y-69820D01*
X78565Y-69770D01*
X78434Y-69769D01*
X78313Y-69820D01*
X78301Y-69831D01*
X77398Y-69831D01*
X77387Y-69820D01*
X77265Y-69770D01*
X77134Y-69769D01*
X77013Y-69820D01*
X76920Y-69912D01*
X76870Y-70034D01*
X76870Y-70096D01*
X76813Y-70120D01*
X76720Y-70212D01*
X76670Y-70334D01*
X76669Y-70465D01*
X76720Y-70586D01*
X76812Y-70679D01*
X76934Y-70729D01*
X77065Y-70730D01*
X77115Y-70709D01*
X77115Y-70816D01*
X76477Y-70816D01*
X76325Y-70663D01*
X76114Y-70576D01*
X75886Y-70576D01*
X75675Y-70663D01*
X75522Y-70816D01*
X75443Y-70816D01*
X75443Y-69467D01*
X71703Y-65727D01*
X71703Y-59301D01*
X71869Y-59301D01*
X71869Y-59365D01*
X71920Y-59486D01*
X72012Y-59579D01*
X72134Y-59629D01*
X72265Y-59630D01*
X72386Y-59579D01*
X72479Y-59487D01*
X72503Y-59430D01*
X72565Y-59430D01*
X72686Y-59379D01*
X72764Y-59301D01*
X72981Y-59301D01*
X72981Y-64390D01*
X74717Y-66126D01*
X74536Y-66126D01*
X74325Y-66213D01*
X74163Y-66374D01*
X74076Y-66585D01*
X74076Y-66813D01*
X74163Y-67024D01*
X74324Y-67186D01*
X74535Y-67273D01*
X74763Y-67273D01*
X74974Y-67186D01*
X75136Y-67025D01*
X75223Y-66814D01*
X75223Y-66633D01*
X77115Y-68524D01*
X77115Y-69144D01*
X85579Y-69144D01*
X85579Y-69831D01*
X85579Y-69831D01*
G37*
G54D17*
X85579Y-69831D02*
X85079Y-69831D01*
X85080Y-69734D01*
X85029Y-69613D01*
X84937Y-69520D01*
X84815Y-69470D01*
X84684Y-69469D01*
X84563Y-69520D01*
X84470Y-69612D01*
X84420Y-69734D01*
X84419Y-69831D01*
X80708Y-69831D01*
X80679Y-69763D01*
X80587Y-69670D01*
X80465Y-69620D01*
X80334Y-69619D01*
X80213Y-69670D01*
X80120Y-69762D01*
X80091Y-69831D01*
X78698Y-69831D01*
X78687Y-69820D01*
X78565Y-69770D01*
X78434Y-69769D01*
X78313Y-69820D01*
X78301Y-69831D01*
X77398Y-69831D01*
X77387Y-69820D01*
X77265Y-69770D01*
X77134Y-69769D01*
X77013Y-69820D01*
X76920Y-69912D01*
X76870Y-70034D01*
X76870Y-70096D01*
X76813Y-70120D01*
X76720Y-70212D01*
X76670Y-70334D01*
X76669Y-70465D01*
X76720Y-70586D01*
X76812Y-70679D01*
X76934Y-70729D01*
X77065Y-70730D01*
X77115Y-70709D01*
X77115Y-70816D01*
X76477Y-70816D01*
X76325Y-70663D01*
X76114Y-70576D01*
X75886Y-70576D01*
X75675Y-70663D01*
X75522Y-70816D01*
X75443Y-70816D01*
X75443Y-69467D01*
X71703Y-65727D01*
X71703Y-59301D01*
X71869Y-59301D01*
X71869Y-59365D01*
X71920Y-59486D01*
X72012Y-59579D01*
X72134Y-59629D01*
X72265Y-59630D01*
X72386Y-59579D01*
X72479Y-59487D01*
X72503Y-59430D01*
X72565Y-59430D01*
X72686Y-59379D01*
X72764Y-59301D01*
X72981Y-59301D01*
X72981Y-64390D01*
X74717Y-66126D01*
X74536Y-66126D01*
X74325Y-66213D01*
X74163Y-66374D01*
X74076Y-66585D01*
X74076Y-66813D01*
X74163Y-67024D01*
X74324Y-67186D01*
X74535Y-67273D01*
X74763Y-67273D01*
X74974Y-67186D01*
X75136Y-67025D01*
X75223Y-66814D01*
X75223Y-66633D01*
X77115Y-68524D01*
X77115Y-69144D01*
X85579Y-69144D01*
X85579Y-69831D01*
G54D10*
G36*
X91879Y-69217D02*
X91765Y-69170D01*
X91634Y-69169D01*
X91513Y-69220D01*
X91492Y-69241D01*
X91280Y-69241D01*
X91280Y-68434D01*
X91229Y-68313D01*
X91137Y-68220D01*
X91088Y-68200D01*
X91136Y-68179D01*
X91229Y-68087D01*
X91279Y-67965D01*
X91280Y-67834D01*
X91229Y-67713D01*
X91137Y-67620D01*
X91015Y-67570D01*
X90884Y-67569D01*
X90763Y-67620D01*
X90670Y-67712D01*
X90620Y-67834D01*
X90620Y-67875D01*
X90513Y-67920D01*
X90420Y-68012D01*
X90370Y-68134D01*
X90369Y-68265D01*
X90420Y-68386D01*
X90512Y-68479D01*
X90619Y-68524D01*
X90619Y-68565D01*
X90670Y-68686D01*
X90762Y-68779D01*
X90884Y-68829D01*
X91015Y-68830D01*
X91136Y-68779D01*
X91229Y-68687D01*
X91279Y-68565D01*
X91280Y-68434D01*
X91280Y-69241D01*
X88673Y-69241D01*
X88673Y-68486D01*
X88586Y-68275D01*
X88425Y-68113D01*
X88214Y-68026D01*
X87986Y-68026D01*
X87915Y-68055D01*
X87480Y-67619D01*
X87397Y-67564D01*
X87300Y-67545D01*
X87161Y-67545D01*
X87137Y-67520D01*
X87015Y-67470D01*
X86884Y-67469D01*
X86763Y-67520D01*
X86670Y-67612D01*
X86620Y-67734D01*
X86619Y-67865D01*
X86670Y-67986D01*
X86762Y-68079D01*
X86884Y-68129D01*
X87015Y-68130D01*
X87136Y-68079D01*
X87161Y-68055D01*
X87194Y-68055D01*
X87555Y-68415D01*
X87526Y-68485D01*
X87526Y-68713D01*
X87613Y-68924D01*
X87774Y-69086D01*
X87985Y-69173D01*
X88213Y-69173D01*
X88424Y-69086D01*
X88586Y-68925D01*
X88673Y-68714D01*
X88673Y-68486D01*
X88673Y-69241D01*
X87548Y-69241D01*
X87548Y-69732D01*
X87526Y-69785D01*
X87526Y-70013D01*
X87548Y-70067D01*
X87548Y-71032D01*
X87526Y-71085D01*
X87526Y-71313D01*
X87548Y-71367D01*
X87548Y-72390D01*
X86220Y-72390D01*
X86023Y-72390D01*
X85530Y-72390D01*
X85530Y-71184D01*
X85479Y-71063D01*
X85387Y-70970D01*
X85265Y-70920D01*
X85134Y-70919D01*
X85013Y-70970D01*
X84920Y-71062D01*
X84896Y-71119D01*
X84834Y-71119D01*
X84713Y-71170D01*
X84620Y-71262D01*
X84570Y-71384D01*
X84569Y-71515D01*
X84620Y-71636D01*
X84712Y-71729D01*
X84834Y-71779D01*
X84965Y-71780D01*
X85086Y-71729D01*
X85179Y-71637D01*
X85203Y-71580D01*
X85265Y-71580D01*
X85386Y-71529D01*
X85479Y-71437D01*
X85529Y-71315D01*
X85530Y-71184D01*
X85530Y-72390D01*
X84595Y-72390D01*
X84595Y-76082D01*
X84565Y-76070D01*
X84434Y-76069D01*
X84313Y-76120D01*
X84220Y-76212D01*
X84170Y-76334D01*
X84169Y-76465D01*
X84220Y-76586D01*
X84312Y-76679D01*
X84434Y-76729D01*
X84565Y-76730D01*
X84595Y-76717D01*
X84595Y-76782D01*
X84565Y-76770D01*
X84434Y-76769D01*
X84313Y-76820D01*
X84220Y-76912D01*
X84170Y-77034D01*
X84169Y-77165D01*
X84220Y-77286D01*
X84312Y-77379D01*
X84434Y-77429D01*
X84565Y-77430D01*
X84595Y-77417D01*
X84595Y-81603D01*
X84515Y-81570D01*
X84384Y-81569D01*
X84263Y-81620D01*
X84170Y-81712D01*
X84120Y-81834D01*
X84119Y-81965D01*
X84170Y-82086D01*
X84262Y-82179D01*
X84384Y-82229D01*
X84515Y-82230D01*
X84595Y-82196D01*
X84595Y-82303D01*
X84515Y-82270D01*
X84384Y-82269D01*
X84263Y-82320D01*
X84170Y-82412D01*
X84120Y-82534D01*
X84119Y-82665D01*
X84170Y-82786D01*
X84262Y-82879D01*
X84384Y-82929D01*
X84515Y-82930D01*
X84595Y-82896D01*
X84595Y-83808D01*
X83880Y-83808D01*
X83880Y-79684D01*
X83880Y-74234D01*
X83829Y-74113D01*
X83737Y-74020D01*
X83615Y-73970D01*
X83484Y-73969D01*
X83374Y-74015D01*
X83265Y-73970D01*
X83134Y-73969D01*
X83013Y-74020D01*
X82920Y-74112D01*
X82870Y-74234D01*
X82869Y-74365D01*
X82920Y-74486D01*
X83012Y-74579D01*
X83134Y-74629D01*
X83265Y-74630D01*
X83375Y-74584D01*
X83484Y-74629D01*
X83615Y-74630D01*
X83736Y-74579D01*
X83829Y-74487D01*
X83879Y-74365D01*
X83880Y-74234D01*
X83880Y-79684D01*
X83829Y-79563D01*
X83737Y-79470D01*
X83680Y-79446D01*
X83680Y-77034D01*
X83680Y-76334D01*
X83629Y-76213D01*
X83537Y-76120D01*
X83415Y-76070D01*
X83284Y-76069D01*
X83163Y-76120D01*
X83070Y-76212D01*
X83020Y-76334D01*
X83019Y-76465D01*
X83070Y-76586D01*
X83162Y-76679D01*
X83284Y-76729D01*
X83415Y-76730D01*
X83536Y-76679D01*
X83629Y-76587D01*
X83679Y-76465D01*
X83680Y-76334D01*
X83680Y-77034D01*
X83629Y-76913D01*
X83537Y-76820D01*
X83415Y-76770D01*
X83284Y-76769D01*
X83163Y-76820D01*
X83070Y-76912D01*
X83020Y-77034D01*
X83019Y-77165D01*
X83070Y-77286D01*
X83162Y-77379D01*
X83284Y-77429D01*
X83415Y-77430D01*
X83536Y-77379D01*
X83629Y-77287D01*
X83679Y-77165D01*
X83680Y-77034D01*
X83680Y-79446D01*
X83615Y-79420D01*
X83484Y-79419D01*
X83374Y-79465D01*
X83265Y-79420D01*
X83134Y-79419D01*
X83013Y-79470D01*
X82920Y-79562D01*
X82870Y-79684D01*
X82869Y-79815D01*
X82920Y-79936D01*
X83012Y-80029D01*
X83134Y-80079D01*
X83265Y-80080D01*
X83375Y-80034D01*
X83484Y-80079D01*
X83615Y-80080D01*
X83736Y-80029D01*
X83829Y-79937D01*
X83879Y-79815D01*
X83880Y-79684D01*
X83880Y-83808D01*
X83680Y-83808D01*
X83680Y-82534D01*
X83680Y-81834D01*
X83629Y-81713D01*
X83537Y-81620D01*
X83415Y-81570D01*
X83284Y-81569D01*
X83163Y-81620D01*
X83070Y-81712D01*
X83020Y-81834D01*
X83019Y-81965D01*
X83070Y-82086D01*
X83162Y-82179D01*
X83284Y-82229D01*
X83415Y-82230D01*
X83536Y-82179D01*
X83629Y-82087D01*
X83679Y-81965D01*
X83680Y-81834D01*
X83680Y-82534D01*
X83629Y-82413D01*
X83537Y-82320D01*
X83415Y-82270D01*
X83284Y-82269D01*
X83163Y-82320D01*
X83070Y-82412D01*
X83020Y-82534D01*
X83019Y-82665D01*
X83070Y-82786D01*
X83162Y-82879D01*
X83284Y-82929D01*
X83415Y-82930D01*
X83536Y-82879D01*
X83629Y-82787D01*
X83679Y-82665D01*
X83680Y-82534D01*
X83680Y-83808D01*
X82480Y-83808D01*
X82480Y-71384D01*
X82429Y-71263D01*
X82337Y-71170D01*
X82215Y-71120D01*
X82153Y-71120D01*
X82129Y-71063D01*
X82037Y-70970D01*
X81915Y-70920D01*
X81784Y-70919D01*
X81663Y-70970D01*
X81570Y-71062D01*
X81520Y-71184D01*
X81519Y-71315D01*
X81570Y-71436D01*
X81662Y-71529D01*
X81784Y-71579D01*
X81846Y-71579D01*
X81870Y-71636D01*
X81962Y-71729D01*
X82084Y-71779D01*
X82215Y-71780D01*
X82336Y-71729D01*
X82429Y-71637D01*
X82479Y-71515D01*
X82480Y-71384D01*
X82480Y-83808D01*
X82136Y-83808D01*
X82136Y-82770D01*
X82179Y-82665D01*
X82180Y-82534D01*
X82136Y-82429D01*
X82136Y-82070D01*
X82179Y-81965D01*
X82180Y-81834D01*
X82136Y-81729D01*
X82136Y-77270D01*
X82179Y-77165D01*
X82180Y-77034D01*
X82136Y-76929D01*
X82136Y-76570D01*
X82179Y-76465D01*
X82180Y-76334D01*
X82136Y-76229D01*
X82136Y-72390D01*
X78830Y-72390D01*
X78830Y-70734D01*
X78779Y-70613D01*
X78687Y-70520D01*
X78565Y-70470D01*
X78434Y-70469D01*
X78313Y-70520D01*
X78220Y-70612D01*
X78170Y-70734D01*
X78169Y-70865D01*
X78220Y-70986D01*
X78312Y-71079D01*
X78434Y-71129D01*
X78565Y-71130D01*
X78686Y-71079D01*
X78779Y-70987D01*
X78829Y-70865D01*
X78830Y-70734D01*
X78830Y-72390D01*
X72097Y-72390D01*
X72097Y-71800D01*
X72080Y-71800D01*
X72080Y-69234D01*
X72029Y-69113D01*
X71937Y-69020D01*
X71815Y-68970D01*
X71684Y-68969D01*
X71563Y-69020D01*
X71470Y-69112D01*
X71429Y-69210D01*
X71430Y-69084D01*
X71379Y-68963D01*
X71287Y-68870D01*
X71165Y-68820D01*
X71034Y-68819D01*
X70975Y-68844D01*
X70915Y-68820D01*
X70784Y-68819D01*
X70725Y-68844D01*
X70665Y-68820D01*
X70534Y-68819D01*
X70413Y-68870D01*
X70320Y-68962D01*
X70270Y-69084D01*
X70269Y-69215D01*
X70320Y-69336D01*
X70412Y-69429D01*
X70534Y-69479D01*
X70665Y-69480D01*
X70724Y-69455D01*
X70784Y-69479D01*
X70915Y-69480D01*
X70974Y-69455D01*
X71034Y-69479D01*
X71165Y-69480D01*
X71286Y-69429D01*
X71379Y-69337D01*
X71420Y-69239D01*
X71419Y-69365D01*
X71470Y-69486D01*
X71562Y-69579D01*
X71684Y-69629D01*
X71815Y-69630D01*
X71936Y-69579D01*
X72029Y-69487D01*
X72079Y-69365D01*
X72080Y-69234D01*
X72080Y-71800D01*
X68947Y-71800D01*
X68947Y-69946D01*
X68986Y-69929D01*
X69079Y-69837D01*
X69129Y-69715D01*
X69130Y-69584D01*
X69079Y-69463D01*
X68987Y-69370D01*
X68947Y-69353D01*
X68947Y-69346D01*
X68986Y-69329D01*
X69079Y-69237D01*
X69129Y-69115D01*
X69130Y-68984D01*
X69079Y-68863D01*
X68987Y-68770D01*
X68947Y-68753D01*
X68947Y-67844D01*
X69034Y-67879D01*
X69165Y-67880D01*
X69286Y-67829D01*
X69375Y-67741D01*
X69462Y-67829D01*
X69584Y-67879D01*
X69715Y-67880D01*
X69836Y-67829D01*
X69929Y-67737D01*
X69979Y-67615D01*
X69980Y-67484D01*
X69929Y-67363D01*
X69837Y-67270D01*
X69715Y-67220D01*
X69584Y-67219D01*
X69463Y-67270D01*
X69374Y-67358D01*
X69287Y-67270D01*
X69165Y-67220D01*
X69034Y-67219D01*
X68947Y-67255D01*
X68947Y-66782D01*
X71551Y-66782D01*
X71470Y-66862D01*
X71420Y-66984D01*
X71419Y-67060D01*
X71379Y-66963D01*
X71287Y-66870D01*
X71165Y-66820D01*
X71034Y-66819D01*
X70975Y-66844D01*
X70915Y-66820D01*
X70784Y-66819D01*
X70725Y-66844D01*
X70665Y-66820D01*
X70534Y-66819D01*
X70413Y-66870D01*
X70320Y-66962D01*
X70270Y-67084D01*
X70269Y-67215D01*
X70320Y-67336D01*
X70412Y-67429D01*
X70534Y-67479D01*
X70665Y-67480D01*
X70724Y-67455D01*
X70784Y-67479D01*
X70915Y-67480D01*
X70974Y-67455D01*
X71034Y-67479D01*
X71165Y-67480D01*
X71286Y-67429D01*
X71379Y-67337D01*
X71429Y-67215D01*
X71430Y-67139D01*
X71470Y-67236D01*
X71562Y-67329D01*
X71684Y-67379D01*
X71815Y-67380D01*
X71936Y-67329D01*
X72029Y-67237D01*
X72079Y-67115D01*
X72080Y-66984D01*
X72029Y-66863D01*
X71949Y-66782D01*
X72223Y-66782D01*
X74950Y-69508D01*
X74950Y-69561D01*
X74864Y-69526D01*
X74636Y-69526D01*
X74425Y-69613D01*
X74263Y-69774D01*
X74176Y-69985D01*
X74176Y-70213D01*
X74263Y-70424D01*
X74424Y-70586D01*
X74635Y-70673D01*
X74863Y-70673D01*
X74950Y-70638D01*
X74950Y-71309D01*
X75445Y-71309D01*
X75513Y-71474D01*
X75674Y-71636D01*
X75885Y-71723D01*
X76113Y-71723D01*
X76324Y-71636D01*
X76486Y-71475D01*
X76554Y-71309D01*
X77609Y-71309D01*
X77609Y-70325D01*
X78258Y-70325D01*
X78312Y-70379D01*
X78434Y-70429D01*
X78565Y-70430D01*
X78686Y-70379D01*
X78741Y-70325D01*
X80469Y-70325D01*
X80469Y-70365D01*
X80520Y-70486D01*
X80612Y-70579D01*
X80734Y-70629D01*
X80865Y-70630D01*
X80986Y-70579D01*
X81079Y-70487D01*
X81129Y-70365D01*
X81129Y-70325D01*
X85481Y-70325D01*
X85563Y-70524D01*
X85724Y-70686D01*
X85935Y-70773D01*
X86163Y-70773D01*
X86374Y-70686D01*
X86536Y-70525D01*
X86623Y-70314D01*
X86623Y-70086D01*
X86536Y-69875D01*
X86375Y-69713D01*
X86164Y-69626D01*
X86073Y-69626D01*
X86073Y-68650D01*
X85495Y-68650D01*
X85479Y-68613D01*
X85387Y-68520D01*
X85265Y-68470D01*
X85203Y-68470D01*
X85179Y-68413D01*
X85087Y-68320D01*
X84965Y-68270D01*
X84834Y-68269D01*
X84713Y-68320D01*
X84620Y-68412D01*
X84570Y-68534D01*
X84569Y-68650D01*
X83080Y-68650D01*
X83080Y-63084D01*
X83029Y-62963D01*
X82937Y-62870D01*
X82815Y-62820D01*
X82684Y-62819D01*
X82563Y-62870D01*
X82470Y-62962D01*
X82446Y-63020D01*
X82334Y-63019D01*
X82213Y-63070D01*
X82120Y-63162D01*
X82070Y-63284D01*
X82069Y-63415D01*
X82120Y-63536D01*
X82212Y-63629D01*
X82334Y-63679D01*
X82465Y-63680D01*
X82586Y-63629D01*
X82679Y-63537D01*
X82703Y-63479D01*
X82815Y-63480D01*
X82936Y-63429D01*
X83029Y-63337D01*
X83079Y-63215D01*
X83080Y-63084D01*
X83080Y-68650D01*
X82479Y-68650D01*
X82480Y-68534D01*
X82429Y-68413D01*
X82337Y-68320D01*
X82215Y-68270D01*
X82084Y-68269D01*
X81963Y-68320D01*
X81870Y-68412D01*
X81846Y-68469D01*
X81784Y-68469D01*
X81663Y-68520D01*
X81570Y-68612D01*
X81554Y-68650D01*
X81130Y-68650D01*
X81130Y-65684D01*
X81079Y-65563D01*
X80987Y-65470D01*
X80865Y-65420D01*
X80734Y-65419D01*
X80613Y-65470D01*
X80520Y-65562D01*
X80470Y-65684D01*
X80469Y-65815D01*
X80520Y-65936D01*
X80612Y-66029D01*
X80734Y-66079D01*
X80865Y-66080D01*
X80986Y-66029D01*
X81079Y-65937D01*
X81129Y-65815D01*
X81130Y-65684D01*
X81130Y-68650D01*
X80430Y-68650D01*
X80430Y-65684D01*
X80379Y-65563D01*
X80287Y-65470D01*
X80165Y-65420D01*
X80103Y-65420D01*
X80079Y-65363D01*
X79987Y-65270D01*
X79865Y-65220D01*
X79734Y-65219D01*
X79613Y-65270D01*
X79520Y-65362D01*
X79470Y-65484D01*
X79469Y-65615D01*
X79497Y-65681D01*
X79364Y-65626D01*
X79136Y-65626D01*
X78925Y-65713D01*
X78763Y-65874D01*
X78676Y-66085D01*
X78676Y-66313D01*
X78763Y-66524D01*
X78924Y-66686D01*
X79135Y-66773D01*
X79363Y-66773D01*
X79574Y-66686D01*
X79736Y-66525D01*
X79823Y-66314D01*
X79823Y-66086D01*
X79738Y-65879D01*
X79796Y-65879D01*
X79820Y-65936D01*
X79912Y-66029D01*
X80034Y-66079D01*
X80165Y-66080D01*
X80286Y-66029D01*
X80379Y-65937D01*
X80429Y-65815D01*
X80430Y-65684D01*
X80430Y-68650D01*
X78380Y-68650D01*
X78380Y-66334D01*
X78380Y-65634D01*
X78329Y-65513D01*
X78237Y-65420D01*
X78115Y-65370D01*
X77984Y-65369D01*
X77863Y-65420D01*
X77770Y-65512D01*
X77720Y-65634D01*
X77719Y-65765D01*
X77770Y-65886D01*
X77862Y-65979D01*
X77984Y-66029D01*
X78115Y-66030D01*
X78236Y-65979D01*
X78329Y-65887D01*
X78379Y-65765D01*
X78380Y-65634D01*
X78380Y-66334D01*
X78329Y-66213D01*
X78237Y-66120D01*
X78115Y-66070D01*
X77984Y-66069D01*
X77863Y-66120D01*
X77770Y-66212D01*
X77720Y-66334D01*
X77719Y-66465D01*
X77770Y-66586D01*
X77862Y-66679D01*
X77984Y-66729D01*
X78115Y-66730D01*
X78236Y-66679D01*
X78329Y-66587D01*
X78379Y-66465D01*
X78380Y-66334D01*
X78380Y-68650D01*
X77609Y-68650D01*
X77609Y-68286D01*
X76027Y-66704D01*
X76086Y-66679D01*
X76179Y-66587D01*
X76229Y-66465D01*
X76230Y-66353D01*
X76286Y-66329D01*
X76379Y-66237D01*
X76429Y-66115D01*
X76430Y-65984D01*
X76379Y-65863D01*
X76287Y-65770D01*
X76165Y-65720D01*
X76034Y-65719D01*
X75913Y-65770D01*
X75837Y-65845D01*
X75837Y-65501D01*
X75874Y-65486D01*
X76036Y-65325D01*
X76123Y-65114D01*
X76123Y-64886D01*
X76036Y-64675D01*
X75875Y-64513D01*
X75837Y-64498D01*
X75837Y-64026D01*
X80168Y-64026D01*
X80168Y-61664D01*
X83414Y-61664D01*
X83414Y-67569D01*
X86664Y-67569D01*
X86664Y-67372D01*
X87526Y-67372D01*
X87526Y-67413D01*
X87613Y-67624D01*
X87774Y-67786D01*
X87985Y-67873D01*
X88213Y-67873D01*
X88424Y-67786D01*
X88586Y-67625D01*
X88673Y-67414D01*
X88673Y-67372D01*
X91879Y-67372D01*
X91879Y-69217D01*
X91879Y-69217D01*
G37*
G54D17*
X91879Y-69217D02*
X91765Y-69170D01*
X91634Y-69169D01*
X91513Y-69220D01*
X91492Y-69241D01*
X91280Y-69241D01*
X91280Y-68434D01*
X91229Y-68313D01*
X91137Y-68220D01*
X91088Y-68200D01*
X91136Y-68179D01*
X91229Y-68087D01*
X91279Y-67965D01*
X91280Y-67834D01*
X91229Y-67713D01*
X91137Y-67620D01*
X91015Y-67570D01*
X90884Y-67569D01*
X90763Y-67620D01*
X90670Y-67712D01*
X90620Y-67834D01*
X90620Y-67875D01*
X90513Y-67920D01*
X90420Y-68012D01*
X90370Y-68134D01*
X90369Y-68265D01*
X90420Y-68386D01*
X90512Y-68479D01*
X90619Y-68524D01*
X90619Y-68565D01*
X90670Y-68686D01*
X90762Y-68779D01*
X90884Y-68829D01*
X91015Y-68830D01*
X91136Y-68779D01*
X91229Y-68687D01*
X91279Y-68565D01*
X91280Y-68434D01*
X91280Y-69241D01*
X88673Y-69241D01*
X88673Y-68486D01*
X88586Y-68275D01*
X88425Y-68113D01*
X88214Y-68026D01*
X87986Y-68026D01*
X87915Y-68055D01*
X87480Y-67619D01*
X87397Y-67564D01*
X87300Y-67545D01*
X87161Y-67545D01*
X87137Y-67520D01*
X87015Y-67470D01*
X86884Y-67469D01*
X86763Y-67520D01*
X86670Y-67612D01*
X86620Y-67734D01*
X86619Y-67865D01*
X86670Y-67986D01*
X86762Y-68079D01*
X86884Y-68129D01*
X87015Y-68130D01*
X87136Y-68079D01*
X87161Y-68055D01*
X87194Y-68055D01*
X87555Y-68415D01*
X87526Y-68485D01*
X87526Y-68713D01*
X87613Y-68924D01*
X87774Y-69086D01*
X87985Y-69173D01*
X88213Y-69173D01*
X88424Y-69086D01*
X88586Y-68925D01*
X88673Y-68714D01*
X88673Y-68486D01*
X88673Y-69241D01*
X87548Y-69241D01*
X87548Y-69732D01*
X87526Y-69785D01*
X87526Y-70013D01*
X87548Y-70067D01*
X87548Y-71032D01*
X87526Y-71085D01*
X87526Y-71313D01*
X87548Y-71367D01*
X87548Y-72390D01*
X86220Y-72390D01*
X86023Y-72390D01*
X85530Y-72390D01*
X85530Y-71184D01*
X85479Y-71063D01*
X85387Y-70970D01*
X85265Y-70920D01*
X85134Y-70919D01*
X85013Y-70970D01*
X84920Y-71062D01*
X84896Y-71119D01*
X84834Y-71119D01*
X84713Y-71170D01*
X84620Y-71262D01*
X84570Y-71384D01*
X84569Y-71515D01*
X84620Y-71636D01*
X84712Y-71729D01*
X84834Y-71779D01*
X84965Y-71780D01*
X85086Y-71729D01*
X85179Y-71637D01*
X85203Y-71580D01*
X85265Y-71580D01*
X85386Y-71529D01*
X85479Y-71437D01*
X85529Y-71315D01*
X85530Y-71184D01*
X85530Y-72390D01*
X84595Y-72390D01*
X84595Y-76082D01*
X84565Y-76070D01*
X84434Y-76069D01*
X84313Y-76120D01*
X84220Y-76212D01*
X84170Y-76334D01*
X84169Y-76465D01*
X84220Y-76586D01*
X84312Y-76679D01*
X84434Y-76729D01*
X84565Y-76730D01*
X84595Y-76717D01*
X84595Y-76782D01*
X84565Y-76770D01*
X84434Y-76769D01*
X84313Y-76820D01*
X84220Y-76912D01*
X84170Y-77034D01*
X84169Y-77165D01*
X84220Y-77286D01*
X84312Y-77379D01*
X84434Y-77429D01*
X84565Y-77430D01*
X84595Y-77417D01*
X84595Y-81603D01*
X84515Y-81570D01*
X84384Y-81569D01*
X84263Y-81620D01*
X84170Y-81712D01*
X84120Y-81834D01*
X84119Y-81965D01*
X84170Y-82086D01*
X84262Y-82179D01*
X84384Y-82229D01*
X84515Y-82230D01*
X84595Y-82196D01*
X84595Y-82303D01*
X84515Y-82270D01*
X84384Y-82269D01*
X84263Y-82320D01*
X84170Y-82412D01*
X84120Y-82534D01*
X84119Y-82665D01*
X84170Y-82786D01*
X84262Y-82879D01*
X84384Y-82929D01*
X84515Y-82930D01*
X84595Y-82896D01*
X84595Y-83808D01*
X83880Y-83808D01*
X83880Y-79684D01*
X83880Y-74234D01*
X83829Y-74113D01*
X83737Y-74020D01*
X83615Y-73970D01*
X83484Y-73969D01*
X83374Y-74015D01*
X83265Y-73970D01*
X83134Y-73969D01*
X83013Y-74020D01*
X82920Y-74112D01*
X82870Y-74234D01*
X82869Y-74365D01*
X82920Y-74486D01*
X83012Y-74579D01*
X83134Y-74629D01*
X83265Y-74630D01*
X83375Y-74584D01*
X83484Y-74629D01*
X83615Y-74630D01*
X83736Y-74579D01*
X83829Y-74487D01*
X83879Y-74365D01*
X83880Y-74234D01*
X83880Y-79684D01*
X83829Y-79563D01*
X83737Y-79470D01*
X83680Y-79446D01*
X83680Y-77034D01*
X83680Y-76334D01*
X83629Y-76213D01*
X83537Y-76120D01*
X83415Y-76070D01*
X83284Y-76069D01*
X83163Y-76120D01*
X83070Y-76212D01*
X83020Y-76334D01*
X83019Y-76465D01*
X83070Y-76586D01*
X83162Y-76679D01*
X83284Y-76729D01*
X83415Y-76730D01*
X83536Y-76679D01*
X83629Y-76587D01*
X83679Y-76465D01*
X83680Y-76334D01*
X83680Y-77034D01*
X83629Y-76913D01*
X83537Y-76820D01*
X83415Y-76770D01*
X83284Y-76769D01*
X83163Y-76820D01*
X83070Y-76912D01*
X83020Y-77034D01*
X83019Y-77165D01*
X83070Y-77286D01*
X83162Y-77379D01*
X83284Y-77429D01*
X83415Y-77430D01*
X83536Y-77379D01*
X83629Y-77287D01*
X83679Y-77165D01*
X83680Y-77034D01*
X83680Y-79446D01*
X83615Y-79420D01*
X83484Y-79419D01*
X83374Y-79465D01*
X83265Y-79420D01*
X83134Y-79419D01*
X83013Y-79470D01*
X82920Y-79562D01*
X82870Y-79684D01*
X82869Y-79815D01*
X82920Y-79936D01*
X83012Y-80029D01*
X83134Y-80079D01*
X83265Y-80080D01*
X83375Y-80034D01*
X83484Y-80079D01*
X83615Y-80080D01*
X83736Y-80029D01*
X83829Y-79937D01*
X83879Y-79815D01*
X83880Y-79684D01*
X83880Y-83808D01*
X83680Y-83808D01*
X83680Y-82534D01*
X83680Y-81834D01*
X83629Y-81713D01*
X83537Y-81620D01*
X83415Y-81570D01*
X83284Y-81569D01*
X83163Y-81620D01*
X83070Y-81712D01*
X83020Y-81834D01*
X83019Y-81965D01*
X83070Y-82086D01*
X83162Y-82179D01*
X83284Y-82229D01*
X83415Y-82230D01*
X83536Y-82179D01*
X83629Y-82087D01*
X83679Y-81965D01*
X83680Y-81834D01*
X83680Y-82534D01*
X83629Y-82413D01*
X83537Y-82320D01*
X83415Y-82270D01*
X83284Y-82269D01*
X83163Y-82320D01*
X83070Y-82412D01*
X83020Y-82534D01*
X83019Y-82665D01*
X83070Y-82786D01*
X83162Y-82879D01*
X83284Y-82929D01*
X83415Y-82930D01*
X83536Y-82879D01*
X83629Y-82787D01*
X83679Y-82665D01*
X83680Y-82534D01*
X83680Y-83808D01*
X82480Y-83808D01*
X82480Y-71384D01*
X82429Y-71263D01*
X82337Y-71170D01*
X82215Y-71120D01*
X82153Y-71120D01*
X82129Y-71063D01*
X82037Y-70970D01*
X81915Y-70920D01*
X81784Y-70919D01*
X81663Y-70970D01*
X81570Y-71062D01*
X81520Y-71184D01*
X81519Y-71315D01*
X81570Y-71436D01*
X81662Y-71529D01*
X81784Y-71579D01*
X81846Y-71579D01*
X81870Y-71636D01*
X81962Y-71729D01*
X82084Y-71779D01*
X82215Y-71780D01*
X82336Y-71729D01*
X82429Y-71637D01*
X82479Y-71515D01*
X82480Y-71384D01*
X82480Y-83808D01*
X82136Y-83808D01*
X82136Y-82770D01*
X82179Y-82665D01*
X82180Y-82534D01*
X82136Y-82429D01*
X82136Y-82070D01*
X82179Y-81965D01*
X82180Y-81834D01*
X82136Y-81729D01*
X82136Y-77270D01*
X82179Y-77165D01*
X82180Y-77034D01*
X82136Y-76929D01*
X82136Y-76570D01*
X82179Y-76465D01*
X82180Y-76334D01*
X82136Y-76229D01*
X82136Y-72390D01*
X78830Y-72390D01*
X78830Y-70734D01*
X78779Y-70613D01*
X78687Y-70520D01*
X78565Y-70470D01*
X78434Y-70469D01*
X78313Y-70520D01*
X78220Y-70612D01*
X78170Y-70734D01*
X78169Y-70865D01*
X78220Y-70986D01*
X78312Y-71079D01*
X78434Y-71129D01*
X78565Y-71130D01*
X78686Y-71079D01*
X78779Y-70987D01*
X78829Y-70865D01*
X78830Y-70734D01*
X78830Y-72390D01*
X72097Y-72390D01*
X72097Y-71800D01*
X72080Y-71800D01*
X72080Y-69234D01*
X72029Y-69113D01*
X71937Y-69020D01*
X71815Y-68970D01*
X71684Y-68969D01*
X71563Y-69020D01*
X71470Y-69112D01*
X71429Y-69210D01*
X71430Y-69084D01*
X71379Y-68963D01*
X71287Y-68870D01*
X71165Y-68820D01*
X71034Y-68819D01*
X70975Y-68844D01*
X70915Y-68820D01*
X70784Y-68819D01*
X70725Y-68844D01*
X70665Y-68820D01*
X70534Y-68819D01*
X70413Y-68870D01*
X70320Y-68962D01*
X70270Y-69084D01*
X70269Y-69215D01*
X70320Y-69336D01*
X70412Y-69429D01*
X70534Y-69479D01*
X70665Y-69480D01*
X70724Y-69455D01*
X70784Y-69479D01*
X70915Y-69480D01*
X70974Y-69455D01*
X71034Y-69479D01*
X71165Y-69480D01*
X71286Y-69429D01*
X71379Y-69337D01*
X71420Y-69239D01*
X71419Y-69365D01*
X71470Y-69486D01*
X71562Y-69579D01*
X71684Y-69629D01*
X71815Y-69630D01*
X71936Y-69579D01*
X72029Y-69487D01*
X72079Y-69365D01*
X72080Y-69234D01*
X72080Y-71800D01*
X68947Y-71800D01*
X68947Y-69946D01*
X68986Y-69929D01*
X69079Y-69837D01*
X69129Y-69715D01*
X69130Y-69584D01*
X69079Y-69463D01*
X68987Y-69370D01*
X68947Y-69353D01*
X68947Y-69346D01*
X68986Y-69329D01*
X69079Y-69237D01*
X69129Y-69115D01*
X69130Y-68984D01*
X69079Y-68863D01*
X68987Y-68770D01*
X68947Y-68753D01*
X68947Y-67844D01*
X69034Y-67879D01*
X69165Y-67880D01*
X69286Y-67829D01*
X69375Y-67741D01*
X69462Y-67829D01*
X69584Y-67879D01*
X69715Y-67880D01*
X69836Y-67829D01*
X69929Y-67737D01*
X69979Y-67615D01*
X69980Y-67484D01*
X69929Y-67363D01*
X69837Y-67270D01*
X69715Y-67220D01*
X69584Y-67219D01*
X69463Y-67270D01*
X69374Y-67358D01*
X69287Y-67270D01*
X69165Y-67220D01*
X69034Y-67219D01*
X68947Y-67255D01*
X68947Y-66782D01*
X71551Y-66782D01*
X71470Y-66862D01*
X71420Y-66984D01*
X71419Y-67060D01*
X71379Y-66963D01*
X71287Y-66870D01*
X71165Y-66820D01*
X71034Y-66819D01*
X70975Y-66844D01*
X70915Y-66820D01*
X70784Y-66819D01*
X70725Y-66844D01*
X70665Y-66820D01*
X70534Y-66819D01*
X70413Y-66870D01*
X70320Y-66962D01*
X70270Y-67084D01*
X70269Y-67215D01*
X70320Y-67336D01*
X70412Y-67429D01*
X70534Y-67479D01*
X70665Y-67480D01*
X70724Y-67455D01*
X70784Y-67479D01*
X70915Y-67480D01*
X70974Y-67455D01*
X71034Y-67479D01*
X71165Y-67480D01*
X71286Y-67429D01*
X71379Y-67337D01*
X71429Y-67215D01*
X71430Y-67139D01*
X71470Y-67236D01*
X71562Y-67329D01*
X71684Y-67379D01*
X71815Y-67380D01*
X71936Y-67329D01*
X72029Y-67237D01*
X72079Y-67115D01*
X72080Y-66984D01*
X72029Y-66863D01*
X71949Y-66782D01*
X72223Y-66782D01*
X74950Y-69508D01*
X74950Y-69561D01*
X74864Y-69526D01*
X74636Y-69526D01*
X74425Y-69613D01*
X74263Y-69774D01*
X74176Y-69985D01*
X74176Y-70213D01*
X74263Y-70424D01*
X74424Y-70586D01*
X74635Y-70673D01*
X74863Y-70673D01*
X74950Y-70638D01*
X74950Y-71309D01*
X75445Y-71309D01*
X75513Y-71474D01*
X75674Y-71636D01*
X75885Y-71723D01*
X76113Y-71723D01*
X76324Y-71636D01*
X76486Y-71475D01*
X76554Y-71309D01*
X77609Y-71309D01*
X77609Y-70325D01*
X78258Y-70325D01*
X78312Y-70379D01*
X78434Y-70429D01*
X78565Y-70430D01*
X78686Y-70379D01*
X78741Y-70325D01*
X80469Y-70325D01*
X80469Y-70365D01*
X80520Y-70486D01*
X80612Y-70579D01*
X80734Y-70629D01*
X80865Y-70630D01*
X80986Y-70579D01*
X81079Y-70487D01*
X81129Y-70365D01*
X81129Y-70325D01*
X85481Y-70325D01*
X85563Y-70524D01*
X85724Y-70686D01*
X85935Y-70773D01*
X86163Y-70773D01*
X86374Y-70686D01*
X86536Y-70525D01*
X86623Y-70314D01*
X86623Y-70086D01*
X86536Y-69875D01*
X86375Y-69713D01*
X86164Y-69626D01*
X86073Y-69626D01*
X86073Y-68650D01*
X85495Y-68650D01*
X85479Y-68613D01*
X85387Y-68520D01*
X85265Y-68470D01*
X85203Y-68470D01*
X85179Y-68413D01*
X85087Y-68320D01*
X84965Y-68270D01*
X84834Y-68269D01*
X84713Y-68320D01*
X84620Y-68412D01*
X84570Y-68534D01*
X84569Y-68650D01*
X83080Y-68650D01*
X83080Y-63084D01*
X83029Y-62963D01*
X82937Y-62870D01*
X82815Y-62820D01*
X82684Y-62819D01*
X82563Y-62870D01*
X82470Y-62962D01*
X82446Y-63020D01*
X82334Y-63019D01*
X82213Y-63070D01*
X82120Y-63162D01*
X82070Y-63284D01*
X82069Y-63415D01*
X82120Y-63536D01*
X82212Y-63629D01*
X82334Y-63679D01*
X82465Y-63680D01*
X82586Y-63629D01*
X82679Y-63537D01*
X82703Y-63479D01*
X82815Y-63480D01*
X82936Y-63429D01*
X83029Y-63337D01*
X83079Y-63215D01*
X83080Y-63084D01*
X83080Y-68650D01*
X82479Y-68650D01*
X82480Y-68534D01*
X82429Y-68413D01*
X82337Y-68320D01*
X82215Y-68270D01*
X82084Y-68269D01*
X81963Y-68320D01*
X81870Y-68412D01*
X81846Y-68469D01*
X81784Y-68469D01*
X81663Y-68520D01*
X81570Y-68612D01*
X81554Y-68650D01*
X81130Y-68650D01*
X81130Y-65684D01*
X81079Y-65563D01*
X80987Y-65470D01*
X80865Y-65420D01*
X80734Y-65419D01*
X80613Y-65470D01*
X80520Y-65562D01*
X80470Y-65684D01*
X80469Y-65815D01*
X80520Y-65936D01*
X80612Y-66029D01*
X80734Y-66079D01*
X80865Y-66080D01*
X80986Y-66029D01*
X81079Y-65937D01*
X81129Y-65815D01*
X81130Y-65684D01*
X81130Y-68650D01*
X80430Y-68650D01*
X80430Y-65684D01*
X80379Y-65563D01*
X80287Y-65470D01*
X80165Y-65420D01*
X80103Y-65420D01*
X80079Y-65363D01*
X79987Y-65270D01*
X79865Y-65220D01*
X79734Y-65219D01*
X79613Y-65270D01*
X79520Y-65362D01*
X79470Y-65484D01*
X79469Y-65615D01*
X79497Y-65681D01*
X79364Y-65626D01*
X79136Y-65626D01*
X78925Y-65713D01*
X78763Y-65874D01*
X78676Y-66085D01*
X78676Y-66313D01*
X78763Y-66524D01*
X78924Y-66686D01*
X79135Y-66773D01*
X79363Y-66773D01*
X79574Y-66686D01*
X79736Y-66525D01*
X79823Y-66314D01*
X79823Y-66086D01*
X79738Y-65879D01*
X79796Y-65879D01*
X79820Y-65936D01*
X79912Y-66029D01*
X80034Y-66079D01*
X80165Y-66080D01*
X80286Y-66029D01*
X80379Y-65937D01*
X80429Y-65815D01*
X80430Y-65684D01*
X80430Y-68650D01*
X78380Y-68650D01*
X78380Y-66334D01*
X78380Y-65634D01*
X78329Y-65513D01*
X78237Y-65420D01*
X78115Y-65370D01*
X77984Y-65369D01*
X77863Y-65420D01*
X77770Y-65512D01*
X77720Y-65634D01*
X77719Y-65765D01*
X77770Y-65886D01*
X77862Y-65979D01*
X77984Y-66029D01*
X78115Y-66030D01*
X78236Y-65979D01*
X78329Y-65887D01*
X78379Y-65765D01*
X78380Y-65634D01*
X78380Y-66334D01*
X78329Y-66213D01*
X78237Y-66120D01*
X78115Y-66070D01*
X77984Y-66069D01*
X77863Y-66120D01*
X77770Y-66212D01*
X77720Y-66334D01*
X77719Y-66465D01*
X77770Y-66586D01*
X77862Y-66679D01*
X77984Y-66729D01*
X78115Y-66730D01*
X78236Y-66679D01*
X78329Y-66587D01*
X78379Y-66465D01*
X78380Y-66334D01*
X78380Y-68650D01*
X77609Y-68650D01*
X77609Y-68286D01*
X76027Y-66704D01*
X76086Y-66679D01*
X76179Y-66587D01*
X76229Y-66465D01*
X76230Y-66353D01*
X76286Y-66329D01*
X76379Y-66237D01*
X76429Y-66115D01*
X76430Y-65984D01*
X76379Y-65863D01*
X76287Y-65770D01*
X76165Y-65720D01*
X76034Y-65719D01*
X75913Y-65770D01*
X75837Y-65845D01*
X75837Y-65501D01*
X75874Y-65486D01*
X76036Y-65325D01*
X76123Y-65114D01*
X76123Y-64886D01*
X76036Y-64675D01*
X75875Y-64513D01*
X75837Y-64498D01*
X75837Y-64026D01*
X80168Y-64026D01*
X80168Y-61664D01*
X83414Y-61664D01*
X83414Y-67569D01*
X86664Y-67569D01*
X86664Y-67372D01*
X87526Y-67372D01*
X87526Y-67413D01*
X87613Y-67624D01*
X87774Y-67786D01*
X87985Y-67873D01*
X88213Y-67873D01*
X88424Y-67786D01*
X88586Y-67625D01*
X88673Y-67414D01*
X88673Y-67372D01*
X91879Y-67372D01*
X91879Y-69217D01*
M02*
