G04 (created by PCBNEW (2013-07-07 BZR 4022)-stable) date Tue 03 Dec 2013 19:18:52 NZDT*
%MOIN*%
G04 Gerber Fmt 3.4, Leading zero omitted, Abs format*
%FSLAX34Y34*%
G01*
G70*
G90*
G04 APERTURE LIST*
%ADD10C,0.00590551*%
%ADD11C,0.0826772*%
%ADD12R,0.25X0.15*%
%ADD13R,0.25X0.129921*%
%ADD14R,0.159843X0.129921*%
%ADD15R,0.0402X0.0118*%
%ADD16R,0.05X0.025*%
%ADD17R,0.025X0.05*%
%ADD18C,0.15748*%
%ADD19R,0.0472X0.0472*%
%ADD20R,0.08X0.144*%
%ADD21R,0.08X0.04*%
%ADD22R,0.0393701X0.011811*%
%ADD23R,0.0511811X0.0649606*%
%ADD24R,0.0531496X0.015748*%
%ADD25R,0.0629921X0.0826772*%
%ADD26R,0.0748031X0.0708661*%
%ADD27R,0.06X0.016*%
%ADD28R,0.016X0.06*%
%ADD29C,0.0787402*%
%ADD30R,0.016X0.05*%
%ADD31R,0.0394X0.0276*%
%ADD32R,0.03X0.02*%
%ADD33R,0.02X0.03*%
%ADD34R,0.0177165X0.0393701*%
%ADD35R,0.036X0.048*%
%ADD36R,0.0787402X0.137795*%
%ADD37R,0.08X0.06*%
%ADD38R,0.055X0.035*%
%ADD39R,0.035X0.055*%
%ADD40R,0.025X0.045*%
%ADD41R,0.045X0.025*%
%ADD42R,0.0137795X0.0433071*%
%ADD43R,0.0433071X0.0137795*%
%ADD44R,0.0818898X0.0350394*%
%ADD45R,0.0598425X0.0915354*%
%ADD46R,0.0629921X0.015748*%
%ADD47R,0.061811X0.0744094*%
%ADD48R,0.141732X0.106299*%
%ADD49R,0.0394X0.0315*%
%ADD50R,0.0629921X0.0787402*%
%ADD51R,0.0629921X0.0511811*%
%ADD52C,0.01*%
G04 APERTURE END LIST*
G54D10*
G54D11*
X55511Y-69291D03*
G54D12*
X56992Y-66759D03*
G54D13*
X56992Y-71992D03*
G54D14*
X60590Y-69590D03*
G54D15*
X70156Y-68544D03*
X70156Y-68347D03*
X70156Y-68150D03*
X70156Y-67953D03*
X70156Y-67756D03*
X68344Y-67756D03*
X68344Y-67953D03*
X68344Y-68150D03*
X68344Y-68347D03*
X68344Y-68544D03*
G54D16*
X66850Y-76700D03*
X66850Y-77200D03*
X66850Y-77700D03*
X66850Y-78200D03*
X69050Y-78200D03*
X69050Y-77700D03*
X69050Y-77200D03*
X69050Y-76700D03*
G54D17*
X77650Y-67100D03*
X77150Y-67100D03*
X76650Y-67100D03*
X76150Y-67100D03*
X76150Y-69300D03*
X76650Y-69300D03*
X77150Y-69300D03*
X77650Y-69300D03*
G54D16*
X81543Y-64202D03*
X81543Y-64702D03*
X81543Y-65202D03*
X81543Y-65702D03*
X83743Y-65702D03*
X83743Y-65202D03*
X83743Y-64702D03*
X83743Y-64202D03*
G54D17*
X90261Y-60520D03*
X89761Y-60520D03*
X89261Y-60520D03*
X88761Y-60520D03*
X88761Y-62720D03*
X89261Y-62720D03*
X89761Y-62720D03*
X90261Y-62720D03*
X65250Y-59800D03*
X64750Y-59800D03*
X64250Y-59800D03*
X63750Y-59800D03*
X63750Y-62000D03*
X64250Y-62000D03*
X64750Y-62000D03*
X65250Y-62000D03*
G54D18*
X55905Y-55118D03*
G54D19*
X65570Y-77755D03*
X64744Y-77755D03*
G54D20*
X82300Y-57300D03*
G54D21*
X79700Y-57300D03*
X79700Y-58200D03*
X79700Y-56400D03*
G54D22*
X92125Y-71555D03*
X92125Y-71358D03*
X92125Y-71161D03*
X92125Y-70964D03*
X92125Y-70767D03*
X92125Y-70570D03*
X92125Y-70374D03*
X92125Y-70177D03*
X92125Y-69980D03*
X92125Y-69783D03*
X92125Y-69586D03*
X92125Y-69389D03*
X92125Y-69192D03*
X92125Y-68996D03*
X92125Y-68799D03*
X92125Y-68602D03*
X92125Y-68405D03*
X92125Y-68208D03*
X92125Y-68011D03*
X92125Y-67814D03*
X92125Y-67618D03*
X92125Y-67421D03*
X92125Y-67224D03*
X92125Y-67027D03*
X92125Y-66830D03*
X92125Y-66633D03*
G54D23*
X92874Y-72450D03*
X92874Y-65738D03*
G54D24*
X55974Y-76653D03*
X55974Y-76909D03*
X55974Y-77165D03*
X55974Y-77421D03*
X55974Y-77677D03*
G54D25*
X55925Y-75944D03*
X55925Y-78385D03*
G54D26*
X54921Y-75669D03*
X54921Y-78661D03*
G54D27*
X69832Y-79175D03*
X69832Y-79490D03*
X69832Y-79805D03*
X69832Y-80120D03*
X69832Y-80435D03*
X69832Y-80750D03*
X69832Y-78860D03*
X69832Y-78545D03*
X69832Y-78230D03*
X69832Y-77915D03*
X69832Y-77600D03*
X74332Y-79175D03*
X74332Y-79490D03*
X74332Y-79805D03*
X74332Y-80120D03*
X74332Y-80435D03*
X74332Y-80750D03*
X74332Y-78860D03*
X74332Y-78545D03*
X74332Y-78230D03*
X74332Y-77915D03*
X74332Y-77600D03*
G54D28*
X72082Y-81425D03*
X72082Y-76925D03*
X72397Y-81425D03*
X72397Y-76925D03*
X72712Y-76925D03*
X72712Y-81425D03*
X73027Y-81425D03*
X73027Y-76925D03*
X73342Y-76925D03*
X73342Y-81425D03*
X73657Y-81425D03*
X73657Y-76925D03*
X71767Y-76925D03*
X71767Y-81425D03*
X71452Y-81425D03*
X71452Y-76925D03*
X71137Y-76925D03*
X71137Y-81425D03*
X70822Y-81425D03*
X70822Y-76925D03*
X70507Y-76925D03*
X70507Y-81425D03*
G54D29*
X87350Y-76800D03*
X86811Y-57283D03*
X57874Y-56496D03*
X88650Y-59300D03*
X87800Y-62750D03*
X91100Y-62700D03*
X88100Y-71200D03*
X88100Y-69900D03*
X88100Y-68600D03*
X88100Y-67300D03*
X87600Y-73700D03*
X83423Y-57305D03*
X87350Y-82400D03*
X87600Y-79200D03*
X85900Y-66800D03*
X76600Y-59950D03*
X60000Y-59400D03*
X63900Y-72500D03*
X80550Y-61600D03*
X84650Y-64350D03*
X67600Y-74200D03*
X64000Y-81500D03*
X68800Y-74200D03*
X70000Y-74200D03*
X71200Y-74200D03*
X80300Y-80300D03*
X80300Y-81600D03*
X80300Y-79000D03*
X80400Y-74900D03*
X80400Y-76200D03*
X80400Y-73600D03*
X90551Y-81889D03*
X86050Y-70200D03*
X76000Y-71150D03*
X79250Y-66200D03*
X75550Y-65000D03*
X74650Y-66700D03*
X74750Y-70100D03*
X85700Y-76800D03*
X85700Y-82400D03*
X91100Y-65100D03*
X71000Y-60300D03*
X68000Y-81500D03*
X69000Y-82500D03*
X65000Y-82500D03*
X67000Y-82500D03*
X66000Y-81500D03*
G54D30*
X57050Y-78650D03*
X57300Y-78650D03*
X57560Y-78650D03*
X57820Y-78650D03*
X58070Y-78650D03*
X58330Y-78650D03*
X58590Y-78650D03*
X58840Y-78650D03*
X59100Y-78650D03*
X59350Y-78650D03*
X59610Y-78650D03*
X59870Y-78650D03*
X60120Y-78650D03*
X60380Y-78650D03*
X60380Y-75850D03*
X60120Y-75850D03*
X59880Y-75850D03*
X59610Y-75850D03*
X59350Y-75850D03*
X59100Y-75850D03*
X58840Y-75850D03*
X58590Y-75850D03*
X58330Y-75850D03*
X58070Y-75850D03*
X57820Y-75850D03*
X57560Y-75850D03*
X57300Y-75850D03*
X57050Y-75850D03*
G54D31*
X74900Y-57975D03*
X74900Y-58350D03*
X74900Y-58725D03*
X73900Y-58725D03*
X73900Y-58350D03*
X73900Y-57975D03*
G54D32*
X80046Y-62482D03*
X80046Y-63232D03*
X81046Y-62482D03*
X80046Y-62857D03*
X81046Y-63232D03*
G54D33*
X64348Y-68807D03*
X63598Y-68807D03*
X64348Y-69807D03*
X63973Y-68807D03*
X63598Y-69807D03*
G54D34*
X82716Y-75711D03*
X82972Y-75711D03*
X83227Y-75711D03*
X83483Y-75711D03*
X83483Y-74688D03*
X83227Y-74688D03*
X82972Y-74688D03*
X82716Y-74688D03*
X82716Y-81161D03*
X82972Y-81161D03*
X83227Y-81161D03*
X83483Y-81161D03*
X83483Y-80138D03*
X83227Y-80138D03*
X82972Y-80138D03*
X82716Y-80138D03*
G54D35*
X67240Y-60600D03*
X65960Y-60600D03*
G54D36*
X62181Y-57500D03*
X64818Y-57500D03*
G54D37*
X61806Y-60387D03*
X61806Y-61687D03*
X69306Y-60587D03*
X69306Y-61887D03*
X68206Y-60587D03*
X68206Y-61887D03*
X62906Y-60387D03*
X62906Y-61687D03*
G54D38*
X91100Y-63525D03*
X91100Y-64275D03*
X75650Y-58925D03*
X75650Y-59675D03*
G54D39*
X88925Y-68600D03*
X89675Y-68600D03*
X74675Y-56700D03*
X73925Y-56700D03*
X88925Y-67300D03*
X89675Y-67300D03*
X88925Y-69900D03*
X89675Y-69900D03*
X88925Y-71200D03*
X89675Y-71200D03*
G54D40*
X77700Y-70800D03*
X78300Y-70800D03*
G54D41*
X71725Y-68525D03*
X71725Y-69125D03*
G54D40*
X77800Y-65000D03*
X77200Y-65000D03*
X77700Y-71500D03*
X78300Y-71500D03*
X77800Y-65700D03*
X77200Y-65700D03*
G54D41*
X78300Y-68300D03*
X78300Y-67700D03*
G54D40*
X77800Y-66400D03*
X77200Y-66400D03*
X78300Y-70100D03*
X77700Y-70100D03*
X78300Y-67100D03*
X78900Y-67100D03*
G54D41*
X82150Y-71250D03*
X82150Y-70650D03*
X71725Y-67225D03*
X71725Y-67825D03*
G54D40*
X72275Y-67825D03*
X72875Y-67825D03*
X72275Y-68525D03*
X72875Y-68525D03*
X82700Y-77100D03*
X82100Y-77100D03*
X82700Y-76400D03*
X82100Y-76400D03*
X83600Y-77100D03*
X84200Y-77100D03*
X83600Y-76400D03*
X84200Y-76400D03*
G54D41*
X85150Y-74850D03*
X85150Y-74250D03*
X89050Y-75000D03*
X89050Y-74400D03*
X88400Y-75000D03*
X88400Y-74400D03*
G54D40*
X85700Y-75850D03*
X86300Y-75850D03*
X86750Y-75850D03*
X87350Y-75850D03*
X67350Y-78750D03*
X67950Y-78750D03*
X67950Y-76100D03*
X68550Y-76100D03*
G54D41*
X75350Y-78750D03*
X75350Y-79350D03*
G54D40*
X72550Y-82200D03*
X71950Y-82200D03*
G54D41*
X68850Y-79600D03*
X68850Y-79000D03*
G54D40*
X71600Y-76100D03*
X72200Y-76100D03*
X82100Y-75550D03*
X81500Y-75550D03*
X82100Y-74850D03*
X81500Y-74850D03*
X82100Y-81050D03*
X81500Y-81050D03*
X82100Y-80350D03*
X81500Y-80350D03*
G54D41*
X68250Y-67400D03*
X68250Y-66800D03*
G54D40*
X66800Y-68350D03*
X67400Y-68350D03*
X66800Y-67450D03*
X67400Y-67450D03*
X65750Y-67450D03*
X66350Y-67450D03*
X68000Y-69650D03*
X68600Y-69650D03*
X76700Y-66400D03*
X76100Y-66400D03*
X68000Y-69050D03*
X68600Y-69050D03*
X61350Y-76550D03*
X61950Y-76550D03*
X61350Y-77750D03*
X61950Y-77750D03*
G54D41*
X82150Y-68800D03*
X82150Y-69400D03*
X89050Y-80550D03*
X89050Y-79950D03*
G54D40*
X57900Y-80100D03*
X58500Y-80100D03*
G54D41*
X59100Y-80100D03*
X59100Y-80700D03*
G54D40*
X59100Y-75150D03*
X58500Y-75150D03*
X60200Y-75150D03*
X59600Y-75150D03*
G54D41*
X84900Y-68800D03*
X84900Y-69400D03*
X84900Y-71250D03*
X84900Y-70650D03*
G54D40*
X76400Y-70100D03*
X77000Y-70100D03*
X73900Y-57400D03*
X74500Y-57400D03*
G54D41*
X88150Y-61950D03*
X88150Y-61350D03*
X89900Y-63400D03*
X89900Y-64000D03*
X89200Y-63400D03*
X89200Y-64000D03*
G54D40*
X90050Y-59600D03*
X89450Y-59600D03*
X64700Y-62850D03*
X64100Y-62850D03*
X76100Y-82050D03*
X75500Y-82050D03*
G54D41*
X86300Y-65850D03*
X86300Y-65250D03*
X85100Y-65250D03*
X85100Y-65850D03*
X72500Y-59900D03*
X72500Y-59300D03*
G54D40*
X74750Y-56000D03*
X74150Y-56000D03*
G54D41*
X73800Y-59900D03*
X73800Y-59300D03*
X73150Y-59900D03*
X73150Y-59300D03*
G54D40*
X74350Y-59300D03*
X74950Y-59300D03*
G54D41*
X87450Y-61950D03*
X87450Y-61350D03*
G54D40*
X78550Y-57300D03*
X77950Y-57300D03*
G54D41*
X85700Y-65850D03*
X85700Y-65250D03*
X80100Y-64950D03*
X80100Y-65550D03*
X84500Y-65250D03*
X84500Y-65850D03*
G54D40*
X64243Y-70475D03*
X63643Y-70475D03*
G54D41*
X80800Y-64950D03*
X80800Y-65550D03*
X82400Y-62550D03*
X82400Y-63150D03*
G54D40*
X78900Y-58200D03*
X78300Y-58200D03*
X64450Y-68250D03*
X63850Y-68250D03*
G54D41*
X79450Y-62350D03*
X79450Y-62950D03*
G54D40*
X65100Y-59100D03*
X64500Y-59100D03*
G54D41*
X81700Y-62550D03*
X81700Y-63150D03*
G54D40*
X64243Y-71175D03*
X63643Y-71175D03*
X66400Y-61500D03*
X65800Y-61500D03*
X61100Y-79500D03*
X61700Y-79500D03*
X82700Y-82600D03*
X82100Y-82600D03*
X82700Y-81900D03*
X82100Y-81900D03*
X83600Y-82600D03*
X84200Y-82600D03*
X83600Y-81900D03*
X84200Y-81900D03*
G54D41*
X85150Y-80400D03*
X85150Y-79800D03*
X88400Y-80550D03*
X88400Y-79950D03*
G54D40*
X85700Y-81400D03*
X86300Y-81400D03*
X86750Y-81400D03*
X87350Y-81400D03*
G54D41*
X66338Y-73912D03*
X66338Y-74512D03*
G54D40*
X78550Y-56650D03*
X77950Y-56650D03*
X61100Y-81350D03*
X61700Y-81350D03*
X65300Y-62700D03*
X65900Y-62700D03*
X70550Y-82200D03*
X71150Y-82200D03*
G54D41*
X70900Y-75500D03*
X70900Y-76100D03*
X69300Y-75500D03*
X69300Y-76100D03*
X70250Y-75500D03*
X70250Y-76100D03*
G54D40*
X76100Y-77350D03*
X75500Y-77350D03*
X76100Y-78000D03*
X75500Y-78000D03*
X76100Y-80100D03*
X75500Y-80100D03*
X76100Y-80750D03*
X75500Y-80750D03*
X76100Y-81400D03*
X75500Y-81400D03*
X91550Y-70550D03*
X90950Y-70550D03*
X91550Y-68200D03*
X90950Y-68200D03*
X90050Y-58950D03*
X89450Y-58950D03*
G54D42*
X83116Y-70817D03*
X83372Y-70817D03*
X83627Y-70817D03*
X83883Y-70817D03*
G54D43*
X84267Y-70433D03*
X84267Y-70177D03*
X84267Y-69922D03*
X84267Y-69666D03*
G54D42*
X83883Y-69282D03*
X83627Y-69282D03*
X83372Y-69282D03*
X83116Y-69282D03*
G54D43*
X82732Y-69666D03*
X82732Y-69922D03*
X82732Y-70177D03*
X82732Y-70433D03*
G54D44*
X58661Y-62417D03*
X58661Y-60417D03*
G54D45*
X55149Y-58842D03*
X55149Y-63992D03*
G54D46*
X85923Y-80016D03*
X85923Y-80272D03*
X85923Y-80527D03*
X85923Y-80783D03*
X87576Y-80783D03*
X87576Y-80527D03*
X87576Y-80272D03*
X87576Y-80016D03*
G54D47*
X86750Y-80400D03*
G54D46*
X85923Y-74466D03*
X85923Y-74722D03*
X85923Y-74977D03*
X85923Y-75233D03*
X87576Y-75233D03*
X87576Y-74977D03*
X87576Y-74722D03*
X87576Y-74466D03*
G54D47*
X86750Y-74850D03*
G54D48*
X67600Y-56166D03*
X67600Y-59433D03*
G54D49*
X60833Y-80500D03*
X59967Y-80875D03*
X59967Y-80125D03*
G54D37*
X70850Y-68800D03*
X70850Y-67500D03*
G54D50*
X74206Y-68200D03*
G54D51*
X75348Y-67707D03*
X75348Y-68692D03*
G54D50*
X79256Y-70800D03*
G54D51*
X80398Y-70307D03*
X80398Y-71292D03*
G54D50*
X76606Y-63700D03*
G54D51*
X77748Y-63207D03*
X77748Y-64192D03*
G54D19*
X65570Y-76574D03*
X64744Y-76574D03*
X65570Y-78937D03*
X64744Y-78937D03*
X65570Y-75393D03*
X64744Y-75393D03*
G54D18*
X92125Y-55118D03*
X92125Y-83464D03*
X55905Y-83464D03*
G54D10*
G36*
X82824Y-60776D02*
X79380Y-60776D01*
X79380Y-58711D01*
X80168Y-58711D01*
X80168Y-55855D01*
X78987Y-55855D01*
X78987Y-53987D01*
X82824Y-53987D01*
X82824Y-60776D01*
X82824Y-60776D01*
G37*
G54D52*
X82824Y-60776D02*
X79380Y-60776D01*
X79380Y-58711D01*
X80168Y-58711D01*
X80168Y-55855D01*
X78987Y-55855D01*
X78987Y-53987D01*
X82824Y-53987D01*
X82824Y-60776D01*
M02*
