G04 (created by PCBNEW (2013-07-07 BZR 4022)-stable) date Tue 03 Dec 2013 19:18:52 NZDT*
%MOIN*%
G04 Gerber Fmt 3.4, Leading zero omitted, Abs format*
%FSLAX34Y34*%
G01*
G70*
G90*
G04 APERTURE LIST*
%ADD10C,0.00590551*%
%ADD11C,0.0826772*%
%ADD12C,0.15748*%
%ADD13C,0.0787402*%
%ADD14R,0.045X0.025*%
%ADD15R,0.0984252X0.11811*%
G04 APERTURE END LIST*
G54D10*
G54D11*
X55511Y-69291D03*
G54D12*
X55905Y-55118D03*
G54D13*
X87350Y-76800D03*
X86811Y-57283D03*
X57874Y-56496D03*
X88650Y-59300D03*
X87800Y-62750D03*
X91100Y-62700D03*
X88100Y-71200D03*
X88100Y-69900D03*
X88100Y-68600D03*
X88100Y-67300D03*
X87600Y-73700D03*
X83423Y-57305D03*
X87350Y-82400D03*
X87600Y-79200D03*
X85900Y-66800D03*
X76600Y-59950D03*
X60000Y-59400D03*
X63900Y-72500D03*
X80550Y-61600D03*
X84650Y-64350D03*
X67600Y-74200D03*
X64000Y-81500D03*
X68800Y-74200D03*
X70000Y-74200D03*
X71200Y-74200D03*
X80300Y-80300D03*
X80300Y-81600D03*
X80300Y-79000D03*
X80400Y-74900D03*
X80400Y-76200D03*
X80400Y-73600D03*
X90551Y-81889D03*
X86050Y-70200D03*
X76000Y-71150D03*
X79250Y-66200D03*
X75550Y-65000D03*
X74650Y-66700D03*
X74750Y-70100D03*
X85700Y-76800D03*
X85700Y-82400D03*
X91100Y-65100D03*
X71000Y-60300D03*
X68000Y-81500D03*
X69000Y-82500D03*
X65000Y-82500D03*
X67000Y-82500D03*
X66000Y-81500D03*
G54D14*
X69100Y-68350D03*
X69100Y-67750D03*
X69650Y-68350D03*
X69650Y-67750D03*
G54D15*
X73329Y-78000D03*
X70770Y-78000D03*
G54D12*
X92125Y-55118D03*
X92125Y-83464D03*
X55905Y-83464D03*
M02*
