G04 (created by PCBNEW (2013-07-07 BZR 4022)-stable) date Tue 03 Dec 2013 19:18:52 NZDT*
%MOIN*%
G04 Gerber Fmt 3.4, Leading zero omitted, Abs format*
%FSLAX34Y34*%
G01*
G70*
G90*
G04 APERTURE LIST*
%ADD10C,0.00590551*%
%ADD11C,0.0826772*%
%ADD12C,0.15748*%
%ADD13C,0.0787402*%
%ADD14R,0.045X0.025*%
%ADD15R,0.0984252X0.11811*%
%ADD16C,0.03*%
%ADD17C,0.03*%
%ADD18C,0.015*%
%ADD19C,0.01*%
G04 APERTURE END LIST*
G54D10*
G54D11*
X55511Y-69291D03*
G54D12*
X55905Y-55118D03*
G54D13*
X87350Y-76800D03*
X86811Y-57283D03*
X57874Y-56496D03*
X88650Y-59300D03*
X87800Y-62750D03*
X91100Y-62700D03*
X88100Y-71200D03*
X88100Y-69900D03*
X88100Y-68600D03*
X88100Y-67300D03*
X87600Y-73700D03*
X83423Y-57305D03*
X87350Y-82400D03*
X87600Y-79200D03*
X85900Y-66800D03*
X76600Y-59950D03*
X60000Y-59400D03*
X63900Y-72500D03*
X80550Y-61600D03*
X84650Y-64350D03*
X67600Y-74200D03*
X64000Y-81500D03*
X68800Y-74200D03*
X70000Y-74200D03*
X71200Y-74200D03*
X80300Y-80300D03*
X80300Y-81600D03*
X80300Y-79000D03*
X80400Y-74900D03*
X80400Y-76200D03*
X80400Y-73600D03*
X90551Y-81889D03*
X86050Y-70200D03*
X76000Y-71150D03*
X79250Y-66200D03*
X75550Y-65000D03*
X74650Y-66700D03*
X74750Y-70100D03*
X85700Y-76800D03*
X85700Y-82400D03*
X91100Y-65100D03*
X71000Y-60300D03*
X68000Y-81500D03*
X69000Y-82500D03*
X65000Y-82500D03*
X67000Y-82500D03*
X66000Y-81500D03*
G54D14*
X69100Y-68350D03*
X69100Y-67750D03*
X69650Y-68350D03*
X69650Y-67750D03*
G54D15*
X73329Y-78000D03*
X70770Y-78000D03*
G54D12*
X92125Y-55118D03*
X92125Y-83464D03*
X55905Y-83464D03*
G54D16*
X89350Y-75000D03*
X89350Y-80550D03*
X78550Y-57600D03*
X78550Y-56300D03*
X78800Y-56550D03*
X78800Y-56800D03*
X90200Y-63400D03*
X88400Y-80750D03*
X89050Y-80750D03*
X89050Y-75200D03*
X88400Y-75200D03*
X81850Y-69400D03*
X85200Y-69400D03*
X76400Y-70400D03*
X76200Y-70100D03*
X72500Y-60150D03*
X72200Y-59900D03*
X85600Y-66100D03*
X91550Y-70300D03*
X85850Y-66100D03*
X67150Y-78750D03*
X66350Y-73700D03*
X65500Y-67450D03*
X66550Y-68350D03*
X67800Y-69650D03*
X67800Y-69050D03*
X64400Y-71050D03*
X64400Y-71300D03*
X71600Y-75800D03*
X71400Y-76100D03*
X68550Y-75800D03*
X68750Y-76100D03*
X68550Y-79600D03*
X68850Y-79750D03*
X72550Y-82500D03*
X72750Y-82200D03*
X75650Y-78750D03*
X75350Y-78550D03*
X81300Y-81050D03*
X81300Y-80350D03*
X81300Y-75550D03*
X81300Y-74850D03*
X70600Y-69150D03*
X71100Y-69150D03*
X80400Y-69950D03*
X78150Y-63200D03*
X77750Y-62850D03*
X84650Y-65050D03*
X84400Y-65050D03*
X80800Y-70300D03*
X70850Y-69150D03*
X83400Y-82600D03*
X83400Y-81900D03*
X83400Y-77100D03*
X83400Y-76400D03*
X76700Y-66050D03*
X81850Y-70650D03*
X85200Y-70650D03*
X91550Y-67900D03*
X91550Y-68500D03*
X82750Y-62550D03*
X82400Y-62350D03*
X81700Y-62350D03*
X79800Y-64950D03*
X80100Y-64750D03*
X80800Y-64750D03*
X69100Y-68550D03*
X69650Y-68550D03*
X82900Y-82600D03*
X82900Y-81900D03*
X82900Y-77100D03*
X82900Y-76400D03*
X89350Y-74400D03*
X89350Y-79950D03*
X76100Y-66050D03*
X81850Y-68800D03*
X85200Y-68800D03*
X81850Y-71250D03*
X85200Y-71250D03*
X77000Y-70400D03*
X68250Y-66600D03*
X70600Y-67150D03*
X71100Y-67150D03*
X77750Y-57200D03*
X77750Y-57450D03*
X77950Y-56300D03*
X77750Y-56500D03*
X77750Y-56750D03*
X73950Y-56000D03*
X74150Y-55700D03*
X73600Y-58350D03*
X72200Y-59300D03*
X61350Y-61850D03*
X61350Y-61550D03*
X69800Y-62050D03*
X69800Y-61750D03*
X78050Y-58000D03*
X78300Y-57900D03*
X78050Y-58400D03*
X78300Y-58500D03*
X90750Y-70550D03*
X90950Y-70300D03*
X90700Y-68200D03*
X90950Y-68500D03*
X90950Y-67900D03*
X90200Y-64000D03*
X86300Y-65050D03*
X85700Y-65050D03*
X82750Y-63150D03*
X79150Y-62950D03*
X79450Y-63150D03*
X80100Y-65750D03*
X80800Y-65750D03*
X79800Y-65550D03*
X68800Y-69650D03*
X68800Y-69050D03*
X70850Y-67150D03*
X71750Y-69300D03*
X71750Y-67050D03*
X69100Y-67550D03*
X69650Y-67550D03*
X63850Y-67950D03*
X63650Y-68250D03*
X63450Y-71050D03*
X63450Y-71300D03*
X64370Y-78937D03*
X64370Y-75393D03*
X56700Y-72700D03*
X57000Y-72700D03*
X56400Y-72700D03*
X57300Y-72700D03*
X57600Y-72700D03*
X57450Y-75350D03*
X57900Y-75350D03*
X58600Y-79100D03*
X58300Y-75150D03*
X59600Y-74800D03*
X56450Y-77700D03*
X59100Y-80950D03*
X59650Y-80900D03*
X72200Y-75800D03*
X72400Y-76100D03*
X66500Y-78200D03*
X66500Y-77700D03*
X66500Y-77200D03*
X66500Y-76700D03*
X67950Y-75800D03*
X67750Y-76100D03*
X69400Y-77200D03*
X68550Y-79000D03*
X68850Y-78850D03*
X71950Y-80900D03*
X71950Y-82500D03*
X71750Y-82200D03*
X75650Y-79350D03*
X75350Y-79550D03*
X91700Y-69500D03*
X92550Y-70800D03*
X83550Y-79750D03*
X83200Y-79750D03*
X84400Y-82600D03*
X84400Y-81900D03*
X81900Y-82600D03*
X81900Y-81900D03*
X86750Y-80000D03*
X86750Y-80800D03*
X86750Y-80400D03*
X85150Y-79600D03*
X89050Y-79750D03*
X88400Y-79750D03*
X89050Y-74200D03*
X88400Y-74200D03*
X86750Y-74500D03*
X86750Y-75200D03*
X86750Y-74850D03*
X85150Y-74050D03*
X84400Y-77100D03*
X84400Y-76400D03*
X81900Y-77100D03*
X81900Y-76400D03*
X83550Y-74300D03*
X83200Y-74300D03*
X75900Y-66400D03*
X78050Y-66400D03*
X78050Y-65700D03*
X78500Y-70800D03*
X78500Y-70100D03*
X77200Y-70100D03*
X84900Y-68600D03*
X82150Y-68600D03*
X82150Y-71450D03*
X84900Y-71450D03*
X84750Y-69800D03*
X84500Y-66050D03*
X82400Y-63350D03*
X91700Y-66650D03*
X89900Y-64300D03*
X89200Y-64300D03*
X89750Y-60100D03*
X79200Y-56250D03*
X79200Y-56550D03*
X72500Y-59100D03*
X69500Y-62300D03*
X69150Y-62300D03*
X68350Y-62300D03*
X68000Y-62300D03*
X66150Y-62700D03*
X63850Y-62850D03*
X64250Y-62400D03*
X64250Y-61600D03*
X63100Y-62100D03*
X62700Y-62100D03*
X62000Y-62100D03*
X61600Y-62100D03*
X61700Y-57200D03*
X61700Y-57800D03*
X61700Y-57500D03*
X58400Y-76600D03*
X61100Y-77750D03*
X86950Y-67800D03*
X70400Y-79050D03*
X61950Y-81350D03*
X73200Y-82200D03*
X72550Y-80900D03*
X58100Y-78050D03*
X59750Y-76400D03*
X58700Y-76350D03*
X61100Y-76550D03*
X72150Y-77450D03*
X71700Y-77450D03*
X69250Y-78650D03*
X61950Y-79500D03*
G54D17*
X69100Y-68350D02*
X69100Y-68550D01*
X69650Y-68350D02*
X69650Y-68550D01*
X69100Y-67750D02*
X69100Y-67550D01*
X69650Y-67750D02*
X69650Y-67550D01*
G54D18*
X58400Y-76600D02*
X58650Y-76850D01*
X60250Y-76900D02*
X61100Y-77750D01*
X60250Y-76250D02*
X60250Y-76900D01*
X60000Y-76000D02*
X60250Y-76250D01*
X59850Y-76000D02*
X60000Y-76000D01*
X59700Y-76000D02*
X59850Y-76000D01*
X59600Y-76100D02*
X59700Y-76000D01*
X58850Y-76850D02*
X59600Y-76100D01*
X58650Y-76850D02*
X58850Y-76850D01*
X61950Y-81350D02*
X62850Y-80450D01*
X70400Y-79600D02*
X70400Y-79050D01*
X69550Y-80450D02*
X70400Y-79600D01*
X62850Y-80450D02*
X69550Y-80450D01*
X73200Y-82200D02*
X73200Y-81150D01*
X73200Y-81150D02*
X72950Y-80900D01*
X72950Y-80900D02*
X72550Y-80900D01*
X59750Y-76400D02*
X58100Y-78050D01*
X58700Y-76350D02*
X58900Y-76350D01*
X60250Y-75700D02*
X61100Y-76550D01*
X59550Y-75700D02*
X60250Y-75700D01*
X58900Y-76350D02*
X59550Y-75700D01*
X72929Y-77600D02*
X73329Y-78000D01*
X72300Y-77600D02*
X72929Y-77600D01*
X72150Y-77450D02*
X72300Y-77600D01*
X71170Y-77600D02*
X70770Y-78000D01*
X71550Y-77600D02*
X71170Y-77600D01*
X71700Y-77450D02*
X71550Y-77600D01*
X61950Y-79500D02*
X62600Y-80150D01*
X69450Y-78850D02*
X69250Y-78650D01*
X69450Y-79850D02*
X69450Y-78850D01*
X69150Y-80150D02*
X69450Y-79850D01*
X62600Y-80150D02*
X69150Y-80150D01*
G54D10*
G36*
X93060Y-78719D02*
X92880Y-78899D01*
X92880Y-70734D01*
X92829Y-70613D01*
X92737Y-70520D01*
X92615Y-70470D01*
X92484Y-70469D01*
X92363Y-70520D01*
X92270Y-70612D01*
X92220Y-70734D01*
X92219Y-70865D01*
X92270Y-70986D01*
X92362Y-71079D01*
X92484Y-71129D01*
X92615Y-71130D01*
X92736Y-71079D01*
X92829Y-70987D01*
X92879Y-70865D01*
X92880Y-70734D01*
X92880Y-78899D01*
X92030Y-79749D01*
X92030Y-69434D01*
X92030Y-66584D01*
X91979Y-66463D01*
X91887Y-66370D01*
X91765Y-66320D01*
X91673Y-66319D01*
X91673Y-64986D01*
X91673Y-62586D01*
X91586Y-62375D01*
X91425Y-62213D01*
X91214Y-62126D01*
X90986Y-62126D01*
X90775Y-62213D01*
X90613Y-62374D01*
X90526Y-62585D01*
X90526Y-62813D01*
X90613Y-63024D01*
X90774Y-63186D01*
X90985Y-63273D01*
X91213Y-63273D01*
X91424Y-63186D01*
X91586Y-63025D01*
X91673Y-62814D01*
X91673Y-62586D01*
X91673Y-64986D01*
X91586Y-64775D01*
X91425Y-64613D01*
X91214Y-64526D01*
X90986Y-64526D01*
X90775Y-64613D01*
X90613Y-64774D01*
X90530Y-64976D01*
X90530Y-63934D01*
X90479Y-63813D01*
X90387Y-63720D01*
X90265Y-63670D01*
X90134Y-63669D01*
X90080Y-63692D01*
X90080Y-60034D01*
X90029Y-59913D01*
X89937Y-59820D01*
X89815Y-59770D01*
X89684Y-59769D01*
X89563Y-59820D01*
X89470Y-59912D01*
X89420Y-60034D01*
X89419Y-60165D01*
X89470Y-60286D01*
X89562Y-60379D01*
X89684Y-60429D01*
X89815Y-60430D01*
X89936Y-60379D01*
X90029Y-60287D01*
X90079Y-60165D01*
X90080Y-60034D01*
X90080Y-63692D01*
X90013Y-63720D01*
X89920Y-63812D01*
X89870Y-63934D01*
X89870Y-63969D01*
X89834Y-63969D01*
X89713Y-64020D01*
X89620Y-64112D01*
X89570Y-64234D01*
X89569Y-64365D01*
X89620Y-64486D01*
X89712Y-64579D01*
X89834Y-64629D01*
X89965Y-64630D01*
X90086Y-64579D01*
X90179Y-64487D01*
X90229Y-64365D01*
X90229Y-64330D01*
X90265Y-64330D01*
X90386Y-64279D01*
X90479Y-64187D01*
X90529Y-64065D01*
X90530Y-63934D01*
X90530Y-64976D01*
X90526Y-64985D01*
X90526Y-65213D01*
X90613Y-65424D01*
X90774Y-65586D01*
X90985Y-65673D01*
X91213Y-65673D01*
X91424Y-65586D01*
X91586Y-65425D01*
X91673Y-65214D01*
X91673Y-64986D01*
X91673Y-66319D01*
X91634Y-66319D01*
X91513Y-66370D01*
X91420Y-66462D01*
X91370Y-66584D01*
X91369Y-66715D01*
X91420Y-66836D01*
X91512Y-66929D01*
X91634Y-66979D01*
X91765Y-66980D01*
X91886Y-66929D01*
X91979Y-66837D01*
X92029Y-66715D01*
X92030Y-66584D01*
X92030Y-69434D01*
X91979Y-69313D01*
X91887Y-69220D01*
X91880Y-69217D01*
X91880Y-68434D01*
X91829Y-68313D01*
X91737Y-68220D01*
X91688Y-68200D01*
X91736Y-68179D01*
X91829Y-68087D01*
X91879Y-67965D01*
X91880Y-67834D01*
X91829Y-67713D01*
X91737Y-67620D01*
X91615Y-67570D01*
X91484Y-67569D01*
X91363Y-67620D01*
X91270Y-67712D01*
X91250Y-67761D01*
X91229Y-67713D01*
X91137Y-67620D01*
X91015Y-67570D01*
X90884Y-67569D01*
X90763Y-67620D01*
X90670Y-67712D01*
X90620Y-67834D01*
X90620Y-67875D01*
X90513Y-67920D01*
X90420Y-68012D01*
X90370Y-68134D01*
X90369Y-68265D01*
X90420Y-68386D01*
X90512Y-68479D01*
X90619Y-68524D01*
X90619Y-68565D01*
X90670Y-68686D01*
X90762Y-68779D01*
X90884Y-68829D01*
X91015Y-68830D01*
X91136Y-68779D01*
X91229Y-68687D01*
X91249Y-68638D01*
X91270Y-68686D01*
X91362Y-68779D01*
X91484Y-68829D01*
X91615Y-68830D01*
X91736Y-68779D01*
X91829Y-68687D01*
X91879Y-68565D01*
X91880Y-68434D01*
X91880Y-69217D01*
X91765Y-69170D01*
X91634Y-69169D01*
X91513Y-69220D01*
X91420Y-69312D01*
X91370Y-69434D01*
X91369Y-69565D01*
X91420Y-69686D01*
X91512Y-69779D01*
X91634Y-69829D01*
X91765Y-69830D01*
X91886Y-69779D01*
X91979Y-69687D01*
X92029Y-69565D01*
X92030Y-69434D01*
X92030Y-79749D01*
X91880Y-79899D01*
X91880Y-70234D01*
X91829Y-70113D01*
X91737Y-70020D01*
X91615Y-69970D01*
X91484Y-69969D01*
X91363Y-70020D01*
X91270Y-70112D01*
X91250Y-70161D01*
X91229Y-70113D01*
X91137Y-70020D01*
X91015Y-69970D01*
X90884Y-69969D01*
X90763Y-70020D01*
X90670Y-70112D01*
X90620Y-70234D01*
X90620Y-70246D01*
X90563Y-70270D01*
X90470Y-70362D01*
X90420Y-70484D01*
X90419Y-70615D01*
X90470Y-70736D01*
X90562Y-70829D01*
X90684Y-70879D01*
X90815Y-70880D01*
X90936Y-70829D01*
X91029Y-70737D01*
X91079Y-70615D01*
X91079Y-70603D01*
X91136Y-70579D01*
X91229Y-70487D01*
X91249Y-70438D01*
X91270Y-70486D01*
X91362Y-70579D01*
X91484Y-70629D01*
X91615Y-70630D01*
X91736Y-70579D01*
X91829Y-70487D01*
X91879Y-70365D01*
X91880Y-70234D01*
X91880Y-79899D01*
X90501Y-81278D01*
X90501Y-81316D01*
X90437Y-81315D01*
X90226Y-81403D01*
X90065Y-81564D01*
X89977Y-81775D01*
X89977Y-82003D01*
X90064Y-82214D01*
X90225Y-82375D01*
X90436Y-82463D01*
X90501Y-82463D01*
X90501Y-83808D01*
X89530Y-83808D01*
X89530Y-64234D01*
X89479Y-64113D01*
X89387Y-64020D01*
X89265Y-63970D01*
X89223Y-63970D01*
X89223Y-59186D01*
X89136Y-58975D01*
X88975Y-58813D01*
X88764Y-58726D01*
X88536Y-58726D01*
X88325Y-58813D01*
X88163Y-58974D01*
X88076Y-59185D01*
X88076Y-59413D01*
X88163Y-59624D01*
X88324Y-59786D01*
X88535Y-59873D01*
X88763Y-59873D01*
X88974Y-59786D01*
X89136Y-59625D01*
X89223Y-59414D01*
X89223Y-59186D01*
X89223Y-63970D01*
X89134Y-63969D01*
X89013Y-64020D01*
X88920Y-64112D01*
X88870Y-64234D01*
X88869Y-64365D01*
X88920Y-64486D01*
X89012Y-64579D01*
X89134Y-64629D01*
X89265Y-64630D01*
X89386Y-64579D01*
X89479Y-64487D01*
X89529Y-64365D01*
X89530Y-64234D01*
X89530Y-83808D01*
X89380Y-83808D01*
X89380Y-79634D01*
X89380Y-74084D01*
X89329Y-73963D01*
X89237Y-73870D01*
X89115Y-73820D01*
X88984Y-73819D01*
X88863Y-73870D01*
X88770Y-73962D01*
X88724Y-74072D01*
X88679Y-73963D01*
X88587Y-73870D01*
X88465Y-73820D01*
X88334Y-73819D01*
X88213Y-73870D01*
X88173Y-73909D01*
X88173Y-73586D01*
X88086Y-73375D01*
X87925Y-73213D01*
X87714Y-73126D01*
X87486Y-73126D01*
X87275Y-73213D01*
X87113Y-73374D01*
X87026Y-73585D01*
X87026Y-73813D01*
X87113Y-74024D01*
X87274Y-74186D01*
X87485Y-74273D01*
X87713Y-74273D01*
X87924Y-74186D01*
X88086Y-74025D01*
X88173Y-73814D01*
X88173Y-73586D01*
X88173Y-73909D01*
X88120Y-73962D01*
X88070Y-74084D01*
X88069Y-74215D01*
X88120Y-74336D01*
X88212Y-74429D01*
X88334Y-74479D01*
X88465Y-74480D01*
X88586Y-74429D01*
X88679Y-74337D01*
X88725Y-74227D01*
X88770Y-74336D01*
X88862Y-74429D01*
X88984Y-74479D01*
X89115Y-74480D01*
X89236Y-74429D01*
X89329Y-74337D01*
X89379Y-74215D01*
X89380Y-74084D01*
X89380Y-79634D01*
X89329Y-79513D01*
X89237Y-79420D01*
X89115Y-79370D01*
X88984Y-79369D01*
X88863Y-79420D01*
X88770Y-79512D01*
X88724Y-79622D01*
X88679Y-79513D01*
X88587Y-79420D01*
X88465Y-79370D01*
X88334Y-79369D01*
X88213Y-79420D01*
X88173Y-79459D01*
X88173Y-79086D01*
X88086Y-78875D01*
X87925Y-78713D01*
X87923Y-78713D01*
X87923Y-76686D01*
X87836Y-76475D01*
X87675Y-76313D01*
X87464Y-76226D01*
X87236Y-76226D01*
X87080Y-76290D01*
X87080Y-75134D01*
X87034Y-75024D01*
X87079Y-74915D01*
X87080Y-74784D01*
X87034Y-74674D01*
X87079Y-74565D01*
X87080Y-74434D01*
X87029Y-74313D01*
X86937Y-74220D01*
X86815Y-74170D01*
X86684Y-74169D01*
X86563Y-74220D01*
X86470Y-74312D01*
X86420Y-74434D01*
X86419Y-74565D01*
X86465Y-74675D01*
X86420Y-74784D01*
X86419Y-74915D01*
X86465Y-75025D01*
X86420Y-75134D01*
X86419Y-75265D01*
X86470Y-75386D01*
X86562Y-75479D01*
X86684Y-75529D01*
X86815Y-75530D01*
X86936Y-75479D01*
X87029Y-75387D01*
X87079Y-75265D01*
X87080Y-75134D01*
X87080Y-76290D01*
X87025Y-76313D01*
X86863Y-76474D01*
X86776Y-76685D01*
X86776Y-76913D01*
X86863Y-77124D01*
X87024Y-77286D01*
X87235Y-77373D01*
X87463Y-77373D01*
X87674Y-77286D01*
X87836Y-77125D01*
X87923Y-76914D01*
X87923Y-76686D01*
X87923Y-78713D01*
X87714Y-78626D01*
X87486Y-78626D01*
X87275Y-78713D01*
X87113Y-78874D01*
X87026Y-79085D01*
X87026Y-79313D01*
X87113Y-79524D01*
X87274Y-79686D01*
X87485Y-79773D01*
X87713Y-79773D01*
X87924Y-79686D01*
X88086Y-79525D01*
X88173Y-79314D01*
X88173Y-79086D01*
X88173Y-79459D01*
X88120Y-79512D01*
X88070Y-79634D01*
X88069Y-79765D01*
X88120Y-79886D01*
X88212Y-79979D01*
X88334Y-80029D01*
X88465Y-80030D01*
X88586Y-79979D01*
X88679Y-79887D01*
X88725Y-79777D01*
X88770Y-79886D01*
X88862Y-79979D01*
X88984Y-80029D01*
X89115Y-80030D01*
X89236Y-79979D01*
X89329Y-79887D01*
X89379Y-79765D01*
X89380Y-79634D01*
X89380Y-83808D01*
X87923Y-83808D01*
X87923Y-82286D01*
X87836Y-82075D01*
X87675Y-81913D01*
X87464Y-81826D01*
X87236Y-81826D01*
X87080Y-81890D01*
X87080Y-80734D01*
X87029Y-80613D01*
X87016Y-80600D01*
X87029Y-80587D01*
X87079Y-80465D01*
X87080Y-80334D01*
X87029Y-80213D01*
X87016Y-80200D01*
X87029Y-80187D01*
X87079Y-80065D01*
X87080Y-79934D01*
X87029Y-79813D01*
X86937Y-79720D01*
X86815Y-79670D01*
X86684Y-79669D01*
X86563Y-79720D01*
X86470Y-79812D01*
X86420Y-79934D01*
X86419Y-80065D01*
X86470Y-80186D01*
X86483Y-80199D01*
X86470Y-80212D01*
X86420Y-80334D01*
X86419Y-80465D01*
X86470Y-80586D01*
X86483Y-80599D01*
X86470Y-80612D01*
X86420Y-80734D01*
X86419Y-80865D01*
X86470Y-80986D01*
X86562Y-81079D01*
X86684Y-81129D01*
X86815Y-81130D01*
X86936Y-81079D01*
X87029Y-80987D01*
X87079Y-80865D01*
X87080Y-80734D01*
X87080Y-81890D01*
X87025Y-81913D01*
X86863Y-82074D01*
X86776Y-82285D01*
X86776Y-82513D01*
X86863Y-82724D01*
X87024Y-82886D01*
X87235Y-82973D01*
X87463Y-82973D01*
X87674Y-82886D01*
X87836Y-82725D01*
X87923Y-82514D01*
X87923Y-82286D01*
X87923Y-83808D01*
X86273Y-83808D01*
X86273Y-82286D01*
X86273Y-76686D01*
X86186Y-76475D01*
X86025Y-76313D01*
X85814Y-76226D01*
X85586Y-76226D01*
X85375Y-76313D01*
X85213Y-76474D01*
X85126Y-76685D01*
X85126Y-76913D01*
X85213Y-77124D01*
X85374Y-77286D01*
X85585Y-77373D01*
X85813Y-77373D01*
X86024Y-77286D01*
X86186Y-77125D01*
X86273Y-76914D01*
X86273Y-76686D01*
X86273Y-82286D01*
X86186Y-82075D01*
X86025Y-81913D01*
X85814Y-81826D01*
X85586Y-81826D01*
X85375Y-81913D01*
X85213Y-82074D01*
X85126Y-82285D01*
X85126Y-82513D01*
X85213Y-82724D01*
X85374Y-82886D01*
X85585Y-82973D01*
X85813Y-82973D01*
X86024Y-82886D01*
X86186Y-82725D01*
X86273Y-82514D01*
X86273Y-82286D01*
X86273Y-83808D01*
X85089Y-83808D01*
X85089Y-79879D01*
X85215Y-79880D01*
X85336Y-79829D01*
X85429Y-79737D01*
X85479Y-79615D01*
X85480Y-79484D01*
X85429Y-79363D01*
X85337Y-79270D01*
X85215Y-79220D01*
X85089Y-79219D01*
X85089Y-74329D01*
X85215Y-74330D01*
X85336Y-74279D01*
X85429Y-74187D01*
X85479Y-74065D01*
X85480Y-73934D01*
X85429Y-73813D01*
X85337Y-73720D01*
X85215Y-73670D01*
X85089Y-73669D01*
X85089Y-72884D01*
X87845Y-72884D01*
X87845Y-71715D01*
X87985Y-71773D01*
X88213Y-71773D01*
X88424Y-71686D01*
X88586Y-71525D01*
X88673Y-71314D01*
X88673Y-71086D01*
X88586Y-70875D01*
X88425Y-70713D01*
X88214Y-70626D01*
X87986Y-70626D01*
X87845Y-70684D01*
X87845Y-70415D01*
X87985Y-70473D01*
X88213Y-70473D01*
X88424Y-70386D01*
X88586Y-70225D01*
X88673Y-70014D01*
X88673Y-69786D01*
X88586Y-69575D01*
X88425Y-69413D01*
X88214Y-69326D01*
X87986Y-69326D01*
X87845Y-69384D01*
X87845Y-69115D01*
X87985Y-69173D01*
X88213Y-69173D01*
X88424Y-69086D01*
X88586Y-68925D01*
X88673Y-68714D01*
X88673Y-68486D01*
X88586Y-68275D01*
X88425Y-68113D01*
X88214Y-68026D01*
X87986Y-68026D01*
X87845Y-68084D01*
X87845Y-67815D01*
X87985Y-67873D01*
X88213Y-67873D01*
X88424Y-67786D01*
X88586Y-67625D01*
X88673Y-67414D01*
X88673Y-67186D01*
X88586Y-66975D01*
X88425Y-66813D01*
X88214Y-66726D01*
X87986Y-66726D01*
X87845Y-66784D01*
X87845Y-63323D01*
X87913Y-63323D01*
X88124Y-63236D01*
X88286Y-63075D01*
X88373Y-62864D01*
X88373Y-62636D01*
X88286Y-62425D01*
X88125Y-62263D01*
X87914Y-62176D01*
X87845Y-62176D01*
X87845Y-60776D01*
X87384Y-60776D01*
X87384Y-57169D01*
X87297Y-56958D01*
X87136Y-56797D01*
X86925Y-56709D01*
X86697Y-56709D01*
X86486Y-56796D01*
X86324Y-56958D01*
X86237Y-57168D01*
X86237Y-57397D01*
X86324Y-57608D01*
X86485Y-57769D01*
X86696Y-57857D01*
X86924Y-57857D01*
X87135Y-57770D01*
X87297Y-57608D01*
X87384Y-57398D01*
X87384Y-57169D01*
X87384Y-60776D01*
X79530Y-60776D01*
X79530Y-56484D01*
X79495Y-56399D01*
X79529Y-56315D01*
X79530Y-56184D01*
X79479Y-56063D01*
X79387Y-55970D01*
X79265Y-55920D01*
X79134Y-55919D01*
X79013Y-55970D01*
X78920Y-56062D01*
X78870Y-56184D01*
X78869Y-56315D01*
X78904Y-56400D01*
X78870Y-56484D01*
X78869Y-56615D01*
X78920Y-56736D01*
X79012Y-56829D01*
X79134Y-56879D01*
X79265Y-56880D01*
X79386Y-56829D01*
X79479Y-56737D01*
X79529Y-56615D01*
X79530Y-56484D01*
X79530Y-60776D01*
X78630Y-60776D01*
X78630Y-58434D01*
X78579Y-58313D01*
X78487Y-58220D01*
X78438Y-58200D01*
X78486Y-58179D01*
X78579Y-58087D01*
X78629Y-57965D01*
X78630Y-57834D01*
X78579Y-57713D01*
X78487Y-57620D01*
X78365Y-57570D01*
X78234Y-57569D01*
X78113Y-57620D01*
X78063Y-57670D01*
X77996Y-57669D01*
X78029Y-57637D01*
X78079Y-57515D01*
X78080Y-57384D01*
X78055Y-57325D01*
X78079Y-57265D01*
X78080Y-57134D01*
X78029Y-57013D01*
X77991Y-56975D01*
X78029Y-56937D01*
X78079Y-56815D01*
X78080Y-56684D01*
X78055Y-56625D01*
X78061Y-56611D01*
X78136Y-56579D01*
X78229Y-56487D01*
X78279Y-56365D01*
X78280Y-56234D01*
X78229Y-56113D01*
X78137Y-56020D01*
X78015Y-55970D01*
X77884Y-55969D01*
X77763Y-56020D01*
X77670Y-56112D01*
X77638Y-56188D01*
X77563Y-56220D01*
X77470Y-56312D01*
X77420Y-56434D01*
X77419Y-56565D01*
X77444Y-56624D01*
X77420Y-56684D01*
X77419Y-56815D01*
X77470Y-56936D01*
X77508Y-56974D01*
X77470Y-57012D01*
X77420Y-57134D01*
X77419Y-57265D01*
X77444Y-57324D01*
X77420Y-57384D01*
X77419Y-57515D01*
X77470Y-57636D01*
X77562Y-57729D01*
X77684Y-57779D01*
X77803Y-57780D01*
X77770Y-57812D01*
X77720Y-57934D01*
X77719Y-58065D01*
X77770Y-58186D01*
X77783Y-58199D01*
X77770Y-58212D01*
X77720Y-58334D01*
X77719Y-58465D01*
X77770Y-58586D01*
X77862Y-58679D01*
X77984Y-58729D01*
X78063Y-58730D01*
X78112Y-58779D01*
X78234Y-58829D01*
X78365Y-58830D01*
X78486Y-58779D01*
X78579Y-58687D01*
X78629Y-58565D01*
X78630Y-58434D01*
X78630Y-60776D01*
X77412Y-60776D01*
X77412Y-53987D01*
X88365Y-53987D01*
X93060Y-58682D01*
X93060Y-78719D01*
X93060Y-78719D01*
G37*
G54D19*
X93060Y-78719D02*
X92880Y-78899D01*
X92880Y-70734D01*
X92829Y-70613D01*
X92737Y-70520D01*
X92615Y-70470D01*
X92484Y-70469D01*
X92363Y-70520D01*
X92270Y-70612D01*
X92220Y-70734D01*
X92219Y-70865D01*
X92270Y-70986D01*
X92362Y-71079D01*
X92484Y-71129D01*
X92615Y-71130D01*
X92736Y-71079D01*
X92829Y-70987D01*
X92879Y-70865D01*
X92880Y-70734D01*
X92880Y-78899D01*
X92030Y-79749D01*
X92030Y-69434D01*
X92030Y-66584D01*
X91979Y-66463D01*
X91887Y-66370D01*
X91765Y-66320D01*
X91673Y-66319D01*
X91673Y-64986D01*
X91673Y-62586D01*
X91586Y-62375D01*
X91425Y-62213D01*
X91214Y-62126D01*
X90986Y-62126D01*
X90775Y-62213D01*
X90613Y-62374D01*
X90526Y-62585D01*
X90526Y-62813D01*
X90613Y-63024D01*
X90774Y-63186D01*
X90985Y-63273D01*
X91213Y-63273D01*
X91424Y-63186D01*
X91586Y-63025D01*
X91673Y-62814D01*
X91673Y-62586D01*
X91673Y-64986D01*
X91586Y-64775D01*
X91425Y-64613D01*
X91214Y-64526D01*
X90986Y-64526D01*
X90775Y-64613D01*
X90613Y-64774D01*
X90530Y-64976D01*
X90530Y-63934D01*
X90479Y-63813D01*
X90387Y-63720D01*
X90265Y-63670D01*
X90134Y-63669D01*
X90080Y-63692D01*
X90080Y-60034D01*
X90029Y-59913D01*
X89937Y-59820D01*
X89815Y-59770D01*
X89684Y-59769D01*
X89563Y-59820D01*
X89470Y-59912D01*
X89420Y-60034D01*
X89419Y-60165D01*
X89470Y-60286D01*
X89562Y-60379D01*
X89684Y-60429D01*
X89815Y-60430D01*
X89936Y-60379D01*
X90029Y-60287D01*
X90079Y-60165D01*
X90080Y-60034D01*
X90080Y-63692D01*
X90013Y-63720D01*
X89920Y-63812D01*
X89870Y-63934D01*
X89870Y-63969D01*
X89834Y-63969D01*
X89713Y-64020D01*
X89620Y-64112D01*
X89570Y-64234D01*
X89569Y-64365D01*
X89620Y-64486D01*
X89712Y-64579D01*
X89834Y-64629D01*
X89965Y-64630D01*
X90086Y-64579D01*
X90179Y-64487D01*
X90229Y-64365D01*
X90229Y-64330D01*
X90265Y-64330D01*
X90386Y-64279D01*
X90479Y-64187D01*
X90529Y-64065D01*
X90530Y-63934D01*
X90530Y-64976D01*
X90526Y-64985D01*
X90526Y-65213D01*
X90613Y-65424D01*
X90774Y-65586D01*
X90985Y-65673D01*
X91213Y-65673D01*
X91424Y-65586D01*
X91586Y-65425D01*
X91673Y-65214D01*
X91673Y-64986D01*
X91673Y-66319D01*
X91634Y-66319D01*
X91513Y-66370D01*
X91420Y-66462D01*
X91370Y-66584D01*
X91369Y-66715D01*
X91420Y-66836D01*
X91512Y-66929D01*
X91634Y-66979D01*
X91765Y-66980D01*
X91886Y-66929D01*
X91979Y-66837D01*
X92029Y-66715D01*
X92030Y-66584D01*
X92030Y-69434D01*
X91979Y-69313D01*
X91887Y-69220D01*
X91880Y-69217D01*
X91880Y-68434D01*
X91829Y-68313D01*
X91737Y-68220D01*
X91688Y-68200D01*
X91736Y-68179D01*
X91829Y-68087D01*
X91879Y-67965D01*
X91880Y-67834D01*
X91829Y-67713D01*
X91737Y-67620D01*
X91615Y-67570D01*
X91484Y-67569D01*
X91363Y-67620D01*
X91270Y-67712D01*
X91250Y-67761D01*
X91229Y-67713D01*
X91137Y-67620D01*
X91015Y-67570D01*
X90884Y-67569D01*
X90763Y-67620D01*
X90670Y-67712D01*
X90620Y-67834D01*
X90620Y-67875D01*
X90513Y-67920D01*
X90420Y-68012D01*
X90370Y-68134D01*
X90369Y-68265D01*
X90420Y-68386D01*
X90512Y-68479D01*
X90619Y-68524D01*
X90619Y-68565D01*
X90670Y-68686D01*
X90762Y-68779D01*
X90884Y-68829D01*
X91015Y-68830D01*
X91136Y-68779D01*
X91229Y-68687D01*
X91249Y-68638D01*
X91270Y-68686D01*
X91362Y-68779D01*
X91484Y-68829D01*
X91615Y-68830D01*
X91736Y-68779D01*
X91829Y-68687D01*
X91879Y-68565D01*
X91880Y-68434D01*
X91880Y-69217D01*
X91765Y-69170D01*
X91634Y-69169D01*
X91513Y-69220D01*
X91420Y-69312D01*
X91370Y-69434D01*
X91369Y-69565D01*
X91420Y-69686D01*
X91512Y-69779D01*
X91634Y-69829D01*
X91765Y-69830D01*
X91886Y-69779D01*
X91979Y-69687D01*
X92029Y-69565D01*
X92030Y-69434D01*
X92030Y-79749D01*
X91880Y-79899D01*
X91880Y-70234D01*
X91829Y-70113D01*
X91737Y-70020D01*
X91615Y-69970D01*
X91484Y-69969D01*
X91363Y-70020D01*
X91270Y-70112D01*
X91250Y-70161D01*
X91229Y-70113D01*
X91137Y-70020D01*
X91015Y-69970D01*
X90884Y-69969D01*
X90763Y-70020D01*
X90670Y-70112D01*
X90620Y-70234D01*
X90620Y-70246D01*
X90563Y-70270D01*
X90470Y-70362D01*
X90420Y-70484D01*
X90419Y-70615D01*
X90470Y-70736D01*
X90562Y-70829D01*
X90684Y-70879D01*
X90815Y-70880D01*
X90936Y-70829D01*
X91029Y-70737D01*
X91079Y-70615D01*
X91079Y-70603D01*
X91136Y-70579D01*
X91229Y-70487D01*
X91249Y-70438D01*
X91270Y-70486D01*
X91362Y-70579D01*
X91484Y-70629D01*
X91615Y-70630D01*
X91736Y-70579D01*
X91829Y-70487D01*
X91879Y-70365D01*
X91880Y-70234D01*
X91880Y-79899D01*
X90501Y-81278D01*
X90501Y-81316D01*
X90437Y-81315D01*
X90226Y-81403D01*
X90065Y-81564D01*
X89977Y-81775D01*
X89977Y-82003D01*
X90064Y-82214D01*
X90225Y-82375D01*
X90436Y-82463D01*
X90501Y-82463D01*
X90501Y-83808D01*
X89530Y-83808D01*
X89530Y-64234D01*
X89479Y-64113D01*
X89387Y-64020D01*
X89265Y-63970D01*
X89223Y-63970D01*
X89223Y-59186D01*
X89136Y-58975D01*
X88975Y-58813D01*
X88764Y-58726D01*
X88536Y-58726D01*
X88325Y-58813D01*
X88163Y-58974D01*
X88076Y-59185D01*
X88076Y-59413D01*
X88163Y-59624D01*
X88324Y-59786D01*
X88535Y-59873D01*
X88763Y-59873D01*
X88974Y-59786D01*
X89136Y-59625D01*
X89223Y-59414D01*
X89223Y-59186D01*
X89223Y-63970D01*
X89134Y-63969D01*
X89013Y-64020D01*
X88920Y-64112D01*
X88870Y-64234D01*
X88869Y-64365D01*
X88920Y-64486D01*
X89012Y-64579D01*
X89134Y-64629D01*
X89265Y-64630D01*
X89386Y-64579D01*
X89479Y-64487D01*
X89529Y-64365D01*
X89530Y-64234D01*
X89530Y-83808D01*
X89380Y-83808D01*
X89380Y-79634D01*
X89380Y-74084D01*
X89329Y-73963D01*
X89237Y-73870D01*
X89115Y-73820D01*
X88984Y-73819D01*
X88863Y-73870D01*
X88770Y-73962D01*
X88724Y-74072D01*
X88679Y-73963D01*
X88587Y-73870D01*
X88465Y-73820D01*
X88334Y-73819D01*
X88213Y-73870D01*
X88173Y-73909D01*
X88173Y-73586D01*
X88086Y-73375D01*
X87925Y-73213D01*
X87714Y-73126D01*
X87486Y-73126D01*
X87275Y-73213D01*
X87113Y-73374D01*
X87026Y-73585D01*
X87026Y-73813D01*
X87113Y-74024D01*
X87274Y-74186D01*
X87485Y-74273D01*
X87713Y-74273D01*
X87924Y-74186D01*
X88086Y-74025D01*
X88173Y-73814D01*
X88173Y-73586D01*
X88173Y-73909D01*
X88120Y-73962D01*
X88070Y-74084D01*
X88069Y-74215D01*
X88120Y-74336D01*
X88212Y-74429D01*
X88334Y-74479D01*
X88465Y-74480D01*
X88586Y-74429D01*
X88679Y-74337D01*
X88725Y-74227D01*
X88770Y-74336D01*
X88862Y-74429D01*
X88984Y-74479D01*
X89115Y-74480D01*
X89236Y-74429D01*
X89329Y-74337D01*
X89379Y-74215D01*
X89380Y-74084D01*
X89380Y-79634D01*
X89329Y-79513D01*
X89237Y-79420D01*
X89115Y-79370D01*
X88984Y-79369D01*
X88863Y-79420D01*
X88770Y-79512D01*
X88724Y-79622D01*
X88679Y-79513D01*
X88587Y-79420D01*
X88465Y-79370D01*
X88334Y-79369D01*
X88213Y-79420D01*
X88173Y-79459D01*
X88173Y-79086D01*
X88086Y-78875D01*
X87925Y-78713D01*
X87923Y-78713D01*
X87923Y-76686D01*
X87836Y-76475D01*
X87675Y-76313D01*
X87464Y-76226D01*
X87236Y-76226D01*
X87080Y-76290D01*
X87080Y-75134D01*
X87034Y-75024D01*
X87079Y-74915D01*
X87080Y-74784D01*
X87034Y-74674D01*
X87079Y-74565D01*
X87080Y-74434D01*
X87029Y-74313D01*
X86937Y-74220D01*
X86815Y-74170D01*
X86684Y-74169D01*
X86563Y-74220D01*
X86470Y-74312D01*
X86420Y-74434D01*
X86419Y-74565D01*
X86465Y-74675D01*
X86420Y-74784D01*
X86419Y-74915D01*
X86465Y-75025D01*
X86420Y-75134D01*
X86419Y-75265D01*
X86470Y-75386D01*
X86562Y-75479D01*
X86684Y-75529D01*
X86815Y-75530D01*
X86936Y-75479D01*
X87029Y-75387D01*
X87079Y-75265D01*
X87080Y-75134D01*
X87080Y-76290D01*
X87025Y-76313D01*
X86863Y-76474D01*
X86776Y-76685D01*
X86776Y-76913D01*
X86863Y-77124D01*
X87024Y-77286D01*
X87235Y-77373D01*
X87463Y-77373D01*
X87674Y-77286D01*
X87836Y-77125D01*
X87923Y-76914D01*
X87923Y-76686D01*
X87923Y-78713D01*
X87714Y-78626D01*
X87486Y-78626D01*
X87275Y-78713D01*
X87113Y-78874D01*
X87026Y-79085D01*
X87026Y-79313D01*
X87113Y-79524D01*
X87274Y-79686D01*
X87485Y-79773D01*
X87713Y-79773D01*
X87924Y-79686D01*
X88086Y-79525D01*
X88173Y-79314D01*
X88173Y-79086D01*
X88173Y-79459D01*
X88120Y-79512D01*
X88070Y-79634D01*
X88069Y-79765D01*
X88120Y-79886D01*
X88212Y-79979D01*
X88334Y-80029D01*
X88465Y-80030D01*
X88586Y-79979D01*
X88679Y-79887D01*
X88725Y-79777D01*
X88770Y-79886D01*
X88862Y-79979D01*
X88984Y-80029D01*
X89115Y-80030D01*
X89236Y-79979D01*
X89329Y-79887D01*
X89379Y-79765D01*
X89380Y-79634D01*
X89380Y-83808D01*
X87923Y-83808D01*
X87923Y-82286D01*
X87836Y-82075D01*
X87675Y-81913D01*
X87464Y-81826D01*
X87236Y-81826D01*
X87080Y-81890D01*
X87080Y-80734D01*
X87029Y-80613D01*
X87016Y-80600D01*
X87029Y-80587D01*
X87079Y-80465D01*
X87080Y-80334D01*
X87029Y-80213D01*
X87016Y-80200D01*
X87029Y-80187D01*
X87079Y-80065D01*
X87080Y-79934D01*
X87029Y-79813D01*
X86937Y-79720D01*
X86815Y-79670D01*
X86684Y-79669D01*
X86563Y-79720D01*
X86470Y-79812D01*
X86420Y-79934D01*
X86419Y-80065D01*
X86470Y-80186D01*
X86483Y-80199D01*
X86470Y-80212D01*
X86420Y-80334D01*
X86419Y-80465D01*
X86470Y-80586D01*
X86483Y-80599D01*
X86470Y-80612D01*
X86420Y-80734D01*
X86419Y-80865D01*
X86470Y-80986D01*
X86562Y-81079D01*
X86684Y-81129D01*
X86815Y-81130D01*
X86936Y-81079D01*
X87029Y-80987D01*
X87079Y-80865D01*
X87080Y-80734D01*
X87080Y-81890D01*
X87025Y-81913D01*
X86863Y-82074D01*
X86776Y-82285D01*
X86776Y-82513D01*
X86863Y-82724D01*
X87024Y-82886D01*
X87235Y-82973D01*
X87463Y-82973D01*
X87674Y-82886D01*
X87836Y-82725D01*
X87923Y-82514D01*
X87923Y-82286D01*
X87923Y-83808D01*
X86273Y-83808D01*
X86273Y-82286D01*
X86273Y-76686D01*
X86186Y-76475D01*
X86025Y-76313D01*
X85814Y-76226D01*
X85586Y-76226D01*
X85375Y-76313D01*
X85213Y-76474D01*
X85126Y-76685D01*
X85126Y-76913D01*
X85213Y-77124D01*
X85374Y-77286D01*
X85585Y-77373D01*
X85813Y-77373D01*
X86024Y-77286D01*
X86186Y-77125D01*
X86273Y-76914D01*
X86273Y-76686D01*
X86273Y-82286D01*
X86186Y-82075D01*
X86025Y-81913D01*
X85814Y-81826D01*
X85586Y-81826D01*
X85375Y-81913D01*
X85213Y-82074D01*
X85126Y-82285D01*
X85126Y-82513D01*
X85213Y-82724D01*
X85374Y-82886D01*
X85585Y-82973D01*
X85813Y-82973D01*
X86024Y-82886D01*
X86186Y-82725D01*
X86273Y-82514D01*
X86273Y-82286D01*
X86273Y-83808D01*
X85089Y-83808D01*
X85089Y-79879D01*
X85215Y-79880D01*
X85336Y-79829D01*
X85429Y-79737D01*
X85479Y-79615D01*
X85480Y-79484D01*
X85429Y-79363D01*
X85337Y-79270D01*
X85215Y-79220D01*
X85089Y-79219D01*
X85089Y-74329D01*
X85215Y-74330D01*
X85336Y-74279D01*
X85429Y-74187D01*
X85479Y-74065D01*
X85480Y-73934D01*
X85429Y-73813D01*
X85337Y-73720D01*
X85215Y-73670D01*
X85089Y-73669D01*
X85089Y-72884D01*
X87845Y-72884D01*
X87845Y-71715D01*
X87985Y-71773D01*
X88213Y-71773D01*
X88424Y-71686D01*
X88586Y-71525D01*
X88673Y-71314D01*
X88673Y-71086D01*
X88586Y-70875D01*
X88425Y-70713D01*
X88214Y-70626D01*
X87986Y-70626D01*
X87845Y-70684D01*
X87845Y-70415D01*
X87985Y-70473D01*
X88213Y-70473D01*
X88424Y-70386D01*
X88586Y-70225D01*
X88673Y-70014D01*
X88673Y-69786D01*
X88586Y-69575D01*
X88425Y-69413D01*
X88214Y-69326D01*
X87986Y-69326D01*
X87845Y-69384D01*
X87845Y-69115D01*
X87985Y-69173D01*
X88213Y-69173D01*
X88424Y-69086D01*
X88586Y-68925D01*
X88673Y-68714D01*
X88673Y-68486D01*
X88586Y-68275D01*
X88425Y-68113D01*
X88214Y-68026D01*
X87986Y-68026D01*
X87845Y-68084D01*
X87845Y-67815D01*
X87985Y-67873D01*
X88213Y-67873D01*
X88424Y-67786D01*
X88586Y-67625D01*
X88673Y-67414D01*
X88673Y-67186D01*
X88586Y-66975D01*
X88425Y-66813D01*
X88214Y-66726D01*
X87986Y-66726D01*
X87845Y-66784D01*
X87845Y-63323D01*
X87913Y-63323D01*
X88124Y-63236D01*
X88286Y-63075D01*
X88373Y-62864D01*
X88373Y-62636D01*
X88286Y-62425D01*
X88125Y-62263D01*
X87914Y-62176D01*
X87845Y-62176D01*
X87845Y-60776D01*
X87384Y-60776D01*
X87384Y-57169D01*
X87297Y-56958D01*
X87136Y-56797D01*
X86925Y-56709D01*
X86697Y-56709D01*
X86486Y-56796D01*
X86324Y-56958D01*
X86237Y-57168D01*
X86237Y-57397D01*
X86324Y-57608D01*
X86485Y-57769D01*
X86696Y-57857D01*
X86924Y-57857D01*
X87135Y-57770D01*
X87297Y-57608D01*
X87384Y-57398D01*
X87384Y-57169D01*
X87384Y-60776D01*
X79530Y-60776D01*
X79530Y-56484D01*
X79495Y-56399D01*
X79529Y-56315D01*
X79530Y-56184D01*
X79479Y-56063D01*
X79387Y-55970D01*
X79265Y-55920D01*
X79134Y-55919D01*
X79013Y-55970D01*
X78920Y-56062D01*
X78870Y-56184D01*
X78869Y-56315D01*
X78904Y-56400D01*
X78870Y-56484D01*
X78869Y-56615D01*
X78920Y-56736D01*
X79012Y-56829D01*
X79134Y-56879D01*
X79265Y-56880D01*
X79386Y-56829D01*
X79479Y-56737D01*
X79529Y-56615D01*
X79530Y-56484D01*
X79530Y-60776D01*
X78630Y-60776D01*
X78630Y-58434D01*
X78579Y-58313D01*
X78487Y-58220D01*
X78438Y-58200D01*
X78486Y-58179D01*
X78579Y-58087D01*
X78629Y-57965D01*
X78630Y-57834D01*
X78579Y-57713D01*
X78487Y-57620D01*
X78365Y-57570D01*
X78234Y-57569D01*
X78113Y-57620D01*
X78063Y-57670D01*
X77996Y-57669D01*
X78029Y-57637D01*
X78079Y-57515D01*
X78080Y-57384D01*
X78055Y-57325D01*
X78079Y-57265D01*
X78080Y-57134D01*
X78029Y-57013D01*
X77991Y-56975D01*
X78029Y-56937D01*
X78079Y-56815D01*
X78080Y-56684D01*
X78055Y-56625D01*
X78061Y-56611D01*
X78136Y-56579D01*
X78229Y-56487D01*
X78279Y-56365D01*
X78280Y-56234D01*
X78229Y-56113D01*
X78137Y-56020D01*
X78015Y-55970D01*
X77884Y-55969D01*
X77763Y-56020D01*
X77670Y-56112D01*
X77638Y-56188D01*
X77563Y-56220D01*
X77470Y-56312D01*
X77420Y-56434D01*
X77419Y-56565D01*
X77444Y-56624D01*
X77420Y-56684D01*
X77419Y-56815D01*
X77470Y-56936D01*
X77508Y-56974D01*
X77470Y-57012D01*
X77420Y-57134D01*
X77419Y-57265D01*
X77444Y-57324D01*
X77420Y-57384D01*
X77419Y-57515D01*
X77470Y-57636D01*
X77562Y-57729D01*
X77684Y-57779D01*
X77803Y-57780D01*
X77770Y-57812D01*
X77720Y-57934D01*
X77719Y-58065D01*
X77770Y-58186D01*
X77783Y-58199D01*
X77770Y-58212D01*
X77720Y-58334D01*
X77719Y-58465D01*
X77770Y-58586D01*
X77862Y-58679D01*
X77984Y-58729D01*
X78063Y-58730D01*
X78112Y-58779D01*
X78234Y-58829D01*
X78365Y-58830D01*
X78486Y-58779D01*
X78579Y-58687D01*
X78629Y-58565D01*
X78630Y-58434D01*
X78630Y-60776D01*
X77412Y-60776D01*
X77412Y-53987D01*
X88365Y-53987D01*
X93060Y-58682D01*
X93060Y-78719D01*
G54D10*
G36*
X86170Y-72390D02*
X85530Y-72390D01*
X85530Y-71184D01*
X85479Y-71063D01*
X85387Y-70970D01*
X85338Y-70950D01*
X85386Y-70929D01*
X85479Y-70837D01*
X85529Y-70715D01*
X85530Y-70584D01*
X85479Y-70463D01*
X85387Y-70370D01*
X85265Y-70320D01*
X85134Y-70319D01*
X85013Y-70370D01*
X84920Y-70462D01*
X84870Y-70584D01*
X84869Y-70715D01*
X84920Y-70836D01*
X85012Y-70929D01*
X85061Y-70949D01*
X85013Y-70970D01*
X84920Y-71062D01*
X84896Y-71119D01*
X84834Y-71119D01*
X84713Y-71170D01*
X84620Y-71262D01*
X84570Y-71384D01*
X84569Y-71515D01*
X84620Y-71636D01*
X84712Y-71729D01*
X84834Y-71779D01*
X84965Y-71780D01*
X85086Y-71729D01*
X85179Y-71637D01*
X85203Y-71580D01*
X85265Y-71580D01*
X85386Y-71529D01*
X85479Y-71437D01*
X85529Y-71315D01*
X85530Y-71184D01*
X85530Y-72390D01*
X84595Y-72390D01*
X84595Y-76082D01*
X84565Y-76070D01*
X84434Y-76069D01*
X84313Y-76120D01*
X84220Y-76212D01*
X84170Y-76334D01*
X84169Y-76465D01*
X84220Y-76586D01*
X84312Y-76679D01*
X84434Y-76729D01*
X84565Y-76730D01*
X84595Y-76717D01*
X84595Y-76782D01*
X84565Y-76770D01*
X84434Y-76769D01*
X84313Y-76820D01*
X84220Y-76912D01*
X84170Y-77034D01*
X84169Y-77165D01*
X84220Y-77286D01*
X84312Y-77379D01*
X84434Y-77429D01*
X84565Y-77430D01*
X84595Y-77417D01*
X84595Y-81603D01*
X84515Y-81570D01*
X84384Y-81569D01*
X84263Y-81620D01*
X84170Y-81712D01*
X84120Y-81834D01*
X84119Y-81965D01*
X84170Y-82086D01*
X84262Y-82179D01*
X84384Y-82229D01*
X84515Y-82230D01*
X84595Y-82196D01*
X84595Y-82303D01*
X84515Y-82270D01*
X84384Y-82269D01*
X84263Y-82320D01*
X84170Y-82412D01*
X84120Y-82534D01*
X84119Y-82665D01*
X84170Y-82786D01*
X84262Y-82879D01*
X84384Y-82929D01*
X84515Y-82930D01*
X84595Y-82896D01*
X84595Y-83808D01*
X83880Y-83808D01*
X83880Y-79684D01*
X83880Y-74234D01*
X83829Y-74113D01*
X83737Y-74020D01*
X83615Y-73970D01*
X83484Y-73969D01*
X83374Y-74015D01*
X83265Y-73970D01*
X83134Y-73969D01*
X83013Y-74020D01*
X82920Y-74112D01*
X82870Y-74234D01*
X82869Y-74365D01*
X82920Y-74486D01*
X83012Y-74579D01*
X83134Y-74629D01*
X83265Y-74630D01*
X83375Y-74584D01*
X83484Y-74629D01*
X83615Y-74630D01*
X83736Y-74579D01*
X83829Y-74487D01*
X83879Y-74365D01*
X83880Y-74234D01*
X83880Y-79684D01*
X83829Y-79563D01*
X83737Y-79470D01*
X83615Y-79420D01*
X83484Y-79419D01*
X83374Y-79465D01*
X83280Y-79425D01*
X83280Y-77034D01*
X83280Y-76334D01*
X83229Y-76213D01*
X83137Y-76120D01*
X83015Y-76070D01*
X82884Y-76069D01*
X82763Y-76120D01*
X82670Y-76212D01*
X82620Y-76334D01*
X82619Y-76465D01*
X82670Y-76586D01*
X82762Y-76679D01*
X82884Y-76729D01*
X83015Y-76730D01*
X83136Y-76679D01*
X83229Y-76587D01*
X83279Y-76465D01*
X83280Y-76334D01*
X83280Y-77034D01*
X83229Y-76913D01*
X83137Y-76820D01*
X83015Y-76770D01*
X82884Y-76769D01*
X82763Y-76820D01*
X82670Y-76912D01*
X82620Y-77034D01*
X82619Y-77165D01*
X82670Y-77286D01*
X82762Y-77379D01*
X82884Y-77429D01*
X83015Y-77430D01*
X83136Y-77379D01*
X83229Y-77287D01*
X83279Y-77165D01*
X83280Y-77034D01*
X83280Y-79425D01*
X83265Y-79420D01*
X83134Y-79419D01*
X83013Y-79470D01*
X82920Y-79562D01*
X82870Y-79684D01*
X82869Y-79815D01*
X82920Y-79936D01*
X83012Y-80029D01*
X83134Y-80079D01*
X83265Y-80080D01*
X83375Y-80034D01*
X83484Y-80079D01*
X83615Y-80080D01*
X83736Y-80029D01*
X83829Y-79937D01*
X83879Y-79815D01*
X83880Y-79684D01*
X83880Y-83808D01*
X83280Y-83808D01*
X83280Y-82534D01*
X83280Y-81834D01*
X83229Y-81713D01*
X83137Y-81620D01*
X83015Y-81570D01*
X82884Y-81569D01*
X82763Y-81620D01*
X82670Y-81712D01*
X82620Y-81834D01*
X82619Y-81965D01*
X82670Y-82086D01*
X82762Y-82179D01*
X82884Y-82229D01*
X83015Y-82230D01*
X83136Y-82179D01*
X83229Y-82087D01*
X83279Y-81965D01*
X83280Y-81834D01*
X83280Y-82534D01*
X83229Y-82413D01*
X83137Y-82320D01*
X83015Y-82270D01*
X82884Y-82269D01*
X82763Y-82320D01*
X82670Y-82412D01*
X82620Y-82534D01*
X82619Y-82665D01*
X82670Y-82786D01*
X82762Y-82879D01*
X82884Y-82929D01*
X83015Y-82930D01*
X83136Y-82879D01*
X83229Y-82787D01*
X83279Y-82665D01*
X83280Y-82534D01*
X83280Y-83808D01*
X82480Y-83808D01*
X82480Y-71384D01*
X82480Y-68534D01*
X82429Y-68413D01*
X82337Y-68320D01*
X82215Y-68270D01*
X82084Y-68269D01*
X81963Y-68320D01*
X81870Y-68412D01*
X81846Y-68469D01*
X81784Y-68469D01*
X81663Y-68520D01*
X81570Y-68612D01*
X81520Y-68734D01*
X81519Y-68865D01*
X81570Y-68986D01*
X81662Y-69079D01*
X81711Y-69099D01*
X81663Y-69120D01*
X81570Y-69212D01*
X81520Y-69334D01*
X81519Y-69465D01*
X81570Y-69586D01*
X81662Y-69679D01*
X81784Y-69729D01*
X81915Y-69730D01*
X82036Y-69679D01*
X82129Y-69587D01*
X82179Y-69465D01*
X82180Y-69334D01*
X82129Y-69213D01*
X82037Y-69120D01*
X81988Y-69100D01*
X82036Y-69079D01*
X82129Y-68987D01*
X82153Y-68930D01*
X82215Y-68930D01*
X82336Y-68879D01*
X82429Y-68787D01*
X82479Y-68665D01*
X82480Y-68534D01*
X82480Y-71384D01*
X82429Y-71263D01*
X82337Y-71170D01*
X82215Y-71120D01*
X82153Y-71120D01*
X82129Y-71063D01*
X82037Y-70970D01*
X81988Y-70950D01*
X82036Y-70929D01*
X82129Y-70837D01*
X82179Y-70715D01*
X82180Y-70584D01*
X82129Y-70463D01*
X82037Y-70370D01*
X81915Y-70320D01*
X81784Y-70319D01*
X81663Y-70370D01*
X81570Y-70462D01*
X81520Y-70584D01*
X81519Y-70715D01*
X81570Y-70836D01*
X81662Y-70929D01*
X81711Y-70949D01*
X81663Y-70970D01*
X81570Y-71062D01*
X81520Y-71184D01*
X81519Y-71315D01*
X81570Y-71436D01*
X81662Y-71529D01*
X81784Y-71579D01*
X81846Y-71579D01*
X81870Y-71636D01*
X81962Y-71729D01*
X82084Y-71779D01*
X82215Y-71780D01*
X82336Y-71729D01*
X82429Y-71637D01*
X82479Y-71515D01*
X82480Y-71384D01*
X82480Y-83808D01*
X82136Y-83808D01*
X82136Y-82770D01*
X82179Y-82665D01*
X82180Y-82534D01*
X82136Y-82429D01*
X82136Y-82070D01*
X82179Y-81965D01*
X82180Y-81834D01*
X82136Y-81729D01*
X82136Y-77270D01*
X82179Y-77165D01*
X82180Y-77034D01*
X82136Y-76929D01*
X82136Y-76570D01*
X82179Y-76465D01*
X82180Y-76334D01*
X82136Y-76229D01*
X82136Y-72390D01*
X81130Y-72390D01*
X81130Y-65684D01*
X81130Y-64684D01*
X81079Y-64563D01*
X80987Y-64470D01*
X80865Y-64420D01*
X80734Y-64419D01*
X80613Y-64470D01*
X80520Y-64562D01*
X80470Y-64684D01*
X80469Y-64815D01*
X80520Y-64936D01*
X80612Y-65029D01*
X80734Y-65079D01*
X80865Y-65080D01*
X80986Y-65029D01*
X81079Y-64937D01*
X81129Y-64815D01*
X81130Y-64684D01*
X81130Y-65684D01*
X81079Y-65563D01*
X80987Y-65470D01*
X80865Y-65420D01*
X80734Y-65419D01*
X80613Y-65470D01*
X80520Y-65562D01*
X80470Y-65684D01*
X80469Y-65815D01*
X80520Y-65936D01*
X80612Y-66029D01*
X80734Y-66079D01*
X80865Y-66080D01*
X80986Y-66029D01*
X81079Y-65937D01*
X81129Y-65815D01*
X81130Y-65684D01*
X81130Y-72390D01*
X80430Y-72390D01*
X80430Y-65684D01*
X80379Y-65563D01*
X80287Y-65470D01*
X80165Y-65420D01*
X80103Y-65420D01*
X80079Y-65363D01*
X79987Y-65270D01*
X79938Y-65250D01*
X79986Y-65229D01*
X80079Y-65137D01*
X80103Y-65080D01*
X80165Y-65080D01*
X80286Y-65029D01*
X80379Y-64937D01*
X80429Y-64815D01*
X80430Y-64684D01*
X80379Y-64563D01*
X80287Y-64470D01*
X80165Y-64420D01*
X80034Y-64419D01*
X79913Y-64470D01*
X79820Y-64562D01*
X79796Y-64619D01*
X79780Y-64619D01*
X79780Y-63084D01*
X79729Y-62963D01*
X79637Y-62870D01*
X79515Y-62820D01*
X79453Y-62820D01*
X79429Y-62763D01*
X79337Y-62670D01*
X79215Y-62620D01*
X79084Y-62619D01*
X78963Y-62670D01*
X78870Y-62762D01*
X78820Y-62884D01*
X78819Y-63015D01*
X78870Y-63136D01*
X78962Y-63229D01*
X79084Y-63279D01*
X79146Y-63279D01*
X79170Y-63336D01*
X79262Y-63429D01*
X79384Y-63479D01*
X79515Y-63480D01*
X79636Y-63429D01*
X79729Y-63337D01*
X79779Y-63215D01*
X79780Y-63084D01*
X79780Y-64619D01*
X79734Y-64619D01*
X79613Y-64670D01*
X79520Y-64762D01*
X79470Y-64884D01*
X79469Y-65015D01*
X79520Y-65136D01*
X79612Y-65229D01*
X79661Y-65249D01*
X79613Y-65270D01*
X79520Y-65362D01*
X79470Y-65484D01*
X79469Y-65615D01*
X79497Y-65681D01*
X79364Y-65626D01*
X79136Y-65626D01*
X78925Y-65713D01*
X78763Y-65874D01*
X78676Y-66085D01*
X78676Y-66313D01*
X78763Y-66524D01*
X78924Y-66686D01*
X79135Y-66773D01*
X79363Y-66773D01*
X79574Y-66686D01*
X79736Y-66525D01*
X79823Y-66314D01*
X79823Y-66086D01*
X79738Y-65879D01*
X79796Y-65879D01*
X79820Y-65936D01*
X79912Y-66029D01*
X80034Y-66079D01*
X80165Y-66080D01*
X80286Y-66029D01*
X80379Y-65937D01*
X80429Y-65815D01*
X80430Y-65684D01*
X80430Y-72390D01*
X78830Y-72390D01*
X78830Y-70734D01*
X78830Y-70034D01*
X78779Y-69913D01*
X78687Y-69820D01*
X78565Y-69770D01*
X78434Y-69769D01*
X78380Y-69792D01*
X78380Y-66334D01*
X78380Y-65634D01*
X78329Y-65513D01*
X78237Y-65420D01*
X78115Y-65370D01*
X77984Y-65369D01*
X77863Y-65420D01*
X77770Y-65512D01*
X77720Y-65634D01*
X77719Y-65765D01*
X77770Y-65886D01*
X77862Y-65979D01*
X77984Y-66029D01*
X78115Y-66030D01*
X78236Y-65979D01*
X78329Y-65887D01*
X78379Y-65765D01*
X78380Y-65634D01*
X78380Y-66334D01*
X78329Y-66213D01*
X78237Y-66120D01*
X78115Y-66070D01*
X77984Y-66069D01*
X77863Y-66120D01*
X77770Y-66212D01*
X77720Y-66334D01*
X77719Y-66465D01*
X77770Y-66586D01*
X77862Y-66679D01*
X77984Y-66729D01*
X78115Y-66730D01*
X78236Y-66679D01*
X78329Y-66587D01*
X78379Y-66465D01*
X78380Y-66334D01*
X78380Y-69792D01*
X78313Y-69820D01*
X78220Y-69912D01*
X78170Y-70034D01*
X78169Y-70165D01*
X78220Y-70286D01*
X78312Y-70379D01*
X78434Y-70429D01*
X78565Y-70430D01*
X78686Y-70379D01*
X78779Y-70287D01*
X78829Y-70165D01*
X78830Y-70034D01*
X78830Y-70734D01*
X78779Y-70613D01*
X78687Y-70520D01*
X78565Y-70470D01*
X78434Y-70469D01*
X78313Y-70520D01*
X78220Y-70612D01*
X78170Y-70734D01*
X78169Y-70865D01*
X78220Y-70986D01*
X78312Y-71079D01*
X78434Y-71129D01*
X78565Y-71130D01*
X78686Y-71079D01*
X78779Y-70987D01*
X78829Y-70865D01*
X78830Y-70734D01*
X78830Y-72390D01*
X77530Y-72390D01*
X77530Y-70034D01*
X77479Y-69913D01*
X77387Y-69820D01*
X77265Y-69770D01*
X77134Y-69769D01*
X77030Y-69813D01*
X77030Y-65984D01*
X76979Y-65863D01*
X76887Y-65770D01*
X76765Y-65720D01*
X76634Y-65719D01*
X76513Y-65770D01*
X76420Y-65862D01*
X76400Y-65911D01*
X76379Y-65863D01*
X76287Y-65770D01*
X76165Y-65720D01*
X76123Y-65720D01*
X76123Y-64886D01*
X76036Y-64675D01*
X75875Y-64513D01*
X75664Y-64426D01*
X75436Y-64426D01*
X75225Y-64513D01*
X75063Y-64674D01*
X74976Y-64885D01*
X74976Y-65113D01*
X75063Y-65324D01*
X75224Y-65486D01*
X75435Y-65573D01*
X75663Y-65573D01*
X75874Y-65486D01*
X76036Y-65325D01*
X76123Y-65114D01*
X76123Y-64886D01*
X76123Y-65720D01*
X76034Y-65719D01*
X75913Y-65770D01*
X75820Y-65862D01*
X75770Y-65984D01*
X75769Y-66096D01*
X75713Y-66120D01*
X75620Y-66212D01*
X75570Y-66334D01*
X75569Y-66465D01*
X75620Y-66586D01*
X75712Y-66679D01*
X75834Y-66729D01*
X75965Y-66730D01*
X76086Y-66679D01*
X76179Y-66587D01*
X76229Y-66465D01*
X76230Y-66353D01*
X76286Y-66329D01*
X76379Y-66237D01*
X76399Y-66188D01*
X76420Y-66236D01*
X76512Y-66329D01*
X76634Y-66379D01*
X76765Y-66380D01*
X76886Y-66329D01*
X76979Y-66237D01*
X77029Y-66115D01*
X77030Y-65984D01*
X77030Y-69813D01*
X77013Y-69820D01*
X76920Y-69912D01*
X76870Y-70034D01*
X76870Y-70096D01*
X76813Y-70120D01*
X76720Y-70212D01*
X76700Y-70261D01*
X76679Y-70213D01*
X76587Y-70120D01*
X76530Y-70096D01*
X76530Y-70034D01*
X76479Y-69913D01*
X76387Y-69820D01*
X76265Y-69770D01*
X76134Y-69769D01*
X76013Y-69820D01*
X75920Y-69912D01*
X75870Y-70034D01*
X75869Y-70165D01*
X75920Y-70286D01*
X76012Y-70379D01*
X76069Y-70403D01*
X76069Y-70465D01*
X76116Y-70577D01*
X76114Y-70576D01*
X75886Y-70576D01*
X75675Y-70663D01*
X75513Y-70824D01*
X75426Y-71035D01*
X75426Y-71263D01*
X75513Y-71474D01*
X75674Y-71636D01*
X75885Y-71723D01*
X76113Y-71723D01*
X76324Y-71636D01*
X76486Y-71475D01*
X76573Y-71264D01*
X76573Y-71036D01*
X76486Y-70825D01*
X76391Y-70729D01*
X76465Y-70730D01*
X76586Y-70679D01*
X76679Y-70587D01*
X76699Y-70538D01*
X76720Y-70586D01*
X76812Y-70679D01*
X76934Y-70729D01*
X77065Y-70730D01*
X77186Y-70679D01*
X77279Y-70587D01*
X77329Y-70465D01*
X77329Y-70403D01*
X77386Y-70379D01*
X77479Y-70287D01*
X77529Y-70165D01*
X77530Y-70034D01*
X77530Y-72390D01*
X75323Y-72390D01*
X75323Y-69986D01*
X75236Y-69775D01*
X75223Y-69762D01*
X75223Y-66586D01*
X75136Y-66375D01*
X74975Y-66213D01*
X74764Y-66126D01*
X74536Y-66126D01*
X74325Y-66213D01*
X74163Y-66374D01*
X74076Y-66585D01*
X74076Y-66813D01*
X74163Y-67024D01*
X74324Y-67186D01*
X74535Y-67273D01*
X74763Y-67273D01*
X74974Y-67186D01*
X75136Y-67025D01*
X75223Y-66814D01*
X75223Y-66586D01*
X75223Y-69762D01*
X75075Y-69613D01*
X74864Y-69526D01*
X74636Y-69526D01*
X74425Y-69613D01*
X74263Y-69774D01*
X74176Y-69985D01*
X74176Y-70213D01*
X74263Y-70424D01*
X74424Y-70586D01*
X74635Y-70673D01*
X74863Y-70673D01*
X75074Y-70586D01*
X75236Y-70425D01*
X75323Y-70214D01*
X75323Y-69986D01*
X75323Y-72390D01*
X72097Y-72390D01*
X72097Y-71800D01*
X72080Y-71800D01*
X72080Y-69234D01*
X72080Y-66984D01*
X72029Y-66863D01*
X71937Y-66770D01*
X71815Y-66720D01*
X71684Y-66719D01*
X71563Y-66770D01*
X71470Y-66862D01*
X71420Y-66984D01*
X71419Y-67060D01*
X71379Y-66963D01*
X71287Y-66870D01*
X71165Y-66820D01*
X71034Y-66819D01*
X70975Y-66844D01*
X70915Y-66820D01*
X70784Y-66819D01*
X70725Y-66844D01*
X70665Y-66820D01*
X70534Y-66819D01*
X70413Y-66870D01*
X70320Y-66962D01*
X70270Y-67084D01*
X70269Y-67215D01*
X70320Y-67336D01*
X70412Y-67429D01*
X70534Y-67479D01*
X70665Y-67480D01*
X70724Y-67455D01*
X70784Y-67479D01*
X70915Y-67480D01*
X70974Y-67455D01*
X71034Y-67479D01*
X71165Y-67480D01*
X71286Y-67429D01*
X71379Y-67337D01*
X71429Y-67215D01*
X71430Y-67139D01*
X71470Y-67236D01*
X71562Y-67329D01*
X71684Y-67379D01*
X71815Y-67380D01*
X71936Y-67329D01*
X72029Y-67237D01*
X72079Y-67115D01*
X72080Y-66984D01*
X72080Y-69234D01*
X72029Y-69113D01*
X71937Y-69020D01*
X71815Y-68970D01*
X71684Y-68969D01*
X71563Y-69020D01*
X71470Y-69112D01*
X71420Y-69234D01*
X71419Y-69365D01*
X71470Y-69486D01*
X71562Y-69579D01*
X71684Y-69629D01*
X71815Y-69630D01*
X71936Y-69579D01*
X72029Y-69487D01*
X72079Y-69365D01*
X72080Y-69234D01*
X72080Y-71800D01*
X70128Y-71800D01*
X70128Y-66585D01*
X73868Y-66585D01*
X73868Y-62451D01*
X81384Y-62451D01*
X81420Y-62536D01*
X81512Y-62629D01*
X81634Y-62679D01*
X81765Y-62680D01*
X81886Y-62629D01*
X81979Y-62537D01*
X82015Y-62451D01*
X82084Y-62451D01*
X82120Y-62536D01*
X82212Y-62629D01*
X82334Y-62679D01*
X82446Y-62680D01*
X82470Y-62736D01*
X82562Y-62829D01*
X82611Y-62849D01*
X82563Y-62870D01*
X82470Y-62962D01*
X82446Y-63020D01*
X82334Y-63019D01*
X82213Y-63070D01*
X82120Y-63162D01*
X82070Y-63284D01*
X82069Y-63415D01*
X82120Y-63536D01*
X82212Y-63629D01*
X82334Y-63679D01*
X82465Y-63680D01*
X82586Y-63629D01*
X82679Y-63537D01*
X82703Y-63479D01*
X82815Y-63480D01*
X82936Y-63429D01*
X83029Y-63337D01*
X83079Y-63215D01*
X83080Y-63084D01*
X83029Y-62963D01*
X82937Y-62870D01*
X82888Y-62850D01*
X82936Y-62829D01*
X83029Y-62737D01*
X83079Y-62615D01*
X83080Y-62484D01*
X83066Y-62451D01*
X86170Y-62451D01*
X86170Y-64746D01*
X86113Y-64770D01*
X86020Y-64862D01*
X86000Y-64911D01*
X85979Y-64863D01*
X85887Y-64770D01*
X85765Y-64720D01*
X85634Y-64719D01*
X85513Y-64770D01*
X85420Y-64862D01*
X85370Y-64984D01*
X85369Y-65115D01*
X85420Y-65236D01*
X85512Y-65329D01*
X85634Y-65379D01*
X85765Y-65380D01*
X85886Y-65329D01*
X85979Y-65237D01*
X85999Y-65188D01*
X86020Y-65236D01*
X86112Y-65329D01*
X86170Y-65353D01*
X86170Y-66011D01*
X86129Y-65913D01*
X86037Y-65820D01*
X85915Y-65770D01*
X85784Y-65769D01*
X85725Y-65794D01*
X85665Y-65770D01*
X85534Y-65769D01*
X85413Y-65820D01*
X85320Y-65912D01*
X85270Y-66034D01*
X85269Y-66165D01*
X85320Y-66286D01*
X85412Y-66379D01*
X85480Y-66407D01*
X85413Y-66474D01*
X85326Y-66685D01*
X85326Y-66913D01*
X85413Y-67124D01*
X85574Y-67286D01*
X85785Y-67373D01*
X86013Y-67373D01*
X86170Y-67308D01*
X86170Y-69628D01*
X86164Y-69626D01*
X85936Y-69626D01*
X85725Y-69713D01*
X85563Y-69874D01*
X85530Y-69956D01*
X85530Y-69334D01*
X85479Y-69213D01*
X85387Y-69120D01*
X85338Y-69100D01*
X85386Y-69079D01*
X85479Y-68987D01*
X85529Y-68865D01*
X85530Y-68734D01*
X85479Y-68613D01*
X85387Y-68520D01*
X85265Y-68470D01*
X85203Y-68470D01*
X85179Y-68413D01*
X85087Y-68320D01*
X84965Y-68270D01*
X84834Y-68269D01*
X84830Y-68271D01*
X84830Y-65984D01*
X84779Y-65863D01*
X84687Y-65770D01*
X84565Y-65720D01*
X84434Y-65719D01*
X84313Y-65770D01*
X84220Y-65862D01*
X84170Y-65984D01*
X84169Y-66115D01*
X84220Y-66236D01*
X84312Y-66329D01*
X84434Y-66379D01*
X84565Y-66380D01*
X84686Y-66329D01*
X84779Y-66237D01*
X84829Y-66115D01*
X84830Y-65984D01*
X84830Y-68271D01*
X84713Y-68320D01*
X84620Y-68412D01*
X84570Y-68534D01*
X84569Y-68665D01*
X84620Y-68786D01*
X84712Y-68879D01*
X84834Y-68929D01*
X84896Y-68929D01*
X84920Y-68986D01*
X85012Y-69079D01*
X85061Y-69099D01*
X85013Y-69120D01*
X84920Y-69212D01*
X84870Y-69334D01*
X84869Y-69465D01*
X84883Y-69498D01*
X84815Y-69470D01*
X84684Y-69469D01*
X84563Y-69520D01*
X84470Y-69612D01*
X84420Y-69734D01*
X84419Y-69865D01*
X84470Y-69986D01*
X84562Y-70079D01*
X84684Y-70129D01*
X84815Y-70130D01*
X84936Y-70079D01*
X85029Y-69987D01*
X85079Y-69865D01*
X85080Y-69734D01*
X85066Y-69701D01*
X85134Y-69729D01*
X85265Y-69730D01*
X85386Y-69679D01*
X85479Y-69587D01*
X85529Y-69465D01*
X85530Y-69334D01*
X85530Y-69956D01*
X85476Y-70085D01*
X85476Y-70313D01*
X85563Y-70524D01*
X85724Y-70686D01*
X85935Y-70773D01*
X86163Y-70773D01*
X86170Y-70770D01*
X86170Y-72390D01*
X86170Y-72390D01*
G37*
G54D19*
X86170Y-72390D02*
X85530Y-72390D01*
X85530Y-71184D01*
X85479Y-71063D01*
X85387Y-70970D01*
X85338Y-70950D01*
X85386Y-70929D01*
X85479Y-70837D01*
X85529Y-70715D01*
X85530Y-70584D01*
X85479Y-70463D01*
X85387Y-70370D01*
X85265Y-70320D01*
X85134Y-70319D01*
X85013Y-70370D01*
X84920Y-70462D01*
X84870Y-70584D01*
X84869Y-70715D01*
X84920Y-70836D01*
X85012Y-70929D01*
X85061Y-70949D01*
X85013Y-70970D01*
X84920Y-71062D01*
X84896Y-71119D01*
X84834Y-71119D01*
X84713Y-71170D01*
X84620Y-71262D01*
X84570Y-71384D01*
X84569Y-71515D01*
X84620Y-71636D01*
X84712Y-71729D01*
X84834Y-71779D01*
X84965Y-71780D01*
X85086Y-71729D01*
X85179Y-71637D01*
X85203Y-71580D01*
X85265Y-71580D01*
X85386Y-71529D01*
X85479Y-71437D01*
X85529Y-71315D01*
X85530Y-71184D01*
X85530Y-72390D01*
X84595Y-72390D01*
X84595Y-76082D01*
X84565Y-76070D01*
X84434Y-76069D01*
X84313Y-76120D01*
X84220Y-76212D01*
X84170Y-76334D01*
X84169Y-76465D01*
X84220Y-76586D01*
X84312Y-76679D01*
X84434Y-76729D01*
X84565Y-76730D01*
X84595Y-76717D01*
X84595Y-76782D01*
X84565Y-76770D01*
X84434Y-76769D01*
X84313Y-76820D01*
X84220Y-76912D01*
X84170Y-77034D01*
X84169Y-77165D01*
X84220Y-77286D01*
X84312Y-77379D01*
X84434Y-77429D01*
X84565Y-77430D01*
X84595Y-77417D01*
X84595Y-81603D01*
X84515Y-81570D01*
X84384Y-81569D01*
X84263Y-81620D01*
X84170Y-81712D01*
X84120Y-81834D01*
X84119Y-81965D01*
X84170Y-82086D01*
X84262Y-82179D01*
X84384Y-82229D01*
X84515Y-82230D01*
X84595Y-82196D01*
X84595Y-82303D01*
X84515Y-82270D01*
X84384Y-82269D01*
X84263Y-82320D01*
X84170Y-82412D01*
X84120Y-82534D01*
X84119Y-82665D01*
X84170Y-82786D01*
X84262Y-82879D01*
X84384Y-82929D01*
X84515Y-82930D01*
X84595Y-82896D01*
X84595Y-83808D01*
X83880Y-83808D01*
X83880Y-79684D01*
X83880Y-74234D01*
X83829Y-74113D01*
X83737Y-74020D01*
X83615Y-73970D01*
X83484Y-73969D01*
X83374Y-74015D01*
X83265Y-73970D01*
X83134Y-73969D01*
X83013Y-74020D01*
X82920Y-74112D01*
X82870Y-74234D01*
X82869Y-74365D01*
X82920Y-74486D01*
X83012Y-74579D01*
X83134Y-74629D01*
X83265Y-74630D01*
X83375Y-74584D01*
X83484Y-74629D01*
X83615Y-74630D01*
X83736Y-74579D01*
X83829Y-74487D01*
X83879Y-74365D01*
X83880Y-74234D01*
X83880Y-79684D01*
X83829Y-79563D01*
X83737Y-79470D01*
X83615Y-79420D01*
X83484Y-79419D01*
X83374Y-79465D01*
X83280Y-79425D01*
X83280Y-77034D01*
X83280Y-76334D01*
X83229Y-76213D01*
X83137Y-76120D01*
X83015Y-76070D01*
X82884Y-76069D01*
X82763Y-76120D01*
X82670Y-76212D01*
X82620Y-76334D01*
X82619Y-76465D01*
X82670Y-76586D01*
X82762Y-76679D01*
X82884Y-76729D01*
X83015Y-76730D01*
X83136Y-76679D01*
X83229Y-76587D01*
X83279Y-76465D01*
X83280Y-76334D01*
X83280Y-77034D01*
X83229Y-76913D01*
X83137Y-76820D01*
X83015Y-76770D01*
X82884Y-76769D01*
X82763Y-76820D01*
X82670Y-76912D01*
X82620Y-77034D01*
X82619Y-77165D01*
X82670Y-77286D01*
X82762Y-77379D01*
X82884Y-77429D01*
X83015Y-77430D01*
X83136Y-77379D01*
X83229Y-77287D01*
X83279Y-77165D01*
X83280Y-77034D01*
X83280Y-79425D01*
X83265Y-79420D01*
X83134Y-79419D01*
X83013Y-79470D01*
X82920Y-79562D01*
X82870Y-79684D01*
X82869Y-79815D01*
X82920Y-79936D01*
X83012Y-80029D01*
X83134Y-80079D01*
X83265Y-80080D01*
X83375Y-80034D01*
X83484Y-80079D01*
X83615Y-80080D01*
X83736Y-80029D01*
X83829Y-79937D01*
X83879Y-79815D01*
X83880Y-79684D01*
X83880Y-83808D01*
X83280Y-83808D01*
X83280Y-82534D01*
X83280Y-81834D01*
X83229Y-81713D01*
X83137Y-81620D01*
X83015Y-81570D01*
X82884Y-81569D01*
X82763Y-81620D01*
X82670Y-81712D01*
X82620Y-81834D01*
X82619Y-81965D01*
X82670Y-82086D01*
X82762Y-82179D01*
X82884Y-82229D01*
X83015Y-82230D01*
X83136Y-82179D01*
X83229Y-82087D01*
X83279Y-81965D01*
X83280Y-81834D01*
X83280Y-82534D01*
X83229Y-82413D01*
X83137Y-82320D01*
X83015Y-82270D01*
X82884Y-82269D01*
X82763Y-82320D01*
X82670Y-82412D01*
X82620Y-82534D01*
X82619Y-82665D01*
X82670Y-82786D01*
X82762Y-82879D01*
X82884Y-82929D01*
X83015Y-82930D01*
X83136Y-82879D01*
X83229Y-82787D01*
X83279Y-82665D01*
X83280Y-82534D01*
X83280Y-83808D01*
X82480Y-83808D01*
X82480Y-71384D01*
X82480Y-68534D01*
X82429Y-68413D01*
X82337Y-68320D01*
X82215Y-68270D01*
X82084Y-68269D01*
X81963Y-68320D01*
X81870Y-68412D01*
X81846Y-68469D01*
X81784Y-68469D01*
X81663Y-68520D01*
X81570Y-68612D01*
X81520Y-68734D01*
X81519Y-68865D01*
X81570Y-68986D01*
X81662Y-69079D01*
X81711Y-69099D01*
X81663Y-69120D01*
X81570Y-69212D01*
X81520Y-69334D01*
X81519Y-69465D01*
X81570Y-69586D01*
X81662Y-69679D01*
X81784Y-69729D01*
X81915Y-69730D01*
X82036Y-69679D01*
X82129Y-69587D01*
X82179Y-69465D01*
X82180Y-69334D01*
X82129Y-69213D01*
X82037Y-69120D01*
X81988Y-69100D01*
X82036Y-69079D01*
X82129Y-68987D01*
X82153Y-68930D01*
X82215Y-68930D01*
X82336Y-68879D01*
X82429Y-68787D01*
X82479Y-68665D01*
X82480Y-68534D01*
X82480Y-71384D01*
X82429Y-71263D01*
X82337Y-71170D01*
X82215Y-71120D01*
X82153Y-71120D01*
X82129Y-71063D01*
X82037Y-70970D01*
X81988Y-70950D01*
X82036Y-70929D01*
X82129Y-70837D01*
X82179Y-70715D01*
X82180Y-70584D01*
X82129Y-70463D01*
X82037Y-70370D01*
X81915Y-70320D01*
X81784Y-70319D01*
X81663Y-70370D01*
X81570Y-70462D01*
X81520Y-70584D01*
X81519Y-70715D01*
X81570Y-70836D01*
X81662Y-70929D01*
X81711Y-70949D01*
X81663Y-70970D01*
X81570Y-71062D01*
X81520Y-71184D01*
X81519Y-71315D01*
X81570Y-71436D01*
X81662Y-71529D01*
X81784Y-71579D01*
X81846Y-71579D01*
X81870Y-71636D01*
X81962Y-71729D01*
X82084Y-71779D01*
X82215Y-71780D01*
X82336Y-71729D01*
X82429Y-71637D01*
X82479Y-71515D01*
X82480Y-71384D01*
X82480Y-83808D01*
X82136Y-83808D01*
X82136Y-82770D01*
X82179Y-82665D01*
X82180Y-82534D01*
X82136Y-82429D01*
X82136Y-82070D01*
X82179Y-81965D01*
X82180Y-81834D01*
X82136Y-81729D01*
X82136Y-77270D01*
X82179Y-77165D01*
X82180Y-77034D01*
X82136Y-76929D01*
X82136Y-76570D01*
X82179Y-76465D01*
X82180Y-76334D01*
X82136Y-76229D01*
X82136Y-72390D01*
X81130Y-72390D01*
X81130Y-65684D01*
X81130Y-64684D01*
X81079Y-64563D01*
X80987Y-64470D01*
X80865Y-64420D01*
X80734Y-64419D01*
X80613Y-64470D01*
X80520Y-64562D01*
X80470Y-64684D01*
X80469Y-64815D01*
X80520Y-64936D01*
X80612Y-65029D01*
X80734Y-65079D01*
X80865Y-65080D01*
X80986Y-65029D01*
X81079Y-64937D01*
X81129Y-64815D01*
X81130Y-64684D01*
X81130Y-65684D01*
X81079Y-65563D01*
X80987Y-65470D01*
X80865Y-65420D01*
X80734Y-65419D01*
X80613Y-65470D01*
X80520Y-65562D01*
X80470Y-65684D01*
X80469Y-65815D01*
X80520Y-65936D01*
X80612Y-66029D01*
X80734Y-66079D01*
X80865Y-66080D01*
X80986Y-66029D01*
X81079Y-65937D01*
X81129Y-65815D01*
X81130Y-65684D01*
X81130Y-72390D01*
X80430Y-72390D01*
X80430Y-65684D01*
X80379Y-65563D01*
X80287Y-65470D01*
X80165Y-65420D01*
X80103Y-65420D01*
X80079Y-65363D01*
X79987Y-65270D01*
X79938Y-65250D01*
X79986Y-65229D01*
X80079Y-65137D01*
X80103Y-65080D01*
X80165Y-65080D01*
X80286Y-65029D01*
X80379Y-64937D01*
X80429Y-64815D01*
X80430Y-64684D01*
X80379Y-64563D01*
X80287Y-64470D01*
X80165Y-64420D01*
X80034Y-64419D01*
X79913Y-64470D01*
X79820Y-64562D01*
X79796Y-64619D01*
X79780Y-64619D01*
X79780Y-63084D01*
X79729Y-62963D01*
X79637Y-62870D01*
X79515Y-62820D01*
X79453Y-62820D01*
X79429Y-62763D01*
X79337Y-62670D01*
X79215Y-62620D01*
X79084Y-62619D01*
X78963Y-62670D01*
X78870Y-62762D01*
X78820Y-62884D01*
X78819Y-63015D01*
X78870Y-63136D01*
X78962Y-63229D01*
X79084Y-63279D01*
X79146Y-63279D01*
X79170Y-63336D01*
X79262Y-63429D01*
X79384Y-63479D01*
X79515Y-63480D01*
X79636Y-63429D01*
X79729Y-63337D01*
X79779Y-63215D01*
X79780Y-63084D01*
X79780Y-64619D01*
X79734Y-64619D01*
X79613Y-64670D01*
X79520Y-64762D01*
X79470Y-64884D01*
X79469Y-65015D01*
X79520Y-65136D01*
X79612Y-65229D01*
X79661Y-65249D01*
X79613Y-65270D01*
X79520Y-65362D01*
X79470Y-65484D01*
X79469Y-65615D01*
X79497Y-65681D01*
X79364Y-65626D01*
X79136Y-65626D01*
X78925Y-65713D01*
X78763Y-65874D01*
X78676Y-66085D01*
X78676Y-66313D01*
X78763Y-66524D01*
X78924Y-66686D01*
X79135Y-66773D01*
X79363Y-66773D01*
X79574Y-66686D01*
X79736Y-66525D01*
X79823Y-66314D01*
X79823Y-66086D01*
X79738Y-65879D01*
X79796Y-65879D01*
X79820Y-65936D01*
X79912Y-66029D01*
X80034Y-66079D01*
X80165Y-66080D01*
X80286Y-66029D01*
X80379Y-65937D01*
X80429Y-65815D01*
X80430Y-65684D01*
X80430Y-72390D01*
X78830Y-72390D01*
X78830Y-70734D01*
X78830Y-70034D01*
X78779Y-69913D01*
X78687Y-69820D01*
X78565Y-69770D01*
X78434Y-69769D01*
X78380Y-69792D01*
X78380Y-66334D01*
X78380Y-65634D01*
X78329Y-65513D01*
X78237Y-65420D01*
X78115Y-65370D01*
X77984Y-65369D01*
X77863Y-65420D01*
X77770Y-65512D01*
X77720Y-65634D01*
X77719Y-65765D01*
X77770Y-65886D01*
X77862Y-65979D01*
X77984Y-66029D01*
X78115Y-66030D01*
X78236Y-65979D01*
X78329Y-65887D01*
X78379Y-65765D01*
X78380Y-65634D01*
X78380Y-66334D01*
X78329Y-66213D01*
X78237Y-66120D01*
X78115Y-66070D01*
X77984Y-66069D01*
X77863Y-66120D01*
X77770Y-66212D01*
X77720Y-66334D01*
X77719Y-66465D01*
X77770Y-66586D01*
X77862Y-66679D01*
X77984Y-66729D01*
X78115Y-66730D01*
X78236Y-66679D01*
X78329Y-66587D01*
X78379Y-66465D01*
X78380Y-66334D01*
X78380Y-69792D01*
X78313Y-69820D01*
X78220Y-69912D01*
X78170Y-70034D01*
X78169Y-70165D01*
X78220Y-70286D01*
X78312Y-70379D01*
X78434Y-70429D01*
X78565Y-70430D01*
X78686Y-70379D01*
X78779Y-70287D01*
X78829Y-70165D01*
X78830Y-70034D01*
X78830Y-70734D01*
X78779Y-70613D01*
X78687Y-70520D01*
X78565Y-70470D01*
X78434Y-70469D01*
X78313Y-70520D01*
X78220Y-70612D01*
X78170Y-70734D01*
X78169Y-70865D01*
X78220Y-70986D01*
X78312Y-71079D01*
X78434Y-71129D01*
X78565Y-71130D01*
X78686Y-71079D01*
X78779Y-70987D01*
X78829Y-70865D01*
X78830Y-70734D01*
X78830Y-72390D01*
X77530Y-72390D01*
X77530Y-70034D01*
X77479Y-69913D01*
X77387Y-69820D01*
X77265Y-69770D01*
X77134Y-69769D01*
X77030Y-69813D01*
X77030Y-65984D01*
X76979Y-65863D01*
X76887Y-65770D01*
X76765Y-65720D01*
X76634Y-65719D01*
X76513Y-65770D01*
X76420Y-65862D01*
X76400Y-65911D01*
X76379Y-65863D01*
X76287Y-65770D01*
X76165Y-65720D01*
X76123Y-65720D01*
X76123Y-64886D01*
X76036Y-64675D01*
X75875Y-64513D01*
X75664Y-64426D01*
X75436Y-64426D01*
X75225Y-64513D01*
X75063Y-64674D01*
X74976Y-64885D01*
X74976Y-65113D01*
X75063Y-65324D01*
X75224Y-65486D01*
X75435Y-65573D01*
X75663Y-65573D01*
X75874Y-65486D01*
X76036Y-65325D01*
X76123Y-65114D01*
X76123Y-64886D01*
X76123Y-65720D01*
X76034Y-65719D01*
X75913Y-65770D01*
X75820Y-65862D01*
X75770Y-65984D01*
X75769Y-66096D01*
X75713Y-66120D01*
X75620Y-66212D01*
X75570Y-66334D01*
X75569Y-66465D01*
X75620Y-66586D01*
X75712Y-66679D01*
X75834Y-66729D01*
X75965Y-66730D01*
X76086Y-66679D01*
X76179Y-66587D01*
X76229Y-66465D01*
X76230Y-66353D01*
X76286Y-66329D01*
X76379Y-66237D01*
X76399Y-66188D01*
X76420Y-66236D01*
X76512Y-66329D01*
X76634Y-66379D01*
X76765Y-66380D01*
X76886Y-66329D01*
X76979Y-66237D01*
X77029Y-66115D01*
X77030Y-65984D01*
X77030Y-69813D01*
X77013Y-69820D01*
X76920Y-69912D01*
X76870Y-70034D01*
X76870Y-70096D01*
X76813Y-70120D01*
X76720Y-70212D01*
X76700Y-70261D01*
X76679Y-70213D01*
X76587Y-70120D01*
X76530Y-70096D01*
X76530Y-70034D01*
X76479Y-69913D01*
X76387Y-69820D01*
X76265Y-69770D01*
X76134Y-69769D01*
X76013Y-69820D01*
X75920Y-69912D01*
X75870Y-70034D01*
X75869Y-70165D01*
X75920Y-70286D01*
X76012Y-70379D01*
X76069Y-70403D01*
X76069Y-70465D01*
X76116Y-70577D01*
X76114Y-70576D01*
X75886Y-70576D01*
X75675Y-70663D01*
X75513Y-70824D01*
X75426Y-71035D01*
X75426Y-71263D01*
X75513Y-71474D01*
X75674Y-71636D01*
X75885Y-71723D01*
X76113Y-71723D01*
X76324Y-71636D01*
X76486Y-71475D01*
X76573Y-71264D01*
X76573Y-71036D01*
X76486Y-70825D01*
X76391Y-70729D01*
X76465Y-70730D01*
X76586Y-70679D01*
X76679Y-70587D01*
X76699Y-70538D01*
X76720Y-70586D01*
X76812Y-70679D01*
X76934Y-70729D01*
X77065Y-70730D01*
X77186Y-70679D01*
X77279Y-70587D01*
X77329Y-70465D01*
X77329Y-70403D01*
X77386Y-70379D01*
X77479Y-70287D01*
X77529Y-70165D01*
X77530Y-70034D01*
X77530Y-72390D01*
X75323Y-72390D01*
X75323Y-69986D01*
X75236Y-69775D01*
X75223Y-69762D01*
X75223Y-66586D01*
X75136Y-66375D01*
X74975Y-66213D01*
X74764Y-66126D01*
X74536Y-66126D01*
X74325Y-66213D01*
X74163Y-66374D01*
X74076Y-66585D01*
X74076Y-66813D01*
X74163Y-67024D01*
X74324Y-67186D01*
X74535Y-67273D01*
X74763Y-67273D01*
X74974Y-67186D01*
X75136Y-67025D01*
X75223Y-66814D01*
X75223Y-66586D01*
X75223Y-69762D01*
X75075Y-69613D01*
X74864Y-69526D01*
X74636Y-69526D01*
X74425Y-69613D01*
X74263Y-69774D01*
X74176Y-69985D01*
X74176Y-70213D01*
X74263Y-70424D01*
X74424Y-70586D01*
X74635Y-70673D01*
X74863Y-70673D01*
X75074Y-70586D01*
X75236Y-70425D01*
X75323Y-70214D01*
X75323Y-69986D01*
X75323Y-72390D01*
X72097Y-72390D01*
X72097Y-71800D01*
X72080Y-71800D01*
X72080Y-69234D01*
X72080Y-66984D01*
X72029Y-66863D01*
X71937Y-66770D01*
X71815Y-66720D01*
X71684Y-66719D01*
X71563Y-66770D01*
X71470Y-66862D01*
X71420Y-66984D01*
X71419Y-67060D01*
X71379Y-66963D01*
X71287Y-66870D01*
X71165Y-66820D01*
X71034Y-66819D01*
X70975Y-66844D01*
X70915Y-66820D01*
X70784Y-66819D01*
X70725Y-66844D01*
X70665Y-66820D01*
X70534Y-66819D01*
X70413Y-66870D01*
X70320Y-66962D01*
X70270Y-67084D01*
X70269Y-67215D01*
X70320Y-67336D01*
X70412Y-67429D01*
X70534Y-67479D01*
X70665Y-67480D01*
X70724Y-67455D01*
X70784Y-67479D01*
X70915Y-67480D01*
X70974Y-67455D01*
X71034Y-67479D01*
X71165Y-67480D01*
X71286Y-67429D01*
X71379Y-67337D01*
X71429Y-67215D01*
X71430Y-67139D01*
X71470Y-67236D01*
X71562Y-67329D01*
X71684Y-67379D01*
X71815Y-67380D01*
X71936Y-67329D01*
X72029Y-67237D01*
X72079Y-67115D01*
X72080Y-66984D01*
X72080Y-69234D01*
X72029Y-69113D01*
X71937Y-69020D01*
X71815Y-68970D01*
X71684Y-68969D01*
X71563Y-69020D01*
X71470Y-69112D01*
X71420Y-69234D01*
X71419Y-69365D01*
X71470Y-69486D01*
X71562Y-69579D01*
X71684Y-69629D01*
X71815Y-69630D01*
X71936Y-69579D01*
X72029Y-69487D01*
X72079Y-69365D01*
X72080Y-69234D01*
X72080Y-71800D01*
X70128Y-71800D01*
X70128Y-66585D01*
X73868Y-66585D01*
X73868Y-62451D01*
X81384Y-62451D01*
X81420Y-62536D01*
X81512Y-62629D01*
X81634Y-62679D01*
X81765Y-62680D01*
X81886Y-62629D01*
X81979Y-62537D01*
X82015Y-62451D01*
X82084Y-62451D01*
X82120Y-62536D01*
X82212Y-62629D01*
X82334Y-62679D01*
X82446Y-62680D01*
X82470Y-62736D01*
X82562Y-62829D01*
X82611Y-62849D01*
X82563Y-62870D01*
X82470Y-62962D01*
X82446Y-63020D01*
X82334Y-63019D01*
X82213Y-63070D01*
X82120Y-63162D01*
X82070Y-63284D01*
X82069Y-63415D01*
X82120Y-63536D01*
X82212Y-63629D01*
X82334Y-63679D01*
X82465Y-63680D01*
X82586Y-63629D01*
X82679Y-63537D01*
X82703Y-63479D01*
X82815Y-63480D01*
X82936Y-63429D01*
X83029Y-63337D01*
X83079Y-63215D01*
X83080Y-63084D01*
X83029Y-62963D01*
X82937Y-62870D01*
X82888Y-62850D01*
X82936Y-62829D01*
X83029Y-62737D01*
X83079Y-62615D01*
X83080Y-62484D01*
X83066Y-62451D01*
X86170Y-62451D01*
X86170Y-64746D01*
X86113Y-64770D01*
X86020Y-64862D01*
X86000Y-64911D01*
X85979Y-64863D01*
X85887Y-64770D01*
X85765Y-64720D01*
X85634Y-64719D01*
X85513Y-64770D01*
X85420Y-64862D01*
X85370Y-64984D01*
X85369Y-65115D01*
X85420Y-65236D01*
X85512Y-65329D01*
X85634Y-65379D01*
X85765Y-65380D01*
X85886Y-65329D01*
X85979Y-65237D01*
X85999Y-65188D01*
X86020Y-65236D01*
X86112Y-65329D01*
X86170Y-65353D01*
X86170Y-66011D01*
X86129Y-65913D01*
X86037Y-65820D01*
X85915Y-65770D01*
X85784Y-65769D01*
X85725Y-65794D01*
X85665Y-65770D01*
X85534Y-65769D01*
X85413Y-65820D01*
X85320Y-65912D01*
X85270Y-66034D01*
X85269Y-66165D01*
X85320Y-66286D01*
X85412Y-66379D01*
X85480Y-66407D01*
X85413Y-66474D01*
X85326Y-66685D01*
X85326Y-66913D01*
X85413Y-67124D01*
X85574Y-67286D01*
X85785Y-67373D01*
X86013Y-67373D01*
X86170Y-67308D01*
X86170Y-69628D01*
X86164Y-69626D01*
X85936Y-69626D01*
X85725Y-69713D01*
X85563Y-69874D01*
X85530Y-69956D01*
X85530Y-69334D01*
X85479Y-69213D01*
X85387Y-69120D01*
X85338Y-69100D01*
X85386Y-69079D01*
X85479Y-68987D01*
X85529Y-68865D01*
X85530Y-68734D01*
X85479Y-68613D01*
X85387Y-68520D01*
X85265Y-68470D01*
X85203Y-68470D01*
X85179Y-68413D01*
X85087Y-68320D01*
X84965Y-68270D01*
X84834Y-68269D01*
X84830Y-68271D01*
X84830Y-65984D01*
X84779Y-65863D01*
X84687Y-65770D01*
X84565Y-65720D01*
X84434Y-65719D01*
X84313Y-65770D01*
X84220Y-65862D01*
X84170Y-65984D01*
X84169Y-66115D01*
X84220Y-66236D01*
X84312Y-66329D01*
X84434Y-66379D01*
X84565Y-66380D01*
X84686Y-66329D01*
X84779Y-66237D01*
X84829Y-66115D01*
X84830Y-65984D01*
X84830Y-68271D01*
X84713Y-68320D01*
X84620Y-68412D01*
X84570Y-68534D01*
X84569Y-68665D01*
X84620Y-68786D01*
X84712Y-68879D01*
X84834Y-68929D01*
X84896Y-68929D01*
X84920Y-68986D01*
X85012Y-69079D01*
X85061Y-69099D01*
X85013Y-69120D01*
X84920Y-69212D01*
X84870Y-69334D01*
X84869Y-69465D01*
X84883Y-69498D01*
X84815Y-69470D01*
X84684Y-69469D01*
X84563Y-69520D01*
X84470Y-69612D01*
X84420Y-69734D01*
X84419Y-69865D01*
X84470Y-69986D01*
X84562Y-70079D01*
X84684Y-70129D01*
X84815Y-70130D01*
X84936Y-70079D01*
X85029Y-69987D01*
X85079Y-69865D01*
X85080Y-69734D01*
X85066Y-69701D01*
X85134Y-69729D01*
X85265Y-69730D01*
X85386Y-69679D01*
X85479Y-69587D01*
X85529Y-69465D01*
X85530Y-69334D01*
X85530Y-69956D01*
X85476Y-70085D01*
X85476Y-70313D01*
X85563Y-70524D01*
X85724Y-70686D01*
X85935Y-70773D01*
X86163Y-70773D01*
X86170Y-70770D01*
X86170Y-72390D01*
M02*
